<svg width="24" height="24" viewBox="0 0 14 18" fill="none" xmlns="http://www.w3.org/2000/svg">
<path d="M0 11.0401C0 14.4857 3.02538 17.2889 6.74355 17.2889H9.13064C9.52622 17.2889 9.84678 16.9919 9.84678 16.6253V16.4041C9.84678 16.0375 9.52626 15.7405 9.13064 15.7405H6.74355C3.94664 15.7405 1.67096 13.6318 1.67096 11.0401C1.67096 8.44844 3.94664 6.33974 6.74355 6.33974H11.1476L8.11453 9.15026C7.78876 9.45201 7.78876 9.94326 8.11453 10.245C8.43064 10.5377 8.98077 10.5373 9.29617 10.245L13.7552 6.11302C13.913 5.9668 14 5.77238 14 5.56553C14 5.35883 13.913 5.1643 13.7552 5.01816L9.29593 0.88598C8.98054 0.593508 8.42993 0.593508 8.11449 0.88598C7.78872 1.18766 7.78872 1.67898 8.11449 1.98062L11.1476 4.79136H6.74355C3.02538 4.79136 0 7.59464 0 11.0401Z" fill="#7C8A9F"/>
</svg>
