<svg width="24" height="24" viewBox="0 0 24 24" fill="none" xmlns="http://www.w3.org/2000/svg">
<path d="M19.805 7.19501L20.745 5.13501L22.805 4.19501L20.745 3.25501L19.805 1.19501L18.865 3.25501L16.805 4.19501L18.865 5.13501L19.805 7.19501Z" fill="black"/>
<path d="M13.975 8.61501L15.385 10.025L13.925 11.485L15.335 12.895L17.505 10.725C17.895 10.335 17.895 9.70501 17.505 9.31501L14.675 6.48501C14.485 6.29501 14.235 6.19501 13.975 6.19501C13.715 6.19501 13.465 6.29501 13.265 6.48501L11.095 8.65501L12.505 10.065L13.975 8.61501Z" fill="black"/>
<path d="M1.19501 4.41501L8.26501 11.485L2.09501 17.655C1.70501 18.045 1.70501 18.675 2.09501 19.065L4.92501 21.895C5.12501 22.095 5.37501 22.195 5.63501 22.195C5.89501 22.195 6.14501 22.095 6.34501 21.905L12.515 15.735L19.585 22.805L20.995 21.395L2.61501 3.00501L1.19501 4.41501ZM11.095 14.315L5.63501 19.775L4.22501 18.365L9.68501 12.905L11.095 14.315Z" fill="black"/>
</svg>
