<svg width="24" height="24" viewBox="0 0 24 24" fill="none" xmlns="http://www.w3.org/2000/svg">
<path d="M19.5012 7.5L20.4412 5.44L22.5012 4.5L20.4412 3.56L19.5012 1.5L18.5612 3.56L16.5012 4.5L18.5612 5.44L19.5012 7.5Z" fill="black"/>
<path d="M8.00125 7.5L8.94125 5.44L11.0012 4.5L8.94125 3.56L8.00125 1.5L7.06125 3.56L5.00125 4.5L7.06125 5.44L8.00125 7.5Z" fill="black"/>
<path d="M19.5012 13L18.5612 15.06L16.5012 16L18.5612 16.94L19.5012 19L20.4412 16.94L22.5012 16L20.4412 15.06L19.5012 13Z" fill="black"/>
<path d="M17.2112 9.62L14.3812 6.79C14.1812 6.6 13.9312 6.5 13.6712 6.5C13.4112 6.5 13.1612 6.6 12.9612 6.79L1.79125 17.96C1.40125 18.35 1.40125 18.98 1.79125 19.37L4.62125 22.2C4.82125 22.4 5.07125 22.5 5.33125 22.5C5.59125 22.5 5.84125 22.4 6.04125 22.21L17.2112 11.04C17.6012 10.65 17.6012 10.01 17.2112 9.62ZM13.6712 8.92L15.0812 10.33L13.9112 11.5L12.5012 10.09L13.6712 8.92ZM5.33125 20.09L3.92125 18.68L11.0912 11.5L12.5012 12.91L5.33125 20.09Z" fill="black"/>
</svg>
