<svg width="24" height="24" viewBox="0 0 24 24" fill="none" xmlns="http://www.w3.org/2000/svg">
<path d="M9.98001 4.18C9.85001 4.77 9.78001 5.33 9.74001 5.89L11.79 7.94C11.52 5.89 11.89 3.72 13.05 1.71C12.93 1.71 12.82 1.7 12.7 1.7C10.65 1.7 8.77001 2.31 7.20001 3.35L8.66001 4.81C9.08001 4.57 9.52001 4.35 9.98001 4.18Z" fill="black"/>
<path d="M2.10001 3.91L4.37001 6.18C3.32001 7.76 2.71001 9.66 2.71001 11.69C2.71001 17.21 7.19001 21.69 12.71 21.69C14.75 21.69 16.63 21.06 18.21 20.02L20.49 22.3L21.9 20.89L3.52001 2.5L2.10001 3.91ZM5.84001 7.65L16.76 18.57C15.55 19.29 14.16 19.69 12.71 19.69C8.30001 19.69 4.71001 16.1 4.71001 11.69C4.71001 10.21 5.13001 8.84 5.84001 7.65Z" fill="black"/>
</svg>
