<svg width="24" height="24" viewBox="0 0 24 24" fill="none" xmlns="http://www.w3.org/2000/svg">
<path d="M9.05501 14.195C9.74536 14.195 10.305 13.6354 10.305 12.945C10.305 12.2547 9.74536 11.695 9.05501 11.695C8.36465 11.695 7.80501 12.2547 7.80501 12.945C7.80501 13.6354 8.36465 14.195 9.05501 14.195Z" fill="black"/>
<path d="M17.555 9.94501C18.305 9.94501 19.025 9.85501 19.725 9.70501C19.935 10.415 20.055 11.165 20.055 11.945C20.055 13.165 19.775 14.315 19.285 15.345L20.775 16.835C21.585 15.385 22.055 13.725 22.055 11.945C22.055 6.42501 17.575 1.94501 12.055 1.94501C10.275 1.94501 8.61501 2.41501 7.16501 3.22501L12.495 8.55501C13.985 9.43501 15.705 9.94501 17.555 9.94501ZM10.715 4.06501C11.145 3.99501 11.595 3.94501 12.055 3.94501C14.955 3.94501 17.495 5.50501 18.895 7.82501C18.465 7.89501 18.015 7.94501 17.555 7.94501C14.655 7.94501 12.115 6.38501 10.715 4.06501Z" fill="black"/>
<path d="M1.94501 3.66501L4.13501 5.85501C2.83501 7.54501 2.05501 9.65501 2.05501 11.945C2.05501 17.465 6.53501 21.945 12.055 21.945C14.345 21.945 16.455 21.165 18.145 19.865L20.335 22.055L21.745 20.645L3.36501 2.25501L1.94501 3.66501ZM16.715 18.435C15.405 19.385 13.795 19.945 12.055 19.945C7.64501 19.945 4.05501 16.355 4.05501 11.945C4.05501 11.895 4.06501 11.845 4.05501 11.805C5.44501 11.285 6.68501 10.455 7.69501 9.41501L16.715 18.435ZM6.28501 8.00501C5.75501 8.55501 5.14501 9.03501 4.47501 9.41501C4.73501 8.64501 5.10501 7.93501 5.56501 7.28501L6.28501 8.00501Z" fill="black"/>
</svg>
