<svg width="24" height="24" viewBox="0 0 24 24" fill="none" xmlns="http://www.w3.org/2000/svg">
<path d="M17.995 14.455V12.455H19.095L19.995 14.455H21.495L20.595 12.355C21.095 12.055 21.495 11.555 21.495 10.955V9.95501C21.495 9.15501 20.795 8.45501 19.995 8.45501H16.495V13.315L17.635 14.455H17.995ZM17.995 9.95501H19.995V10.955H17.995V9.95501ZM13.495 9.95501V10.315L14.995 11.815V9.95501C14.995 9.15501 14.295 8.45501 13.495 8.45501H11.635L13.135 9.95501H13.495ZM3.00501 1.94501L1.94501 3.00501L7.39501 8.45501H6.99501V10.455H4.99501V8.45501H3.49501V14.455H4.99501V11.955H6.99501V14.455H8.49501V9.55501L9.99501 11.055V14.455H13.395L20.995 22.055L22.055 20.995L3.00501 1.94501Z" fill="black"/>
</svg>
