<svg width="24" height="24" viewBox="0 0 24 24" fill="none" xmlns="http://www.w3.org/2000/svg">
<path d="M17.745 12L21.725 8.02001C22.115 7.63001 22.115 7.00001 21.725 6.61001L17.385 2.27001C16.995 1.88001 16.365 1.88001 15.975 2.27001L11.995 6.25001L8.015 2.27001C7.815 2.08001 7.565 1.98001 7.305 1.98001C7.055 1.98001 6.795 2.08001 6.605 2.27001L2.265 6.61001C1.875 7.00001 1.875 7.63001 2.265 8.02001L6.245 12L2.265 15.98C1.875 16.37 1.875 17 2.265 17.39L6.605 21.73C6.995 22.12 7.625 22.12 8.015 21.73L11.995 17.75L15.975 21.73C16.175 21.93 16.425 22.02 16.685 22.02C16.945 22.02 17.195 21.92 17.395 21.73L21.735 17.39C22.125 17 22.125 16.37 21.735 15.98L17.745 12ZM12.015 8.98001C12.565 8.98001 13.015 9.43001 13.015 9.98001C13.015 10.53 12.565 10.98 12.015 10.98C11.465 10.98 11.015 10.53 11.015 9.98001C11.015 9.43001 11.465 8.98001 12.015 8.98001ZM7.305 10.94L3.675 7.32001L7.305 3.69001L10.925 7.31001L7.305 10.94ZM10.015 12.98C9.465 12.98 9.015 12.53 9.015 11.98C9.015 11.43 9.465 10.98 10.015 10.98C10.565 10.98 11.015 11.43 11.015 11.98C11.015 12.53 10.565 12.98 10.015 12.98ZM12.015 14.98C11.465 14.98 11.015 14.53 11.015 13.98C11.015 13.43 11.465 12.98 12.015 12.98C12.565 12.98 13.015 13.43 13.015 13.98C13.015 14.53 12.565 14.98 12.015 14.98ZM14.015 10.98C14.565 10.98 15.015 11.43 15.015 11.98C15.015 12.53 14.565 12.98 14.015 12.98C13.465 12.98 13.015 12.53 13.015 11.98C13.015 11.43 13.465 10.98 14.015 10.98ZM16.675 20.32L13.045 16.7L16.675 13.07L20.295 16.69L16.675 20.32Z" fill="black"/>
</svg>
