<svg width="24" height="24" viewBox="0 0 24 24" fill="none" xmlns="http://www.w3.org/2000/svg">
<path d="M13.93 3.06999H11.93C11.93 4.41999 11.62 5.69999 11.09 6.83999L12.58 8.32999C13.44 6.76999 13.93 4.97999 13.93 3.06999ZM20.93 12.07V10.07C19.02 10.07 17.23 10.56 15.66 11.42L17.15 12.91C18.3 12.38 19.58 12.07 20.93 12.07ZM20.93 16.07V14.07C20.14 14.07 19.39 14.2 18.69 14.44L20.37 16.12C20.56 16.11 20.74 16.07 20.93 16.07ZM9.92999 3.06999H7.92999C7.92999 3.25999 7.88999 3.43999 7.86999 3.62999L9.54999 5.30999C9.79999 4.60999 9.92999 3.84999 9.92999 3.06999ZM4.33999 2.92999L2.92999 4.33999L5.76999 7.17999C4.95999 7.73999 3.98999 8.06999 2.92999 8.06999V10.07C4.53999 10.07 6.01999 9.51999 7.19999 8.60999L8.62999 10.04C7.06999 11.31 5.08999 12.07 2.92999 12.07V14.07C5.64999 14.07 8.12999 13.08 10.04 11.45L12.55 13.96C10.92 15.88 9.92999 18.36 9.92999 21.07H11.93C11.93 18.91 12.69 16.93 13.96 15.37L15.39 16.8C14.48 17.98 13.93 19.46 13.93 21.07H15.93C15.93 20.01 16.26 19.04 16.82 18.23L19.66 21.07L21.07 19.66L4.33999 2.92999Z" fill="black"/>
</svg>
