<svg width="24" height="24" viewBox="0 0 24 24" fill="none" xmlns="http://www.w3.org/2000/svg">
<path d="M10.705 4.34C10.705 2.68 9.36499 1.34 7.70499 1.34C7.08499 1.34 6.51499 1.53 6.03499 1.84L10.185 5.99C10.505 5.52 10.705 4.95 10.705 4.34Z" fill="black"/>
<path d="M14.705 5.34C14.705 4.24 15.605 3.34 16.705 3.34C17.805 3.34 18.705 4.24 18.705 5.34V14.51L20.705 16.51V5.34C20.705 3.13 18.915 1.34 16.705 1.34C14.495 1.34 12.705 3.13 12.705 5.34V8.51L14.705 10.51V5.34Z" fill="black"/>
<path d="M2.80499 1.44L1.39499 2.85L5.87499 7.34H4.70499L5.70499 17.34H6.70499C6.70499 19.55 8.49499 21.34 10.705 21.34C12.915 21.34 14.705 19.55 14.705 17.34V16.17L21.195 22.66L22.605 21.25L2.80499 1.44ZM7.89499 15.34H7.51499L6.91499 9.34H7.87499L8.43499 9.9L7.89499 15.34ZM12.705 17.34C12.705 18.44 11.805 19.34 10.705 19.34C9.60499 19.34 8.70499 18.44 8.70499 17.34H9.70499L10.265 11.73L12.705 14.17V17.34Z" fill="black"/>
</svg>
