<svg width="24" height="24" viewBox="0 0 24 24" fill="none" xmlns="http://www.w3.org/2000/svg">
<path d="M3.115 2.50501L1.695 3.91501L3.965 6.18501C2.915 7.76501 2.305 9.65501 2.305 11.695C2.305 17.215 6.785 21.695 12.305 21.695C14.345 21.695 16.235 21.085 17.815 20.035L20.085 22.305L21.495 20.885L3.115 2.50501ZM12.305 19.695C7.895 19.695 4.305 16.105 4.305 11.695C4.305 10.215 4.715 8.83501 5.425 7.63501L16.355 18.575C15.165 19.285 13.785 19.695 12.305 19.695Z" fill="black"/>
<path d="M12.305 3.69501C16.715 3.69501 20.305 7.28501 20.305 11.695C20.305 13.175 19.895 14.555 19.185 15.745L20.635 17.195C21.695 15.625 22.305 13.735 22.305 11.695C22.305 6.17501 17.825 1.69501 12.305 1.69501C10.265 1.69501 8.375 2.30501 6.795 3.35501L8.245 4.80501C9.445 4.10501 10.825 3.69501 12.305 3.69501Z" fill="black"/>
</svg>
