<svg width="24" height="24" viewBox="0 0 24 24" fill="none" xmlns="http://www.w3.org/2000/svg">
<path d="M12.915 16.035H12.885C16.375 15.635 19.085 12.675 19.085 9.08502C19.085 5.21502 15.955 2.08502 12.085 2.08502C8.215 2.08502 5.085 5.21502 5.085 9.08502C5.085 12.555 7.605 15.425 10.915 15.975V19.915H4.915V21.915H18.915V19.915H12.915V16.035ZM7.085 9.08502C7.085 6.32502 9.325 4.08502 12.085 4.08502C14.845 4.08502 17.085 6.32502 17.085 9.08502C17.085 11.845 14.845 14.085 12.085 14.085C9.325 14.085 7.085 11.845 7.085 9.08502Z" fill="black"/>
</svg>
