<svg width="24" height="24" viewBox="0 0 24 24" fill="none" xmlns="http://www.w3.org/2000/svg">
<path d="M4.415 10.915C5.24343 10.915 5.915 10.2434 5.915 9.41502C5.915 8.58659 5.24343 7.91502 4.415 7.91502C3.58657 7.91502 2.915 8.58659 2.915 9.41502C2.915 10.2434 3.58657 10.915 4.415 10.915Z" fill="black"/>
<path d="M22.085 9.08502C22.085 5.21502 18.955 2.08502 15.085 2.08502C11.215 2.08502 8.085 5.21502 8.085 9.08502C8.085 12.555 10.605 15.425 13.915 15.975V19.915H5.915V16.915H6.915V12.915C6.915 12.365 6.465 11.915 5.915 11.915H2.915C2.365 11.915 1.915 12.365 1.915 12.915V16.915H2.915V21.915H18.915V19.915H15.915V16.035C19.385 15.625 22.085 12.675 22.085 9.08502ZM15.085 14.085C12.325 14.085 10.085 11.845 10.085 9.08502C10.085 6.32502 12.325 4.08502 15.085 4.08502C17.845 4.08502 20.085 6.32502 20.085 9.08502C20.085 11.845 17.845 14.085 15.085 14.085Z" fill="black"/>
</svg>
