<svg width="24" height="24" viewBox="0 0 24 24" fill="none" xmlns="http://www.w3.org/2000/svg">
<path d="M17.715 13.61L18.305 11.25L19.065 14.29H20.545L22.045 8.28998H20.545L19.805 11.29L19.065 8.28998H17.545L16.805 11.29L16.065 8.28998H14.565L15.285 11.19L17.715 13.61Z" fill="black"/>
<path d="M1.95499 3.50998L6.73499 8.28998H3.56499V14.29H5.06499V12.29H6.16499L7.06499 14.29H8.56499L7.66499 12.19C8.16499 11.89 8.56499 11.39 8.56499 10.79V10.12L9.99499 11.55L9.31499 14.29H10.815L11.195 12.79H11.235L20.345 21.9L21.755 20.49L3.37499 2.09998L1.95499 3.50998ZM7.06499 10.79H5.06499V9.78998H7.06499V10.79Z" fill="black"/>
</svg>
