<svg width="24" height="24" viewBox="0 0 24 24" fill="none" xmlns="http://www.w3.org/2000/svg">
<path d="M7.91 7.03L1.43 13.52L7.92 20L14.41 13.52L7.91 7.03ZM4.26 13.52L7.92 9.86L11.57 13.52L7.91 17.18L4.26 13.52ZM19.93 7.26C18.18 5.5 15.87 4.62 13.57 4.62V1.38L9.33 5.62L13.57 9.86V6.62C15.36 6.62 17.15 7.3 18.52 8.67C21.25 11.4 21.25 15.84 18.52 18.57C17.15 19.94 15.36 20.62 13.57 20.62C12.6 20.62 11.63 20.41 10.73 20.01L9.24 21.5C10.59 22.24 12.08 22.62 13.57 22.62C15.87 22.62 18.18 21.74 19.93 19.98C23.45 16.47 23.45 10.77 19.93 7.26Z" fill="black"/>
</svg>
