<svg width="24" height="24" viewBox="0 0 24 24" fill="none" xmlns="http://www.w3.org/2000/svg">
<path d="M10.96 12.98C10.8 12.74 10.6 12.52 10.34 12.33C10.09 12.14 9.78001 11.98 9.41001 11.85C9.71001 11.71 9.98001 11.55 10.21 11.35C10.44 11.15 10.63 10.94 10.78 10.71C10.93 10.48 11.05 10.25 11.12 9.99997C11.2 9.75997 11.23 9.50997 11.23 9.26997C11.23 8.71997 11.14 8.22997 10.95 7.80997C10.77 7.38997 10.51 7.03997 10.17 6.74997C9.84001 6.46997 9.44001 6.24997 8.97001 6.10997C8.52001 5.97997 8.00001 5.90997 7.44001 5.90997C6.89001 5.90997 6.38001 5.98997 5.92001 6.14997C5.45001 6.31997 5.05001 6.54997 4.72001 6.83997C4.39001 7.12997 4.12001 7.46997 3.94001 7.86997C3.74001 8.25997 3.65001 8.69997 3.65001 9.15997H5.63001C5.63001 8.89997 5.68001 8.66997 5.77001 8.46997C5.86001 8.26997 5.99001 8.08997 6.15001 7.94997C6.32001 7.80997 6.51001 7.69997 6.73001 7.61997C6.95001 7.53997 7.19001 7.49997 7.46001 7.49997C8.07001 7.49997 8.52001 7.65997 8.82001 7.96997C9.12001 8.27997 9.26001 8.71997 9.26001 9.28997C9.26001 9.55997 9.22001 9.80997 9.14001 10.03C9.06001 10.25 8.93001 10.44 8.76001 10.6C8.59001 10.76 8.38001 10.88 8.13001 10.97C7.88001 11.06 7.58001 11.1 7.24001 11.1H6.07001V12.67H7.25001C7.59001 12.67 7.89001 12.71 8.16001 12.78C8.43001 12.86 8.66001 12.97 8.85001 13.13C9.04001 13.29 9.19001 13.49 9.29001 13.74C9.39001 13.98 9.45001 14.28 9.45001 14.61C9.45001 15.23 9.27001 15.7 8.92001 16.03C8.57001 16.36 8.08001 16.52 7.47001 16.52C7.18001 16.52 6.91001 16.48 6.67001 16.39C6.43001 16.31 6.23001 16.19 6.06001 16.03C5.89001 15.87 5.76001 15.69 5.67001 15.47C5.58001 15.25 5.53001 15.01 5.53001 14.75H3.54001C3.54001 15.3 3.65001 15.78 3.86001 16.2C4.07001 16.62 4.36001 16.97 4.72001 17.25C5.08001 17.53 5.49001 17.74 5.96001 17.88C6.43001 18.02 6.92001 18.09 7.44001 18.09C8.01001 18.09 8.53001 18.01 9.02001 17.86C9.51001 17.71 9.93001 17.48 10.28 17.18C10.64 16.88 10.92 16.52 11.12 16.08C11.32 15.65 11.42 15.15 11.42 14.6C11.42 14.31 11.38 14.02 11.31 13.74C11.23 13.49 11.12 13.23 10.96 12.98ZM20.22 14.38C20.08 14.1 19.87 13.85 19.59 13.64C19.31 13.43 18.98 13.25 18.58 13.11C18.18 12.97 17.73 12.84 17.23 12.73C16.88 12.66 16.59 12.58 16.36 12.5C16.13 12.42 15.95 12.34 15.81 12.25C15.67 12.16 15.58 12.06 15.53 11.95C15.48 11.84 15.45 11.71 15.45 11.56C15.45 11.41 15.48 11.28 15.54 11.15C15.6 11.02 15.69 10.9 15.81 10.81C15.93 10.71 16.08 10.63 16.26 10.57C16.44 10.51 16.66 10.48 16.9 10.48C17.15 10.48 17.37 10.52 17.56 10.59C17.75 10.66 17.91 10.76 18.04 10.88C18.17 11 18.26 11.14 18.33 11.3C18.39 11.46 18.43 11.62 18.43 11.79H20.38C20.38 11.4 20.3 11.04 20.14 10.7C19.98 10.36 19.75 10.07 19.45 9.81997C19.15 9.56997 18.79 9.37997 18.36 9.22997C17.93 9.07997 17.44 9.00997 16.9 9.00997C16.39 9.00997 15.92 9.07997 15.51 9.21997C15.1 9.35997 14.74 9.54997 14.45 9.78997C14.16 10.03 13.94 10.31 13.78 10.63C13.62 10.95 13.55 11.28 13.55 11.64C13.55 12 13.63 12.32 13.78 12.6C13.93 12.88 14.15 13.12 14.42 13.33C14.69 13.54 15.02 13.71 15.4 13.86C15.78 14 16.21 14.12 16.67 14.22C17.06 14.3 17.38 14.39 17.62 14.48C17.86 14.57 18.05 14.67 18.19 14.77C18.32 14.87 18.41 14.99 18.46 15.11C18.51 15.23 18.53 15.36 18.53 15.5C18.53 15.82 18.4 16.07 18.13 16.27C17.86 16.47 17.47 16.56 16.96 16.56C16.74 16.56 16.53 16.54 16.32 16.48C16.11 16.43 15.92 16.35 15.76 16.24C15.59 16.13 15.46 15.98 15.35 15.8C15.24 15.62 15.18 15.39 15.17 15.13H13.28C13.28 15.49 13.36 15.84 13.52 16.18C13.68 16.52 13.91 16.83 14.22 17.11C14.53 17.38 14.91 17.6 15.37 17.77C15.83 17.94 16.35 18.02 16.95 18.02C17.48 18.02 17.96 17.96 18.39 17.83C18.82 17.7 19.19 17.52 19.5 17.29C19.81 17.06 20.04 16.78 20.21 16.46C20.38 16.14 20.46 15.79 20.46 15.4C20.44 15 20.37 14.66 20.22 14.38Z" fill="black"/>
</svg>
