<svg width="24" height="24" viewBox="0 0 24 24" fill="none" xmlns="http://www.w3.org/2000/svg">
<path d="M15.71 1.19501H9.71001V3.19501H15.71V1.19501Z" fill="black"/>
<path d="M12.71 6.19501C16.58 6.19501 19.71 9.32501 19.71 13.195C19.71 14.135 19.52 15.025 19.19 15.845L20.69 17.345C21.34 16.105 21.71 14.695 21.71 13.195C21.71 11.075 20.97 9.12501 19.74 7.58501L21.16 6.16501C20.73 5.65501 20.26 5.17501 19.75 4.75501L18.33 6.17501C16.78 4.93501 14.83 4.19501 12.71 4.19501C11.21 4.19501 9.80001 4.56501 8.56001 5.21501L10.06 6.71501C10.88 6.38501 11.77 6.19501 12.71 6.19501Z" fill="black"/>
<path d="M11.71 8.36501L13.71 10.365V8.19501H11.71V8.36501Z" fill="black"/>
<path d="M3.52001 3.00501L2.10001 4.41501L5.50001 7.81501C4.38001 9.31501 3.71001 11.175 3.71001 13.195C3.71001 18.165 7.73001 22.195 12.71 22.195C14.73 22.195 16.59 21.525 18.09 20.405L20.49 22.805L21.9 21.395L3.52001 3.00501ZM12.71 20.195C8.84001 20.195 5.71001 17.065 5.71001 13.195C5.71001 11.725 6.16001 10.365 6.93001 9.24501L16.66 18.975C15.54 19.745 14.18 20.195 12.71 20.195Z" fill="black"/>
</svg>
