<svg width="24" height="24" viewBox="0 0 24 24" fill="none" xmlns="http://www.w3.org/2000/svg">
<path d="M7.10001 7L3.90001 16H5.80001L6.50001 14H9.70001L10.4 16H12.3L9.10001 7H7.10001ZM6.95001 12.65L8.10001 9L9.25001 12.65H6.95001ZM22.1 7L20.9 13.29L19.4 7H17.8L16.31 13.29L15.1 7H14.34L14.33 7.01C12.86 5.18 10.63 4 8.10001 4C3.68001 4 0.100006 7.58 0.100006 12C0.100006 16.42 3.68001 20 8.10001 20C11.06 20 13.65 18.39 15.03 16C15.06 15.94 15.08 15.88 15.11 15.82C15.16 15.74 15.2 15.65 15.25 15.57L15.35 16H17.1L18.6 9.9L20.1 16H21.85L23.9 7H22.1ZM13.47 14.67C12.48 16.64 10.45 18 8.10001 18C4.79001 18 2.10001 15.31 2.10001 12C2.10001 8.69 4.79001 6 8.10001 6C11.41 6 14.1 8.69 14.1 12C14.1 12.96 13.87 13.86 13.47 14.67Z" fill="black"/>
</svg>
