<svg width="24" height="24" viewBox="0 0 24 24" fill="none" xmlns="http://www.w3.org/2000/svg">
<path d="M3.55 18.565L4.96 19.975L6.75 18.175L5.34 16.765L3.55 18.565ZM11 19.475H13V22.475H11V19.475ZM1 10.475H4V12.475H1V10.475ZM13 3.52502V7.48502L14 8.06502C15.24 8.78502 16 10.105 16 11.525C16 13.735 14.21 15.525 12 15.525C9.79 15.525 8 13.735 8 11.525C8 10.105 8.77 8.78502 10 8.06502L11 7.48502V3.52502H13ZM15 1.52502H9V6.33502C7.21 7.37502 6 9.30502 6 11.525C6 14.835 8.69 17.525 12 17.525C15.31 17.525 18 14.835 18 11.525C18 9.30502 16.79 7.37502 15 6.33502V1.52502ZM20 10.475H23V12.475H20V10.475ZM17.24 18.185L19.03 19.985L20.44 18.575L18.64 16.785L17.24 18.185Z" fill="black"/>
</svg>
