<svg width="24" height="24" viewBox="0 0 24 24" fill="none" xmlns="http://www.w3.org/2000/svg">
<path d="M18.345 4.25999C16.865 3.04999 15.035 2.24999 13.025 2.04999V4.06999C14.485 4.24999 15.815 4.82999 16.925 5.68999L18.345 4.25999ZM19.955 11H21.975C21.775 8.98999 20.975 7.15999 19.765 5.67999L18.335 7.09999C19.195 8.20999 19.775 9.53999 19.955 11ZM18.335 16.9L19.765 18.33C20.975 16.85 21.775 15.01 21.975 13.01H19.955C19.775 14.46 19.195 15.79 18.335 16.9ZM13.025 19.93V21.95C15.035 21.75 16.865 20.95 18.345 19.74L16.915 18.31C15.815 19.17 14.485 19.75 13.025 19.93ZM15.615 10.59L13.025 13.17V6.99999H11.025V13.17L8.43499 10.58L7.02499 12L12.025 17L17.025 12L15.615 10.59ZM11.025 19.93V21.95C5.97499 21.45 2.02499 17.19 2.02499 12C2.02499 6.80999 5.97499 2.54999 11.025 2.04999V4.06999C7.07499 4.55999 4.02499 7.91999 4.02499 12C4.02499 16.08 7.07499 19.44 11.025 19.93Z" fill="black"/>
</svg>
