<svg width="24" height="24" viewBox="0 0 24 24" fill="none" xmlns="http://www.w3.org/2000/svg">
<path d="M20.655 5.29502H12.655L10.655 3.29502H7.825L11.825 7.29502H20.655V16.465L22.415 18.225C22.565 17.945 22.655 17.635 22.655 17.295V7.29502C22.655 6.19502 21.755 5.29502 20.655 5.29502Z" fill="black"/>
<path d="M2.755 1.39502L1.345 2.80502L2.905 4.36502C2.755 4.64502 2.665 4.95502 2.665 5.29502L2.655 17.295C2.655 18.395 3.555 19.295 4.655 19.295H17.825L21.135 22.605L22.545 21.195L2.755 1.39502ZM4.655 17.295V6.12502L15.825 17.295H4.655Z" fill="black"/>
</svg>
