<svg width="24" height="24" viewBox="0 0 24 24" fill="none" xmlns="http://www.w3.org/2000/svg">
<g clip-path="url(#clip0_5_32080)">
<path d="M16 7.00002H15L14 6.00002H10L9 7.00002H8C6.9 7.00002 6 7.90002 6 9.00002V15C6 16.1 6.9 17 8 17H16C17.1 17 18 16.1 18 15V9.00002C18 7.90002 17.1 7.00002 16 7.00002ZM16 15H8V9.00002H9.83L10.83 8.00002H13.17L14.17 9.00002H16V15Z" fill="black"/>
<path d="M12 14C13.1046 14 14 13.1046 14 12C14 10.8955 13.1046 10 12 10C10.8954 10 10 10.8955 10 12C10 13.1046 10.8954 14 12 14Z" fill="black"/>
<path d="M8.57 0.520024L13.05 5.00002L14.46 3.59002L12.92 2.05002C17.7 2.46002 21.53 6.24002 22 11H24C23.36 3.30002 15.79 -1.66998 8.57 0.520024Z" fill="black"/>
<path d="M9.54 20.41L11.08 21.95C6.3 21.54 2.47 17.76 2 13H0C0.64 20.7 8.21 25.67 15.43 23.48L10.95 19L9.54 20.41Z" fill="black"/>
</g>
<defs>
<clipPath id="clip0_5_32080">
<rect width="24" height="24" fill="white"/>
</clipPath>
</defs>
</svg>
