<svg width="24" height="24" viewBox="0 0 24 24" fill="none" xmlns="http://www.w3.org/2000/svg">
<path d="M12.7875 21.5025L2.9975 11.7125V13.7125C2.9975 14.2425 3.2075 14.7525 3.5875 15.1225L11.3775 22.9125C12.1575 23.6925 13.4275 23.6925 14.2075 22.9125L20.4175 16.7025C21.1975 15.9225 21.1975 14.6525 20.4175 13.8725L12.7875 21.5025Z" fill="black"/>
<path d="M11.3775 17.9125C11.7675 18.3025 12.2775 18.5025 12.7875 18.5025C13.2975 18.5025 13.8075 18.3025 14.1975 17.9125L20.4075 11.7025C21.1875 10.9225 21.1875 9.6525 20.4075 8.8725L12.6175 1.0825C12.2475 0.712502 11.7375 0.502502 11.2075 0.502502H4.9975C3.8975 0.502502 2.9975 1.4025 2.9975 2.5025V8.7125C2.9975 9.2425 3.2075 9.7525 3.5875 10.1225L11.3775 17.9125ZM4.9975 2.5025H11.2075L18.9975 10.2925L12.7875 16.5025L4.9975 8.7125V2.5025Z" fill="black"/>
<path d="M7.2475 6.0025C7.93785 6.0025 8.4975 5.44286 8.4975 4.7525C8.4975 4.06215 7.93785 3.5025 7.2475 3.5025C6.55714 3.5025 5.9975 4.06215 5.9975 4.7525C5.9975 5.44286 6.55714 6.0025 7.2475 6.0025Z" fill="black"/>
</svg>
