<svg width="24" height="24" viewBox="0 0 24 24" fill="none" xmlns="http://www.w3.org/2000/svg">
<path d="M21.7137 13.1175L19.1337 15.6975L17.3237 13.8875L19.5037 11.6975L12.3037 4.49751L10.1137 6.68751L8.30375 4.86751L10.8837 2.28751C11.6637 1.50751 12.9337 1.50751 13.7137 2.28751L21.7137 10.2875C22.5037 11.0675 22.5037 12.3275 21.7137 13.1175ZM21.4937 20.8875L20.0837 22.2975L16.3037 18.5275L13.7237 21.1075C12.9437 21.8875 11.6737 21.8875 10.8937 21.1075L2.89375 13.1075C2.11375 12.3275 2.11375 11.0575 2.89375 10.2775L5.47375 7.69751L1.69375 3.91751L3.10375 2.50751L21.4937 20.8875ZM14.4937 16.7175L13.1037 15.3275L12.3037 16.1275L7.88375 11.6975L8.68375 10.8975L7.28375 9.50751L5.10375 11.6975L12.3037 18.8975L14.4937 16.7175ZM16.7237 11.6975L12.3037 7.27751L11.5037 8.07751L15.9237 12.4975L16.7237 11.6975Z" fill="black"/>
</svg>
