<svg width="24" height="24" viewBox="0 0 24 24" fill="none" xmlns="http://www.w3.org/2000/svg">
<path d="M12 7.465C8.69 7.465 6 10.155 6 13.465C6 15.125 6.68 16.615 7.76 17.705L9.18 16.285C8.45 15.565 8 14.575 8 13.465C8 11.255 9.79 9.465 12 9.465C14.21 9.465 16 11.255 16 13.465C16 14.575 15.55 15.565 14.82 16.285L16.24 17.705C17.32 16.615 18 15.125 18 13.465C18 10.155 15.31 7.465 12 7.465ZM12 3.465C6.48 3.465 2 7.945 2 13.465C2 16.225 3.12 18.725 4.93 20.535L6.35 19.115C4.9 17.675 4 15.675 4 13.465C4 9.045 7.58 5.465 12 5.465C14.53 5.465 16.78 6.635 18.24 8.465H20.66C18.93 5.475 15.7 3.465 12 3.465ZM12 11.465C10.9 11.465 10 12.365 10 13.465C10 14.015 10.23 14.515 10.59 14.875C10.95 15.235 11.45 15.465 12 15.465C12.55 15.465 13.05 15.235 13.41 14.875C13.77 14.515 14 14.015 14 13.465C14 12.365 13.1 11.465 12 11.465ZM20 10.465H22V16.465H20V10.465ZM20 18.465H22V20.465H20V18.465Z" fill="black"/>
</svg>
