<svg width="24" height="24" viewBox="0 0 24 24" fill="none" xmlns="http://www.w3.org/2000/svg">
<path d="M3.11501 2.105L1.69501 3.515L4.38501 6.205C3.08501 7.895 2.30501 10.005 2.30501 12.295C2.30501 15.055 3.42501 17.555 5.23501 19.365L6.65501 17.945C5.20501 16.505 4.30501 14.505 4.30501 12.295C4.30501 10.545 4.87501 8.945 5.81501 7.635L7.24501 9.065C6.65501 9.995 6.30501 11.105 6.30501 12.295C6.30501 13.955 6.98501 15.445 8.06501 16.535L9.48501 15.115C8.75501 14.395 8.30501 13.405 8.30501 12.295C8.30501 11.665 8.45501 11.065 8.71501 10.535L10.325 12.145C10.325 12.195 10.305 12.245 10.305 12.295C10.305 12.845 10.535 13.345 10.895 13.705C11.255 14.065 11.755 14.295 12.305 14.295C12.355 14.295 12.405 14.285 12.465 14.275L20.085 21.895L21.495 20.485L3.11501 2.105ZM18.005 14.165C18.195 13.575 18.305 12.945 18.305 12.295C18.305 8.985 15.615 6.295 12.305 6.295C11.655 6.295 11.025 6.395 10.435 6.595L12.145 8.305C12.195 8.295 12.255 8.295 12.305 8.295C14.515 8.295 16.305 10.085 16.305 12.295C16.305 12.345 16.305 12.405 16.295 12.455L18.005 14.165ZM12.305 4.295C16.725 4.295 20.305 7.875 20.305 12.295C20.305 13.515 20.035 14.665 19.535 15.695L21.025 17.185C21.835 15.745 22.305 14.075 22.305 12.295C22.305 6.775 17.825 2.295 12.305 2.295C10.525 2.295 8.86501 2.755 7.41501 3.575L8.89501 5.055C9.93501 4.565 11.085 4.295 12.305 4.295Z" fill="black"/>
</svg>
