<svg width="24" height="24" viewBox="0 0 24 24" fill="none" xmlns="http://www.w3.org/2000/svg">
<path d="M15.9207 4.4993C17.7107 4.4993 19.3407 5.2293 20.5107 6.4093L21.5707 5.3493C20.1307 3.8993 18.1307 2.9993 15.9207 2.9993C13.7107 2.9993 11.7107 3.8993 10.2607 5.3393L11.3207 6.3993C12.5107 5.2293 14.1307 4.4993 15.9207 4.4993Z" fill="black"/>
<path d="M15.9207 5.9993C14.5407 5.9993 13.2907 6.5593 12.3807 7.4593L13.4407 8.5193C14.0707 7.8893 14.9507 7.4893 15.9107 7.4893C16.8707 7.4893 17.7507 7.8793 18.3807 8.5193L19.4407 7.4593C18.5507 6.5593 17.3007 5.9993 15.9207 5.9993Z" fill="black"/>
<path d="M15.9207 8.9993C15.3707 8.9993 14.8707 9.2193 14.5107 9.5893L15.9207 10.9993L17.3307 9.5893C16.9707 9.2193 16.4707 8.9993 15.9207 8.9993Z" fill="black"/>
<path d="M19.6307 14.8693L15.9607 14.1393C15.4607 14.0393 15.1307 14.3393 15.0607 14.4093L12.5407 16.9093C10.0407 15.4793 7.97068 13.4093 6.54068 10.9093L9.04068 8.3893C9.27068 8.1493 9.37068 7.8193 9.31068 7.4893L8.56068 3.7993C8.47068 3.3393 8.06068 2.9993 7.58068 2.9993H3.43068C2.87068 2.9993 2.40068 3.4693 2.43068 4.0293C2.60068 6.9193 3.48068 9.6293 4.86068 11.9993C6.44068 14.7293 8.71068 16.9893 11.4307 18.5693C13.8007 19.9393 16.5107 20.8293 19.4007 20.9993C19.9507 21.0293 20.4307 20.5693 20.4307 19.9993V15.8493C20.4307 15.3693 20.0907 14.9593 19.6307 14.8693ZM4.53068 4.9993H6.76068L7.23068 7.3493L5.60068 8.9993C5.06068 7.6993 4.70068 6.3693 4.53068 4.9993ZM18.4307 18.8993C17.0607 18.7193 15.7307 18.3693 14.4307 17.8293L16.0807 16.1993L18.4307 16.6693V18.8993Z" fill="black"/>
</svg>
