<svg width="24" height="24" viewBox="0 0 24 24" fill="none" xmlns="http://www.w3.org/2000/svg">
<path d="M21.6 18.2016L13 11.7516V10.8416C14.65 10.3516 15.8 8.67156 15.43 6.79156C15.17 5.48156 14.13 4.39156 12.82 4.09156C10.54 3.57156 8.50002 5.30156 8.50002 7.50156H10.5C10.5 6.67156 11.17 6.00156 12 6.00156C12.83 6.00156 13.5 6.67156 13.5 7.50156C13.5 8.34156 12.81 9.02156 11.97 9.00156C11.43 8.99156 11 9.45156 11 9.99156V11.7516L2.40002 18.2016C1.63002 18.7816 2.04002 20.0016 3.00002 20.0016H21C21.96 20.0016 22.37 18.7816 21.6 18.2016ZM6.00002 18.0016L12 13.5016L18 18.0016H6.00002Z" fill="black"/>
</svg>
