<svg width="24" height="24" viewBox="0 0 24 24" fill="none" xmlns="http://www.w3.org/2000/svg">
<path d="M3.51998 3.01001L2.09998 4.42001L7.70998 10.03V14.33L5.10998 12.85C4.93998 12.76 4.76998 12.71 4.56998 12.71C4.30998 12.71 4.06998 12.8 3.86998 12.97L2.70998 14.08L9.50998 21.26C10.08 21.86 10.86 22.2 11.69 22.2H17.71C18.33 22.2 18.89 22.01 19.37 21.68L20.49 22.8L21.9 21.39L3.51998 3.01001ZM17.71 20.2H11.71C11.32 20.2 11.07 19.97 10.96 19.84L7.57998 16.2H9.70998V12.03L17.85 20.17C17.8 20.18 17.76 20.2 17.71 20.2ZM14.54 11.2H14.71V3.45001C14.71 2.76001 15.27 2.20001 15.96 2.20001C16.65 2.20001 17.21 2.76001 17.21 3.45001V11.2H18.21V5.45001C18.21 4.76001 18.77 4.20001 19.46 4.20001C20.15 4.20001 20.71 4.76001 20.71 5.45001V17.37L18.71 15.37V13.2H16.54L14.54 11.2ZM13.71 10.37V2.45001C13.71 1.76001 13.15 1.20001 12.46 1.20001C11.77 1.20001 11.21 1.76001 11.21 2.45001V7.87001L13.71 10.37ZM10.21 6.87001V4.45001C10.21 3.76001 9.64998 3.20001 8.95998 3.20001C8.28998 3.20001 7.75998 3.73001 7.71998 4.38001L10.21 6.87001Z" fill="black"/>
</svg>
