<svg width="24" height="24" viewBox="0 0 24 24" fill="none" xmlns="http://www.w3.org/2000/svg">
<path d="M18.51 15.375L17.1 13.965L21.58 9.48501L23 10.895L18.51 15.375ZM14.98 11.845L18.05 8.77501L13.8 4.51501L10.72 7.58501L9.3 6.16501L13.8 1.69501L20.88 8.77501L16.4 13.255L14.98 11.845ZM21.18 20.895L19.77 22.305L13.83 16.365L10.5 19.695H1V17.065C1 16.225 1.52 15.495 2.3 15.185C2.88 14.955 3.58 14.625 4.27 14.165L5.65 15.545C5.74 15.645 5.87 15.695 6 15.695C6.13 15.695 6.26 15.645 6.36 15.545C6.56 15.345 6.56 15.035 6.36 14.835L5.08 13.555C5.35 13.315 5.61 13.045 5.85 12.755L7.12 14.025C7.21 14.125 7.35 14.175 7.47 14.175C7.59 14.175 7.72 14.125 7.82 14.025C8.02 13.825 8.02 13.515 7.82 13.315L6.42 11.915C6.61 11.575 6.76 11.195 6.87 10.795L8.58 12.515C8.67 12.615 8.81 12.665 8.93 12.665C9.05 12.665 9.18 12.615 9.28 12.515C9.47 12.315 9.47 12.015 9.29 11.815L1.39 3.91501L2.81 2.50501L21.18 20.895ZM12.42 14.955L10.75 13.275L7.42 16.595C6.64 17.375 5.37 17.375 4.59 16.585L4.4 16.415L3.93 16.655C3.64 16.795 3.34 16.925 3.04 17.045L3.03 17.695H9.67L12.42 14.955Z" fill="black"/>
</svg>
