<svg width="24" height="24" viewBox="0 0 24 24" fill="none" xmlns="http://www.w3.org/2000/svg">
<path d="M7.69498 3.84501C7.70498 3.84501 7.70498 3.83501 7.71498 3.83501V1.69501H10.715V3.69501H14.715V1.69501H17.715V3.83501C19.435 4.28501 20.715 5.83501 20.715 7.69501V16.865L18.715 14.865V7.69501C18.715 6.59501 17.815 5.69501 16.715 5.69501H9.54498L7.69498 3.84501ZM15.545 11.695L17.215 13.365V11.695H15.545ZM20.495 22.305L19.645 21.455C19.365 21.605 19.055 21.695 18.715 21.695H6.71498C5.61498 21.695 4.71498 20.795 4.71498 19.695V7.69501C4.71498 7.33501 4.77498 7.00501 4.86498 6.67501L2.10498 3.91501L3.51498 2.50501L21.895 20.885L20.495 22.305ZM17.885 19.695L11.885 13.695H8.21498V11.695H9.88498L6.71498 8.52501V19.695H17.885Z" fill="black"/>
</svg>
