<svg width="24" height="24" viewBox="0 0 24 24" fill="none" xmlns="http://www.w3.org/2000/svg">
<g clip-path="url(#clip0_5_31145)">
<path d="M1.15997 20.845H16.17V21.825C16.17 22.385 15.72 22.835 15.16 22.835H2.16997C1.60997 22.835 1.15997 22.385 1.15997 21.825V20.845ZM20.65 23.155L16.16 18.675V18.845H1.15997V16.845H14.33L12.33 14.845H1.15997C1.15997 11.605 3.61997 9.67497 6.53997 9.05497L0.839966 3.35497L2.25997 1.94497L22.06 21.745L20.65 23.155ZM10.33 12.845L8.32997 10.845C6.90997 10.905 4.80997 11.405 3.77997 12.845H10.33ZM23.16 4.84497H18.16V0.844971H16.16V4.84497H11.16L11.39 6.84497H20.95L19.95 16.815L21.78 18.645L23.16 4.84497Z" fill="black"/>
</g>
<defs>
<clipPath id="clip0_5_31145">
<rect width="24" height="24" fill="white"/>
</clipPath>
</defs>
</svg>
