<svg width="24" height="24" viewBox="0 0 24 24" fill="none" xmlns="http://www.w3.org/2000/svg">
<path d="M21.055 4.94003H22.655L19.655 10.34V6.34003H18.655V1.34003H22.655L21.055 4.94003ZM16.655 10.74V12.51L18.655 14.51V10.34C18.655 9.46003 17.935 8.74003 17.055 8.74003H14.515L13.235 7.34003H11.485L14.885 10.74H16.655ZM2.75497 1.44003L1.34497 2.85003L7.00497 8.51003L6.79497 8.74003H4.25497C3.37497 8.74003 2.65497 9.46003 2.65497 10.34V19.74C2.65497 20.62 3.37497 21.34 4.25497 21.34H17.055C17.805 21.34 18.435 20.82 18.605 20.12L21.145 22.66L22.555 21.25L2.75497 1.44003ZM12.155 14.84C12.155 15.67 11.485 16.34 10.655 16.34C9.82497 16.34 9.15497 15.67 9.15497 14.84C9.15497 14.01 9.82497 13.34 10.655 13.34C11.485 13.34 12.155 14.01 12.155 14.84ZM16.615 19.34H4.65497V10.74H7.67497L8.26497 10.09L8.41497 9.93003L9.91497 11.43C8.33497 11.77 7.15497 13.16 7.15497 14.84C7.15497 16.77 8.72497 18.34 10.655 18.34C12.335 18.34 13.725 17.16 14.075 15.58L16.625 18.13L16.615 19.34Z" fill="black"/>
</svg>
