<svg width="24" height="24" viewBox="0 0 24 24" fill="none" xmlns="http://www.w3.org/2000/svg">
<path d="M9.55997 5.36502L8.13997 3.95502L9.65997 2.29502H15.66L17.49 4.29502H20.66C21.76 4.29502 22.66 5.19502 22.66 6.29502V18.295C22.66 18.345 22.65 18.395 22.64 18.455L20.66 16.465V6.29502H16.61L14.78 4.29502H10.54L9.55997 5.36502ZM21.15 22.605L18.83 20.295H4.65997C3.55997 20.295 2.65997 19.395 2.65997 18.295V6.29502C2.65997 5.70502 2.92997 5.17502 3.33997 4.80502L1.33997 2.80502L2.75997 1.39502L22.56 21.195L21.15 22.605ZM9.84997 11.315C9.73997 11.625 9.65997 11.945 9.65997 12.295C9.65997 13.955 11 15.295 12.66 15.295C13.01 15.295 13.33 15.215 13.64 15.105L9.84997 11.315ZM16.83 18.295L15.15 16.615C14.42 17.045 13.57 17.295 12.66 17.295C9.89997 17.295 7.65997 15.055 7.65997 12.295C7.65997 11.385 7.90997 10.535 8.33997 9.80502L4.82997 6.29502H4.65997V18.295H16.83ZM15.47 11.275L17.54 13.345C17.62 13.005 17.66 12.655 17.66 12.295C17.66 9.53502 15.42 7.29502 12.66 7.29502C12.3 7.29502 11.95 7.33502 11.6 7.41502L13.67 9.48502C14.51 9.78502 15.17 10.445 15.47 11.275Z" fill="black"/>
</svg>
