<svg width="24" height="24" viewBox="0 0 24 24" fill="none" xmlns="http://www.w3.org/2000/svg">
<path d="M8.30495 19.29C8.30495 20.39 7.40495 21.29 6.30495 21.29C5.20495 21.29 4.30495 20.39 4.30495 19.29C4.30495 18.19 5.20495 17.29 6.30495 17.29C7.40495 17.29 8.30495 18.19 8.30495 19.29ZM15.3049 7.94998V11.46L17.3049 13.46V5.55998C17.8849 4.87998 18.2749 4.28998 18.9549 4.28998C19.7249 4.28998 20.3049 4.94998 20.3049 5.76998V6.28998H22.3049V5.76998C22.3049 3.84998 20.8249 2.28998 18.9549 2.28998C17.2949 2.28998 16.4149 3.55998 15.7749 4.31998L12.2749 8.42998L13.6949 9.84998L15.3049 7.94998ZM20.0849 21.9L18.1749 19.99C17.8849 20.75 17.1649 21.29 16.3049 21.29C15.2049 21.29 14.3049 20.39 14.3049 19.29C14.3049 18.43 14.8449 17.71 15.6049 17.42L14.4749 16.29H7.73495C6.88495 16.29 6.42495 15.29 6.97495 14.64L9.66495 11.48L1.69495 3.50998L3.10495 2.09998L21.4949 20.49L20.0849 21.9ZM12.4749 14.29L11.0849 12.9L9.90495 14.29H12.4749ZM10.3049 4.28998C10.5949 4.28998 10.8849 4.30998 11.1649 4.33998L9.79495 5.95998L11.2149 7.37998L14.6049 3.38998C13.3349 2.68998 11.8649 2.28998 10.3049 2.28998C9.07495 2.28998 7.90495 2.53998 6.83495 2.98998L8.40495 4.55998C9.01495 4.38998 9.65495 4.28998 10.3049 4.28998Z" fill="black"/>
</svg>
