<svg width="24" height="24" viewBox="0 0 24 24" fill="none" xmlns="http://www.w3.org/2000/svg">
<path d="M10 8.0001L6.75 11.2501C7.06 11.3701 7.31 11.5201 7.52 11.6401C7.89 11.8701 8.11 12.0001 8.67 12.0001C9.23 12.0001 9.45 11.8701 9.82 11.6401C10.28 11.3701 10.9 11.0001 12.01 11.0001C13.12 11.0001 13.74 11.3701 14.19 11.6401C14.56 11.8601 14.79 12.0001 15.34 12.0001C15.89 12.0001 16.12 11.8701 16.49 11.6401C16.61 11.5701 16.75 11.4901 16.9 11.4101L10.48 5.0001C8.93 3.4501 7.5 2.9901 5 3.0001V5.5001C6.82 5.4901 7.89 5.8901 9 7.0001L10 8.0001ZM5.35 15.5001C5.9 15.5001 6.13 15.6401 6.5 15.8601C6.95 16.1301 7.57 16.5001 8.68 16.5001C9.79 16.5001 10.41 16.1301 10.86 15.8601C11.23 15.6301 11.45 15.5001 12.01 15.5001C12.56 15.5001 12.79 15.6401 13.16 15.8601C13.61 16.1301 14.23 16.5001 15.34 16.5001C16.45 16.5001 17.07 16.1301 17.52 15.8601C17.89 15.6301 18.11 15.5001 18.67 15.5001C19.22 15.5001 19.45 15.6401 19.82 15.8601C20.27 16.1301 20.88 16.4901 21.98 16.5001V14.5001C21.43 14.5001 21.2 14.3601 20.83 14.1401C20.38 13.8701 19.76 13.5001 18.65 13.5001C17.54 13.5001 16.92 13.8701 16.47 14.1401C16.1 14.3701 15.87 14.5001 15.32 14.5001C14.77 14.5001 14.54 14.3601 14.17 14.1401C13.72 13.8701 13.1 13.5001 11.99 13.5001C10.88 13.5001 10.26 13.8701 9.81 14.1401C9.44 14.3701 9.22 14.5001 8.66 14.5001C8.11 14.5001 7.88 14.3601 7.51 14.1401C7.06 13.8701 6.44 13.5001 5.33 13.5001C4.22 13.5001 3.6 13.8701 3.15 14.1401C2.78 14.3701 2.56 14.5001 2 14.5001V16.5001C3.11 16.5001 3.73 16.1301 4.2 15.8601C4.57 15.6301 4.8 15.5001 5.35 15.5001ZM18.67 18.0001C17.56 18.0001 16.94 18.3701 16.49 18.6401C16.12 18.8701 15.89 19.0001 15.34 19.0001C14.79 19.0001 14.56 18.8601 14.19 18.6401C13.74 18.3701 13.12 18.0001 12.01 18.0001C10.9 18.0001 10.28 18.3701 9.82 18.6401C9.45 18.8701 9.23 19.0001 8.67 19.0001C8.11 19.0001 7.89 18.8701 7.52 18.6401C7.07 18.3701 6.45 18.0001 5.34 18.0001C4.23 18.0001 3.61 18.3701 3.15 18.6401C2.78 18.8701 2.56 19.0001 2 19.0001V21.0001C3.11 21.0001 3.73 20.6301 4.19 20.3601C4.56 20.1301 4.79 20.0001 5.34 20.0001C5.89 20.0001 6.12 20.1301 6.49 20.3601C6.94 20.6301 7.56 21.0001 8.67 21.0001C9.78 21.0001 10.4 20.6301 10.86 20.3601C11.23 20.1301 11.45 20.0001 12.01 20.0001C12.56 20.0001 12.79 20.1401 13.16 20.3601C13.61 20.6301 14.23 21.0001 15.34 21.0001C16.45 21.0001 17.06 20.6301 17.52 20.3601C17.89 20.1301 18.11 20.0001 18.67 20.0001C19.22 20.0001 19.45 20.1401 19.82 20.3601C20.27 20.6301 20.89 21.0001 22 21.0001V19.0001C21.44 19.0001 21.22 18.8701 20.85 18.6401C20.4 18.3701 19.78 18.0001 18.67 18.0001Z" fill="black"/>
<path d="M16.5 8.0001C17.8807 8.0001 19 6.88081 19 5.5001C19 4.11939 17.8807 3.0001 16.5 3.0001C15.1193 3.0001 14 4.11939 14 5.5001C14 6.88081 15.1193 8.0001 16.5 8.0001Z" fill="black"/>
</svg>
