<svg width="24" height="24" viewBox="0 0 24 24" fill="none" xmlns="http://www.w3.org/2000/svg">
<path d="M15 19.49H8V12.86C9.26 12.52 10.11 11.59 10.77 10.87C11.6 9.96001 12.08 9.49001 13 9.49001H15V19.49ZM10 2.51001C8.11 2.51001 6.49 3.62001 5.73 5.22001C4.15 5.75001 3 7.23001 3 8.99001C3 10.85 4.28 12.4 6 12.85V21.49H17V19.49H19C20.1 19.49 21 18.59 21 17.49V11.49C21 10.39 20.1 9.49001 19 9.49001H17.44C17.79 8.90001 18 8.22001 18 7.49001C18 5.28001 16.21 3.49001 14 3.49001C13.66 3.49001 13.34 3.54001 13.02 3.62001C12.2 2.94001 11.16 2.51001 10 2.51001ZM7 10.99C5.9 10.99 5 10.09 5 8.99001C5 8.14001 5.55 7.39001 6.37 7.11001L7.17 6.84001L7.53 6.08001C8 5.11001 8.94 4.51001 10 4.51001C10.79 4.51001 11.39 4.86001 11.74 5.16001L12.52 5.81001C12.52 5.81001 13.16 5.49001 13.99 5.49001C15.09 5.49001 15.99 6.39001 15.99 7.49001H12.99C9.67 7.49001 9.15 10.99 7 10.99ZM17 17.49V11.49H19V17.49H17Z" fill="black"/>
</svg>
