<svg width="24" height="24" viewBox="0 0 24 24" fill="none" xmlns="http://www.w3.org/2000/svg">
<path d="M15.9856 6.01434H13.9856V4.01434H15.9856V6.01434ZM17.9856 7.01434H15.9856V9.01434H17.9856V7.01434ZM18.9856 9.01434H20.9856V7.01434H18.9856V9.01434ZM18.9856 4.01434H16.9856V6.01434H18.9856V4.01434ZM14.9856 7.01434H12.9856V9.01434H14.9856V7.01434ZM18.9856 10.0143H16.9856V12.0143H18.9856V10.0143ZM15.9856 10.0143H13.9856V12.0143H15.9856V10.0143ZM12.9856 4.01434H10.9856V6.01434H12.9856V4.01434ZM19.9856 15.8343V19.9843C19.9856 20.5443 19.5156 21.0143 18.9556 20.9843C16.0656 20.8143 13.3556 19.9543 10.9856 18.5843C8.25564 17.0043 5.99564 14.7443 4.41564 12.0143C3.03564 9.64434 2.18564 6.93434 2.01564 4.04434C1.98564 3.48434 2.45564 3.01434 3.01564 3.01434H7.16564C7.64564 3.01434 8.05564 3.35434 8.14564 3.81434L8.88564 7.49434C8.95564 7.82434 8.84564 8.16434 8.61564 8.39434L6.08564 10.9143C7.51564 13.4143 9.58564 15.4843 12.0856 16.9143L14.6056 14.3943C14.8456 14.1543 15.1856 14.0543 15.5056 14.1243L19.1756 14.8543C19.6456 14.9443 19.9856 15.3543 19.9856 15.8343ZM5.16564 9.00434L6.81564 7.35434L6.34564 5.01434H4.11564C4.28564 6.38434 4.64564 7.72434 5.16564 9.00434ZM17.9856 16.6543L15.6456 16.1843L13.9956 17.8343C15.2756 18.3543 16.6256 18.7043 17.9856 18.8843V16.6543ZM19.9856 4.01434V6.01434H21.9856V4.01434H19.9856ZM19.9856 12.0143H21.9856V10.0143H19.9856V12.0143ZM12.9856 10.0143H10.9856V12.0143H12.9856V10.0143Z" fill="black"/>
</svg>
