<svg width="24" height="24" viewBox="0 0 24 24" fill="none" xmlns="http://www.w3.org/2000/svg">
<path d="M2.30495 16.2H3.30495C4.63495 16.2 6.01495 16.02 7.30495 15.7V18.7C6.01495 18.38 4.63495 18.2 3.30495 18.2H2.30495V16.2ZM16.4749 18.7H8.30495V15.7H13.4749L1.69495 3.92001L3.10495 2.51001L21.4849 20.89L20.0749 22.3L16.4749 18.7ZM19.1349 15.7H22.3049V18.7H22.1349L19.1349 15.7ZM11.3049 17.2C11.3049 16.92 11.0849 16.7 10.8049 16.7C10.5249 16.7 10.3049 16.92 10.3049 17.2C10.3049 17.48 10.5249 17.7 10.8049 17.7C11.0849 17.7 11.3049 17.48 11.3049 17.2ZM22.3049 12.46V14.7H20.8049V12.47C20.8049 10.23 19.0449 8.40001 16.8049 8.40001V6.90001C17.8249 6.90001 18.6549 6.07001 18.6549 5.05001C18.6549 4.03001 17.8249 3.20001 16.8049 3.20001V1.70001C18.6549 1.70001 20.1549 3.20001 20.1549 5.05001C20.1549 5.98001 19.7749 6.82001 19.1549 7.43001C21.0249 8.32001 22.3049 10.24 22.3049 12.46ZM11.4549 8.02001C11.4549 8.01001 11.4549 8.01001 11.4549 8.00001C11.4549 6.15001 12.9549 4.65001 14.8049 4.65001V6.15001C13.7849 6.15001 12.9549 6.88001 12.9549 7.90001C12.9549 8.92001 13.7849 9.90001 14.8049 9.90001H16.3349C18.2049 9.90001 19.8049 11.25 19.8049 13.06V14.7H18.3049V13.4C18.3049 12.09 17.3849 11.35 16.3349 11.35H14.8049C14.7949 11.35 14.7949 11.35 14.7849 11.35L11.4549 8.02001Z" fill="black"/>
</svg>
