<svg width="20" height="20" viewBox="0 0 20 20" fill="none" xmlns="http://www.w3.org/2000/svg">
<path d="M6.66666 7.91668H13.3333V9.58334H6.66666V7.91668ZM16.75 8.75001H18.3333C18.3333 6.45001 16.4667 4.58334 14.1667 4.58334H10.8333V6.16668H14.1667C15.5917 6.16668 16.75 7.32501 16.75 8.75001ZM3.24999 8.75001C3.24999 7.32501 4.40832 6.16668 5.83332 6.16668H9.16666V4.58334H5.83332C3.53332 4.58334 1.66666 6.45001 1.66666 8.75001C1.66666 11.05 3.53332 12.9167 5.83332 12.9167H9.16666V11.3333H5.83332C4.40832 11.3333 3.24999 10.175 3.24999 8.75001ZM15.8333 8.75001H14.1667V11.25H11.6667V12.9167H14.1667V15.4167H15.8333V12.9167H18.3333V11.25H15.8333V8.75001Z" fill="#3C4766"/>
</svg>
