<svg width="20" height="20" viewBox="0 0 20 20" fill="none" xmlns="http://www.w3.org/2000/svg">
<path d="M10.8333 5.83332H9.16666V9.16666H5.83332V10.8333H9.16666V14.1667H10.8333V10.8333H14.1667V9.16666H10.8333V5.83332ZM9.99999 1.66666C5.39999 1.66666 1.66666 5.39999 1.66666 9.99999C1.66666 14.6 5.39999 18.3333 9.99999 18.3333C14.6 18.3333 18.3333 14.6 18.3333 9.99999C18.3333 5.39999 14.6 1.66666 9.99999 1.66666ZM9.99999 16.6667C6.32499 16.6667 3.33332 13.675 3.33332 9.99999C3.33332 6.32499 6.32499 3.33332 9.99999 3.33332C13.675 3.33332 16.6667 6.32499 16.6667 9.99999C16.6667 13.675 13.675 16.6667 9.99999 16.6667Z" fill="#3C4766"/>
</svg>
