<svg width="20" height="20" viewBox="0 0 20 20" fill="none" xmlns="http://www.w3.org/2000/svg">
<g clip-path="url(#clip0_35_7517)">
<path d="M16.6667 7.24166V3.33333H12.7583L10 0.574997L7.24168 3.33333H3.33335V7.24166L0.575012 10L3.33335 12.7583V16.6667H7.24168L10 19.425L12.7583 16.6667H16.6667V12.7583L19.425 10L16.6667 7.24166ZM15 12.0667V15H12.0667L10 17.0667L7.93335 15H5.00001V12.0667L2.93335 10L5.00001 7.93333V5H7.93335L10 2.93333L12.0667 5H15V7.93333L17.0667 10L15 12.0667ZM10 5.41666C7.47501 5.41666 5.41668 7.475 5.41668 10C5.41668 12.525 7.47501 14.5833 10 14.5833C12.525 14.5833 14.5833 12.525 14.5833 10C14.5833 7.475 12.525 5.41666 10 5.41666ZM10 12.9167C8.39168 12.9167 7.08335 11.6083 7.08335 10C7.08335 8.39166 8.39168 7.08333 10 7.08333C11.6083 7.08333 12.9167 8.39166 12.9167 10C12.9167 11.6083 11.6083 12.9167 10 12.9167Z" fill="#3C4766"/>
<path d="M10 11.6667C10.9205 11.6667 11.6667 10.9205 11.6667 10C11.6667 9.07952 10.9205 8.33333 10 8.33333C9.07954 8.33333 8.33335 9.07952 8.33335 10C8.33335 10.9205 9.07954 11.6667 10 11.6667Z" fill="#3C4766"/>
</g>
<defs>
<clipPath id="clip0_35_7517">
<rect width="20" height="20" fill="white"/>
</clipPath>
</defs>
</svg>
