<svg width="172" height="104" viewBox="0 0 172 104" fill="none" xmlns="http://www.w3.org/2000/svg">
<path d="M160.496 42.8276C159.599 42.8205 158.712 43.0134 157.902 43.3918C157.092 43.7702 156.379 44.3243 155.818 45.0123C155.448 44.3232 154.886 43.7519 154.198 43.3651C153.51 42.9782 152.724 42.7918 151.932 42.8276C151.137 42.8185 150.348 42.9653 149.611 43.2595C148.875 43.5536 148.205 43.9892 147.642 44.5407C147.486 44.0745 147.172 43.6746 146.754 43.4072C146.335 43.1399 145.836 43.021 145.339 43.0702C144.92 43.0881 144.503 43.1429 144.094 43.2341C144.358 44.5104 144.487 45.8104 144.479 47.113V56.2321H147.871V46.9355C148.639 46.1775 149.653 45.709 150.737 45.612C152.294 45.612 153.022 46.7328 153.022 48.2642V56.23H156.437V46.9334C157.198 46.1686 158.215 45.6998 159.3 45.6131C160.853 45.6131 161.564 46.7338 161.564 48.2652V56.231H164.984V47.7442C164.984 44.7665 163.26 42.8276 160.496 42.8276Z" fill="#FF7A00"/>
<path d="M123.263 53.8209C122.19 53.7537 121.184 53.2874 120.448 52.5167C119.712 51.746 119.303 50.7289 119.303 49.672C119.303 48.6152 119.712 47.598 120.448 46.8273C121.184 46.0567 122.19 45.5903 123.263 45.5232C124.386 45.5232 124.858 45.8582 125.602 45.8582C125.957 45.861 126.304 45.7531 126.593 45.5501C126.883 45.3471 127.099 45.0594 127.212 44.7281C127.425 44.3079 127.557 44.0737 127.557 44.0737C126.11 43.21 124.441 42.7746 122.749 42.8196C118.469 42.8196 115.911 45.8341 115.911 49.6846C115.856 50.5868 115.994 51.4904 116.317 52.3367C116.639 53.1831 117.139 53.9535 117.783 54.5979C118.428 55.2423 119.203 55.7464 120.059 56.0776C120.914 56.4088 121.831 56.5596 122.749 56.5203C124.47 56.5646 126.165 56.094 127.608 55.1706L126.433 52.8861C125.488 53.4871 124.388 53.8114 123.263 53.8209Z" fill="#FF7A00"/>
<path d="M86.0217 42.8296C82.7684 42.8296 80.0216 45.4313 80.0216 49.6925C80.0216 54.0536 82.6851 56.5282 86.6638 56.5282C88.4516 56.5948 90.2107 56.072 91.6617 55.043L91.2664 54.4128C91.1303 54.132 90.9168 53.8945 90.65 53.7274C90.3833 53.5602 90.0741 53.4702 89.7578 53.4675C88.6381 53.4675 88.495 53.9265 86.98 53.9265C86.5216 53.946 86.064 53.8745 85.6343 53.7165C85.2046 53.5584 84.8117 53.3169 84.4789 53.0064C84.1461 52.696 83.8803 52.3228 83.6973 51.9092C83.5143 51.4956 83.4179 51.05 83.4137 50.599H92.1243V49.6075C92.1221 45.5237 89.73 42.8296 86.0217 42.8296ZM83.3998 48.2284C83.3557 47.5123 83.5999 46.8079 84.0797 46.2674C84.5595 45.727 85.2363 45.3938 85.964 45.3399C86.3311 45.3553 86.6913 45.4428 87.0235 45.5973C87.3557 45.7517 87.653 45.97 87.8981 46.2392C88.1431 46.5083 88.3308 46.823 88.4502 47.1647C88.5696 47.5063 88.6183 47.868 88.5933 48.2284H83.3998Z" fill="#FF7A00"/>
<path d="M97.9369 52.5427V38.8882C97.9589 38.5329 97.9056 38.1769 97.7806 37.8428C97.6555 37.5087 97.4614 37.2037 97.2104 36.9471C96.9594 36.6905 96.657 36.4878 96.3224 36.3519C95.9877 36.216 95.628 36.1497 95.266 36.1573H94.5395V53.883C94.5136 54.2478 94.5698 54.6139 94.7042 54.955C94.8385 55.2961 95.0477 55.6039 95.3167 55.8565C95.5858 56.1091 95.9082 56.3003 96.261 56.4165C96.6138 56.5327 96.9883 56.571 97.3579 56.5288C97.7566 56.5546 98.1561 56.4933 98.5279 56.3493C98.8997 56.2054 99.2345 55.9824 99.5083 55.6963C99.782 55.4101 99.988 55.068 100.111 54.6944C100.235 54.3208 100.273 53.925 100.222 53.5353C99.8985 53.6807 99.5481 53.76 99.1923 53.7685C99.0239 53.7856 98.8537 53.7657 98.6941 53.7103C98.5345 53.6548 98.3894 53.5652 98.2692 53.448C98.1491 53.3307 98.057 53.1886 97.9995 53.0321C97.9421 52.8755 97.9207 52.7084 97.9369 52.5427Z" fill="#FF7A00"/>
<path d="M75.2245 52.0794V45.5862H78.0642L79.0535 43.0727H75.2245V39.1465C75.2245 39.1465 74.92 39.1465 74.9039 39.1465C73.3922 39.1465 71.8238 39.7767 71.8238 43.0422V43.0727H69.3206V45.5851H71.8313V53.2348C71.7793 53.6628 71.8234 54.0968 71.9605 54.5062C72.0977 54.9156 72.3245 55.2905 72.625 55.6044C72.9256 55.9183 73.2925 56.1635 73.6999 56.3228C74.1073 56.4822 74.5453 56.5517 74.983 56.5265C76.4787 56.5265 78.4018 56.0791 78.4018 53.1654C77.9127 53.4782 77.3487 53.6593 76.7661 53.6906C75.6614 53.699 75.2245 53.0363 75.2245 52.0794Z" fill="#FF7A00"/>
<path d="M107.336 42.8296C104.083 42.8296 101.336 45.4313 101.336 49.6925C101.336 54.0536 103.998 56.5282 107.978 56.5282C109.765 56.5948 111.524 56.072 112.975 55.043L112.581 54.4128C112.445 54.132 112.231 53.8945 111.964 53.7274C111.697 53.5603 111.388 53.4702 111.072 53.4675C109.952 53.4675 109.809 53.9265 108.294 53.9265C107.836 53.9452 107.378 53.8733 106.949 53.715C106.519 53.5567 106.127 53.3152 105.794 53.0048C105.461 52.6945 105.195 52.3216 105.012 51.9084C104.829 51.4951 104.731 51.0498 104.726 50.599H113.438V49.6075C113.437 45.5237 111.045 42.8296 107.336 42.8296ZM104.715 48.2284C104.67 47.5123 104.915 46.8079 105.394 46.2674C105.874 45.727 106.551 45.3938 107.279 45.3399C107.646 45.3553 108.006 45.4428 108.338 45.5973C108.67 45.7518 108.968 45.97 109.213 46.2392C109.457 46.5084 109.645 46.8231 109.764 47.1647C109.884 47.5064 109.932 47.868 109.907 48.2284H104.715Z" fill="#FF7A00"/>
<path d="M135.389 56.5275C131.233 56.5275 128.729 53.8292 128.729 49.6814C128.729 45.5514 131.199 42.8247 135.389 42.8247C139.58 42.8247 142.054 45.5556 142.054 49.6814C142.054 53.5855 139.775 56.5275 135.389 56.5275ZM135.389 53.9563C137.474 53.9563 138.674 52.1948 138.674 49.6803C138.674 47.1899 137.498 45.3939 135.389 45.3939C133.339 45.3939 132.109 47.1374 132.109 49.6803C132.109 52.1339 133.28 53.9563 135.389 53.9563Z" fill="#FF7A00"/>
<path d="M25.9824 41.6329C23.9311 40.6876 22.243 39.9282 22.243 38.3873C22.243 37.2099 23.2046 36.3528 25.0956 36.3528C25.7185 36.3567 26.3395 36.419 26.9503 36.5387C27.2502 36.5952 27.5543 36.6275 27.8595 36.6354C29.5134 36.6354 30.4461 35.667 31.0647 33.8268L31.3211 33.0758C29.2617 32.2442 27.0581 31.8119 24.8317 31.8027C19.227 31.8027 16.2686 35.3361 16.2697 39.0039C16.2161 40.5549 16.7551 42.0694 17.7804 43.2494C19.0495 44.5355 20.5685 45.5578 22.2473 46.2555C24.5572 47.3689 26.6405 48.1923 26.6405 49.8435C26.6405 51.314 25.102 52.1427 23.0422 52.1427C21.0496 52.0497 19.1181 51.437 17.446 50.3676L15.1287 54.6362C17.6519 56.0629 20.523 56.7866 23.4332 56.7295C28.6683 56.7295 32.6213 53.7781 32.6213 49.2406C32.6256 44.723 28.9536 43.0488 25.9824 41.6329Z" fill="#EA002C"/>
<path d="M46.441 43.7415L55.9304 32.3032H49.1707L41.6012 42.1765H41.489V32.3032H35.9142V56.5336H36.2454C38.6546 56.5336 41.5232 55.4381 41.5232 51.4804V45.9136H41.6354L49.3502 56.228H56.4421L46.441 43.7415Z" fill="#EA002C"/>
<path d="M56.2464 6.34668C54.2849 6.71115 51.3757 8.46208 51.3853 11.5595C51.3928 14.3703 53.7357 16.076 53.7357 19.7596C53.7499 20.8994 53.4598 22.023 52.8944 23.0182C52.329 24.0134 51.5081 24.8455 50.5135 25.4315C51.1908 25.3726 51.9355 25.3338 52.7571 25.3264C53.6988 25.3136 54.6401 25.3694 55.5734 25.4934L64.3758 14.8744C62.1565 11.6155 59.4106 8.73501 56.2464 6.34668Z" fill="#EA002C"/>
<path d="M63.6399 35.0239C64.7499 33.3286 64.8888 30.6261 64.9828 27.8731C65.0897 25.3061 65.6313 23.3745 69.126 23.3619C69.8995 23.3619 70.6367 23.4669 71.9733 23.4596C75.6874 23.4466 79.329 22.4472 82.5129 20.5669C77.0836 17.1295 70.825 15.1674 64.3738 14.8804C63.8738 16.271 59.9742 26.9257 59.6804 27.786C60.2804 28.4908 60.8092 29.2513 61.2595 30.0568C62.2355 31.6219 63.0337 33.2875 63.6399 35.0239Z" fill="#EA002C"/>
<path d="M45.0488 26.3197C44.6043 26.3197 44.3832 26.0309 44.3223 25.5278C44.2614 25.0247 42.0637 5.22671 41.7368 2.23112C41.6887 1.79313 41.5787 0.989616 41.5776 0.702872C41.5686 0.612602 41.5793 0.521492 41.6088 0.435569C41.6384 0.349646 41.6861 0.270867 41.7489 0.204443C41.8118 0.138019 41.8882 0.0854636 41.9732 0.0502529C42.0582 0.0150423 42.1499 -0.00202148 42.2421 0.000190607C43.2849 0.000190607 48.973 1.30472 55.0019 5.46199C53.2647 5.94304 50.1204 7.72128 50.1343 11.4006C50.145 14.6567 52.5168 16.4507 52.5307 19.7173C52.5499 25.032 46.3362 26.3176 45.0488 26.3197Z" fill="#FF7A00"/>
<path d="M64.1467 36.4374C64.2202 36.644 64.3117 36.8439 64.4202 37.0351C64.4692 37.1355 64.546 37.2204 64.6418 37.28C64.7376 37.3396 64.8485 37.3716 64.9618 37.3722C65.1369 37.3608 65.3079 37.3155 65.4651 37.2388C65.9298 37.0288 84.3103 28.6176 87.0828 27.3603C87.4834 27.1713 88.2462 26.8352 88.4973 26.6902C88.608 26.6379 88.702 26.5566 88.7689 26.4552C88.8358 26.3539 88.873 26.2364 88.8766 26.1157C88.8744 25.9903 88.8375 25.8679 88.7697 25.7617C87.3088 24.038 85.5897 22.5427 83.6714 21.3271C80.1962 23.4153 76.2139 24.5468 72.1414 24.6032C70.7963 24.6032 70.4939 24.5149 69.5773 24.5191C66.9063 24.5276 66.2322 25.6535 66.1349 27.9611C66.1178 28.397 66.1093 28.9831 66.0847 29.627C65.9971 31.6888 65.7492 34.5342 64.1467 36.4374Z" fill="#FF7A00"/>
<path d="M31.6771 91.6841H0V88.4457H13.2564V84.8869H8.37497C6.96293 84.9636 5.56536 84.5751 4.40596 83.7837C3.91314 83.3914 3.52369 82.8894 3.27027 82.3198C3.01685 81.7501 2.90683 81.1294 2.94945 80.5096V72.5024H28.3657V75.4917H8.30214V80.1537C8.28584 80.3982 8.3283 80.643 8.42612 80.8685C8.52394 81.0941 8.6744 81.2941 8.86547 81.4527C9.25308 81.753 9.73647 81.9105 10.231 81.8975H28.4374V84.8869H18.4239V88.4457H31.6771V91.6841ZM28.7298 100.51V103.677H9.50805C8.08279 103.761 6.67207 103.358 5.51656 102.538C5.02983 102.134 4.64635 101.625 4.39666 101.05C4.14696 100.475 4.03793 99.8518 4.07825 99.2287V94.1753H9.24888V98.8017C9.23153 99.0453 9.27535 99.2894 9.37651 99.5126C9.47768 99.7359 9.63313 99.9317 9.82934 100.083C10.2056 100.364 10.6668 100.514 11.1402 100.51H28.7298ZM57.753 73.57V82.3957H64.0889V72.5024H69.1138V103.606H64.0867V85.7075H57.7509V96.0279H45.6254C44.2278 96.1009 42.8449 95.7192 41.6928 94.9425C41.1993 94.5548 40.8092 94.0561 40.5556 93.4891C40.3019 92.9221 40.1924 92.3036 40.2363 91.6862V73.57H45.2612V81.9331H52.758V73.57H57.753ZM45.2612 91.0436C45.2455 91.2898 45.2902 91.5361 45.3915 91.762C45.4929 91.988 45.6479 92.187 45.8439 92.3425C46.2512 92.6452 46.7525 92.8023 47.264 92.7874H52.7623V85.2072H45.2655L45.2612 91.0436ZM79.1617 79.9402C79.1459 80.1864 79.1906 80.4327 79.2919 80.6587C79.3933 80.8846 79.5484 81.0836 79.7443 81.2391C80.1397 81.5381 80.6282 81.6951 81.128 81.684H99.4415V84.6378H79.453C78.0269 84.7183 76.615 84.3243 75.4476 83.5199C74.9554 83.1231 74.5668 82.6177 74.3136 82.0454C74.0603 81.4731 73.9498 80.8502 73.991 80.228V71.9717H79.1617V79.9402ZM99.298 100.403V103.57H80.072C78.6482 103.653 77.2391 103.25 76.0848 102.432C75.5981 102.027 75.2146 101.518 74.9649 100.943C74.7152 100.369 74.6061 99.745 74.6465 99.122V94.2109H79.8171V98.7305C79.8031 98.9688 79.8488 99.2068 79.9504 99.4239C80.0519 99.641 80.2061 99.8305 80.3997 99.9761C80.776 100.257 81.2372 100.407 81.7106 100.403H99.298ZM102.468 91.6841H70.7867V88.3347H102.468V91.6841Z" fill="#EA002C"/>
<path d="M119.54 81.0955C119.155 81.6935 118.735 82.2676 118.281 82.8145C117.758 83.4497 117.192 84.0482 116.588 84.6058C115.934 85.214 115.249 85.7878 114.537 86.3248C113.818 86.8669 113.047 87.3337 112.234 87.7181C111.826 87.1632 111.418 86.631 111.011 86.1215C110.603 85.612 110.195 85.0798 109.787 84.5249C110.195 84.2596 110.795 83.8313 111.586 83.2402C112.428 82.6087 113.222 81.9161 113.963 81.1679C114.751 80.4001 115.457 79.551 116.068 78.6347C116.625 77.8776 116.945 76.9702 116.985 76.0291V72.3378H122.203V76.0291C122.238 77.022 122.584 77.9784 123.192 78.7613C123.85 79.6899 124.604 80.5462 125.441 81.3158C126.211 82.0516 127.023 82.7404 127.875 83.3786C128.651 83.9576 129.185 84.3436 129.476 84.5366L128.235 86.1332C127.839 86.6399 127.437 87.172 127.029 87.7298C126.021 87.2143 125.069 86.5958 124.187 85.8841C123.402 85.2575 122.657 84.5821 121.956 83.8618C121.385 83.2995 120.85 82.7012 120.355 82.0705C119.959 81.5518 119.725 81.2325 119.653 81.1125L119.54 81.0955ZM120.008 98.5747V99.1537C120.016 99.5368 120.163 99.9036 120.422 100.185C120.615 100.368 120.845 100.506 121.097 100.59C121.349 100.674 121.615 100.703 121.879 100.674H139.258V103.605H119.504C118.703 103.627 117.905 103.504 117.147 103.243C116.592 103.055 116.092 102.732 115.69 102.302C115.312 101.925 115.033 101.458 114.881 100.945C114.726 100.435 114.647 99.9043 114.647 99.3709V95.571H133.681V93.2911H114.647V90.396H139.006V98.5747H120.008ZM139.006 71.9759V88.0757H133.896V80.0418H127.852V76.6038H133.896V71.9717L139.006 71.9759ZM169.05 100.457V103.677H150.052C148.645 103.761 147.253 103.352 146.113 102.519C145.632 102.108 145.253 101.59 145.006 101.006C144.76 100.421 144.652 99.7873 144.692 99.1537V94.0149H149.801V98.7195C149.784 98.9674 149.828 99.2157 149.928 99.4427C150.028 99.6698 150.182 99.8688 150.377 100.022C150.748 100.308 151.204 100.461 151.672 100.457H169.05ZM172 90.7579H160.018V96.6971H154.909V93.2911C154.923 92.6764 154.787 92.0677 154.513 91.5179C154.25 91.0112 153.59 90.7579 152.534 90.7579H140.661V87.3924H172V90.7579ZM168.69 71.9759V84.5696H149.224C147.817 84.6506 146.424 84.2556 145.266 83.4478C144.779 83.0489 144.395 82.5384 144.144 81.9592C143.894 81.3799 143.785 80.7487 143.827 80.1184V71.9759H168.69ZM163.724 75.0903H148.864V79.7587C148.85 79.9993 148.893 80.2399 148.99 80.4603C149.087 80.6808 149.235 80.8745 149.422 81.0253C149.81 81.3201 150.286 81.4732 150.771 81.4595H163.724V75.0903Z" fill="#FF7A00"/>
</svg>
