<svg width="20" height="20" viewBox="0 0 20 20" fill="none" xmlns="http://www.w3.org/2000/svg">
<path d="M3.09167 10.2417H4.75833V8.575H3.09167V10.2417ZM6.425 16.9083H8.09167V15.2417H6.425V16.9083ZM11.425 1.90833H9.75833V3.575H11.425V1.90833ZM16.425 1.90833V3.575H18.0917C18.0917 2.65833 17.3417 1.90833 16.425 1.90833ZM4.75833 16.9083V15.2417H3.09167C3.09167 16.1583 3.84167 16.9083 4.75833 16.9083ZM3.09167 13.575H4.75833V11.9083H3.09167V13.575ZM9.75833 16.9083H11.425V15.2417H9.75833V16.9083ZM16.425 10.2417H18.0917V8.575H16.425V10.2417ZM16.425 6.90833H18.0917V5.24167H16.425V6.90833ZM13.0917 3.575H14.7583V1.90833H13.0917V3.575ZM7.11667 3.575L6.425 2.88333V1.90833H8.09167V3.575H7.11667ZM17.1167 13.575L16.425 12.8833V11.9083H18.0917V13.575H17.1167ZM18.25 17.0667L2.93333 1.75L1.75 2.925L4.06667 5.24167H3.09167V6.90833H4.75833V5.93333L6.425 7.6V13.575H12.4L14.0667 15.2417H13.0917V16.9083H14.7583V15.9333L17.075 18.25L18.25 17.0667ZM8.09167 11.9083V9.26667L10.7333 11.9083H8.09167ZM13.0917 9.55V6.90833H10.45L8.78333 5.24167H14.7583V11.2167L13.0917 9.55Z" fill="#3C4766"/>
</svg>
