<svg width="20" height="20" viewBox="0 0 20 20" fill="none" xmlns="http://www.w3.org/2000/svg">
<path d="M14.1176 16.8421H5.64706C4.61176 16.8421 3.76471 16.0842 3.76471 15.1579V5.05263C3.76471 4.12631 4.61176 3.36842 5.64706 3.36842H14.1176C15.1529 3.36842 16 4.12631 16 5.05263V15.1579C16 16.0842 15.1529 16.8421 14.1176 16.8421ZM14.1176 5.05263H5.64706V15.1579H14.1176V5.05263ZM0 5.89473V7.57894H1.88235V5.89473H0ZM0 10.5263H1.88235V8.8421H0V10.5263ZM6.58824 1.68421H8.47059V-3.8147e-06H6.58824V1.68421ZM0 2.94736V4.63158H1.88235V2.94736H0ZM1.88235 -3.8147e-06C0.847059 -3.8147e-06 0 0.757891 0 1.68421H1.88235V-3.8147e-06ZM5.17647 -3.8147e-06H3.29412V1.68421H5.17647V-3.8147e-06ZM9.88235 -3.8147e-06V1.68421H11.7647C11.7647 0.757891 10.9176 -3.8147e-06 9.88235 -3.8147e-06ZM1.88235 13.4737V11.7895H0C0 12.7158 0.847059 13.4737 1.88235 13.4737Z" fill="#3C4766"/>
<path d="M12.6316 11.2281H7.57895V9.82458H12.6316V11.2281Z" fill="#3C4766"/>
</svg>
