<svg width="20" height="20" viewBox="0 0 20 20" fill="none" xmlns="http://www.w3.org/2000/svg">
<path d="M13.75 0.833328H3.75001C2.83334 0.833328 2.08334 1.58333 2.08334 2.49999V14.1667H3.75001V2.49999H13.75V0.833328ZM16.25 4.16666H7.08334C6.16668 4.16666 5.41668 4.91666 5.41668 5.83333V17.5C5.41668 18.4167 6.16668 19.1667 7.08334 19.1667H16.25C17.1667 19.1667 17.9167 18.4167 17.9167 17.5V5.83333C17.9167 4.91666 17.1667 4.16666 16.25 4.16666ZM16.25 17.5H7.08334V5.83333H16.25V17.5Z" fill="#3C4766"/>
<path d="M15 12.8334H9V11.1667H15V12.8334Z" fill="#3C4766"/>
<path d="M11.1666 15L11.1666 9L12.8333 9L12.8333 15L11.1666 15Z" fill="#3C4766"/>
</svg>
