<svg width="22" height="19" viewBox="0 0 22 19" fill="none" xmlns="http://www.w3.org/2000/svg">
<path d="M9.58669 2.86992C9.99311 2.81622 10.4124 2.78741 10.8442 2.78741C15.9492 2.78741 19.299 6.81342 20.4244 8.40599C20.5607 8.59874 20.6288 8.69512 20.6669 8.84377C20.6955 8.95541 20.6955 9.13153 20.6668 9.24317C20.6287 9.39181 20.5601 9.48883 20.4229 9.68286C20.1231 10.107 19.6659 10.7031 19.0602 11.3495M5.56807 4.32015C3.406 5.63092 1.9382 7.452 1.26486 8.40461C1.12803 8.59818 1.05962 8.69496 1.02149 8.8436C0.992847 8.95523 0.992836 9.13133 1.02146 9.24297C1.05958 9.39162 1.12768 9.48799 1.26388 9.68073C2.38929 11.2733 5.73916 15.2993 10.8442 15.2993C12.9026 15.2993 14.6756 14.6447 16.1326 13.7591M1.84417 1L19.8442 17.0867M8.72285 7.14752C8.17995 7.63271 7.84417 8.30299 7.84417 9.04336C7.84417 10.5241 9.18731 11.7245 10.8442 11.7245C11.6726 11.7245 12.4226 11.4244 12.9655 10.9392" stroke="#6C84B3" stroke-width="2" stroke-linecap="round" stroke-linejoin="round"/>
</svg>
