<svg width="18" height="17" viewBox="0 0 18 17" fill="none" xmlns="http://www.w3.org/2000/svg">
<path d="M15.5116 0H7.95321C6.86192 0 5.97363 0.897091 5.97363 2C5.97363 3.10291 6.86192 4 7.95321 4H15.5116C16.6029 4 17.4912 3.10291 17.4912 2C17.4912 0.897091 16.6029 0 15.5116 0ZM15.5116 2.54545H7.95321C7.65555 2.54545 7.41333 2.30073 7.41333 2C7.41333 1.69927 7.65555 1.45455 7.95321 1.45455H15.5116C15.8093 1.45455 16.0515 1.69927 16.0515 2C16.0515 2.30073 15.8093 2.54545 15.5116 2.54545Z" fill="#3C4766"/>
<path d="M15.5116 6H7.95321C6.86192 6 5.97363 6.89709 5.97363 8C5.97363 9.10255 6.86192 10 7.95321 10H15.5116C16.6029 10 17.4912 9.10255 17.4912 8C17.4912 6.89709 16.6029 6 15.5116 6ZM15.5116 8.54545H7.95321C7.65555 8.54545 7.41333 8.30073 7.41333 8C7.41333 7.69927 7.65555 7.45455 7.95321 7.45455H15.5116C15.8093 7.45455 16.0515 7.69927 16.0515 8C16.0515 8.30073 15.8093 8.54545 15.5116 8.54545Z" fill="#CBD5E1"/>
<path d="M15.5116 12H7.95321C6.86192 12 5.97363 12.8975 5.97363 14C5.97363 15.1025 6.86192 16 7.95321 16H15.5116C16.6029 16 17.4912 15.1025 17.4912 14C17.4912 12.8975 16.6029 12 15.5116 12ZM15.5116 14.5455H7.95321C7.65555 14.5455 7.41333 14.3007 7.41333 14C7.41333 13.6993 7.65555 13.4545 7.95321 13.4545H15.5116C15.8093 13.4545 16.0515 13.6993 16.0515 14C16.0515 14.3007 15.8093 14.5455 15.5116 14.5455Z" fill="#3C4766"/>
<path d="M1.29462 4.3125H3.84177C4.19328 4.3125 4.47856 3.9905 4.47856 3.59375V0.71875C4.47856 0.322 4.19328 0 3.84177 0H1.29462C0.943118 0 0.657837 0.322 0.657837 0.71875V3.59375C0.657837 3.9905 0.943118 4.3125 1.29462 4.3125ZM1.93141 1.4375H3.20499V2.875H1.93141V1.4375Z" fill="#3C4766"/>
<path d="M1.29462 10.4219H3.84177C4.19328 10.4219 4.47856 10.0999 4.47856 9.70312V6.82812C4.47856 6.43137 4.19328 6.10938 3.84177 6.10938H1.29462C0.943118 6.10938 0.657837 6.43137 0.657837 6.82812V9.70312C0.657837 10.0999 0.943118 10.4219 1.29462 10.4219ZM1.93141 7.54688H3.20499V8.98438H1.93141V7.54688Z" fill="#CBD5E1"/>
<path d="M1.29462 16.5312H3.84177C4.19328 16.5312 4.47856 16.2092 4.47856 15.8125V12.9375C4.47856 12.5407 4.19328 12.2188 3.84177 12.2188H1.29462C0.943118 12.2188 0.657837 12.5407 0.657837 12.9375V15.8125C0.657837 16.2092 0.943118 16.5312 1.29462 16.5312ZM1.93141 13.6562H3.20499V15.0938H1.93141V13.6562Z" fill="#3C4766"/>
</svg>
