<svg width="16" height="18" viewBox="0 0 16 18" fill="none" xmlns="http://www.w3.org/2000/svg">
<path d="M1.499 17.25H3.72776C4.07927 17.25 4.36455 16.928 4.36455 16.5312C4.36455 16.1345 4.07927 15.8125 3.72776 15.8125H1.8174V14.375H3.40937C3.93599 14.375 4.36455 13.8913 4.36455 13.2969V11.1406C4.36455 10.5462 3.93599 10.0625 3.40937 10.0625H1.18061C0.829104 10.0625 0.543823 10.3845 0.543823 10.7812C0.543823 11.178 0.829104 11.5 1.18061 11.5H3.09097V12.9375H1.499C0.972381 12.9375 0.543823 13.4212 0.543823 14.0156V16.1719C0.543823 16.7663 0.972381 17.25 1.499 17.25Z" fill="#3C4766"/>
<path d="M1.18061 7.1875H2.45419H3.72776C4.07927 7.1875 4.36455 6.8655 4.36455 6.46875C4.36455 6.072 4.07927 5.75 3.72776 5.75H3.09097V0.71875C3.09097 0.322 2.80569 0 2.45419 0H1.499C1.1475 0 0.862217 0.322 0.862217 0.71875C0.862217 1.1155 1.1475 1.4375 1.499 1.4375H1.8174V5.75H1.18061C0.829104 5.75 0.543823 6.072 0.543823 6.46875C0.543823 6.8655 0.829104 7.1875 1.18061 7.1875Z" fill="#3C4766"/>
<path d="M7.38923 5.03125H14.0755C15.0409 5.03125 15.8267 4.14467 15.8267 3.05469C15.8267 1.9647 15.0409 1.07812 14.0755 1.07812H7.38923C6.42386 1.07812 5.63806 1.9647 5.63806 3.05469C5.63806 4.14467 6.42386 5.03125 7.38923 5.03125ZM7.38923 2.51562H14.0755C14.3388 2.51562 14.5531 2.75748 14.5531 3.05469C14.5531 3.35189 14.3388 3.59375 14.0755 3.59375H7.38923C7.12592 3.59375 6.91164 3.35189 6.91164 3.05469C6.91164 2.75748 7.12592 2.51562 7.38923 2.51562Z" fill="#3C4766"/>
<path d="M14.0755 11.1406H7.38923C6.42386 11.1406 5.63806 12.0272 5.63806 13.1172C5.63806 14.2072 6.42386 15.0938 7.38923 15.0938H14.0755C15.0409 15.0938 15.8267 14.2072 15.8267 13.1172C15.8267 12.0272 15.0409 11.1406 14.0755 11.1406ZM14.0755 13.6562H7.38923C7.12592 13.6562 6.91164 13.4144 6.91164 13.1172C6.91164 12.82 7.12592 12.5781 7.38923 12.5781H14.0755C14.3388 12.5781 14.5531 12.82 14.5531 13.1172C14.5531 13.4144 14.3388 13.6562 14.0755 13.6562Z" fill="#3C4766"/>
</svg>
