<svg width="20" height="20" viewBox="0 0 20 20" fill="none" xmlns="http://www.w3.org/2000/svg">
<path d="M8.73691 6.35393C7.28691 7.19108 6.15657 8.57036 5.68954 10.3133C4.75548 13.7993 6.82451 17.3714 10.3105 18.3054C13.7964 19.2395 17.3743 17.1805 18.3083 13.6945C19.0966 10.7528 17.7427 7.76111 15.2098 6.33012L14.7703 7.97056C16.4346 9.10966 17.2825 11.2134 16.731 13.2719C16.0315 15.8824 13.3415 17.4355 10.731 16.736C8.12048 16.0365 6.5674 13.3465 7.26689 10.736C7.61769 9.42678 8.47464 8.40535 9.56252 7.78393L11.4216 11.0039L12.9009 5.4832L7.38014 4.00393L8.73691 6.35393Z" fill="#3C4766"/>
</svg>
