<svg width="21" height="14" viewBox="0 0 21 14" fill="none" xmlns="http://www.w3.org/2000/svg">
<rect x="0.75" y="0.75" width="19.0714" height="12.5" rx="6.25" stroke="#3C4766" stroke-width="1.5"/>
<path d="M2.63158 8.5V5.54H3.60758C4.21558 5.54 4.67958 5.72 4.67958 6.272C4.67958 6.544 4.53158 6.82 4.27958 6.912V6.928C4.59558 7.004 4.83158 7.232 4.83158 7.628C4.83158 8.224 4.33558 8.5 3.68758 8.5H2.63158ZM3.22358 6.744H3.56758C3.94358 6.744 4.10358 6.596 4.10358 6.356C4.10358 6.096 3.93158 5.996 3.57558 5.996H3.22358V6.744ZM3.22358 8.044H3.63558C4.03558 8.044 4.25558 7.9 4.25558 7.596C4.25558 7.308 4.04358 7.184 3.63558 7.184H3.22358V8.044ZM4.97423 8.5L5.92223 5.54H6.61823L7.56623 8.5H6.94623L6.52223 6.96C6.43423 6.652 6.35023 6.308 6.26623 5.992H6.25023C6.17023 6.312 6.08623 6.652 5.99823 6.96L5.57423 8.5H4.97423ZM5.56223 7.74V7.284H6.97023V7.74H5.56223ZM7.91673 8.5V5.54H8.51673L9.37673 7.12L9.67673 7.76H9.69673C9.66473 7.452 9.61673 7.056 9.61673 6.72V5.54H10.1807V8.5H9.57673L8.72073 6.916L8.42073 6.284H8.40073C8.42873 6.6 8.47673 6.972 8.47673 7.316V8.5H7.91673ZM10.9128 8.5V5.54H11.5128L12.3728 7.12L12.6728 7.76H12.6928C12.6608 7.452 12.6128 7.056 12.6128 6.72V5.54H13.1768V8.5H12.5728L11.7168 6.916L11.4168 6.284H11.3968C11.4248 6.6 11.4728 6.972 11.4728 7.316V8.5H10.9128ZM13.9089 8.5V5.54H15.7249V6.032H14.5009V6.716H15.5369V7.216H14.5009V8.004H15.7689V8.5H13.9089ZM16.3699 8.5V5.54H17.3979C18.0179 5.54 18.5099 5.756 18.5099 6.436C18.5099 7.096 18.0179 7.384 17.3979 7.384H16.9619V8.5H16.3699ZM16.9619 6.916H17.3419C17.7259 6.916 17.9339 6.752 17.9339 6.436C17.9339 6.12 17.7259 6.012 17.3419 6.012H16.9619V6.916ZM17.9779 8.5L17.2899 7.232L17.7019 6.86L18.6379 8.5H17.9779Z" fill="#3C4766"/>
</svg>
