<svg width="17" height="18" viewBox="0 0 17 18" fill="none" xmlns="http://www.w3.org/2000/svg">
<path d="M9.8199 2.81304L8.13021 4.7294C7.8132 5.08897 7.29916 5.08897 6.98216 4.7294C6.66513 4.36985 6.66512 3.78689 6.98216 3.42732L8.67185 1.51095C10.4481 -0.503637 13.4198 -0.503646 15.1961 1.5109L15.2729 1.59799C17.0492 3.61259 17.0493 6.98303 15.273 8.99762L13.5833 10.914C13.2663 11.2735 12.7522 11.2735 12.4352 10.914C12.1182 10.5545 12.1182 9.97146 12.4352 9.61192L14.1249 7.69554C15.2671 6.40008 15.2671 4.19566 14.1249 2.90017L14.0481 2.81308C12.9059 1.51761 10.9621 1.51756 9.8199 2.81304Z" fill="#3C4766"/>
<path d="M4.82775 7.08603C5.14478 7.44557 5.14477 8.02856 4.82774 8.3881L3.13806 10.3044C1.99583 11.5999 1.99583 13.8044 3.13806 15.0998L3.21486 15.1869C4.35712 16.4823 6.30085 16.4824 7.44304 15.1869L9.13274 13.2707C9.44975 12.911 9.96379 12.911 10.2808 13.2706C10.5978 13.6302 10.5978 14.2131 10.2808 14.5727L8.5911 16.4891C6.81482 18.5036 3.8431 18.5036 2.0668 16.4891L1.99 16.4019C0.213828 14.3873 0.213739 11.0169 1.99 9.00231L3.67968 7.08601C3.99671 6.72645 4.51072 6.72646 4.82775 7.08603Z" fill="#3C4766"/>
<path d="M11.3611 7.16215C11.6753 6.79944 11.6707 6.2165 11.351 5.86013C11.0311 5.50376 10.5172 5.50892 10.2029 5.87165L5.9019 10.8368C5.58769 11.1995 5.59224 11.7825 5.91206 12.1388C6.23189 12.4952 6.74588 12.49 7.06008 12.1273L11.3611 7.16215Z" fill="#3C4766"/>
</svg>
