<svg width="24" height="24" viewBox="0 0 25 24" fill="none" xmlns="http://www.w3.org/2000/svg">
<path d="M9.37651 11C11.6777 11 13.5432 9.20914 13.5432 7C13.5432 4.79086 11.6777 3 9.37651 3C7.07532 3 5.20984 4.79086 5.20984 7C5.20984 9.20914 7.07532 11 9.37651 11Z" stroke="#7C8A9F" stroke-width="1.5" stroke-linecap="round" stroke-linejoin="round"/>
<path d="M3.125 21V19C3.125 17.9391 3.56399 16.9217 4.34539 16.1716C5.12679 15.4214 6.1866 15 7.29167 15H11.4583C12.5634 15 13.6232 15.4214 14.4046 16.1716C15.186 16.9217 15.625 17.9391 15.625 19V21" stroke="#7C8A9F" stroke-width="1.5" stroke-linecap="round" stroke-linejoin="round"/>
<path d="M16.6656 11L18.749 13L22.9156 9" stroke="#7C8A9F" stroke-width="1.5" stroke-linecap="round" stroke-linejoin="round"/>
</svg>
