<svg width="54" height="54" viewBox="0 0 54 54" fill="none" xmlns="http://www.w3.org/2000/svg">
<g clip-path="url(#clip0_748_28314)">
<path d="M13.7109 9.07031C14.2934 9.07031 14.7656 8.59811 14.7656 8.01562C14.7656 7.43314 14.2934 6.96094 13.7109 6.96094C13.1284 6.96094 12.6562 7.43314 12.6562 8.01562C12.6562 8.59811 13.1284 9.07031 13.7109 9.07031Z" fill="#3C4766"/>
<path d="M9.49219 9.07031C10.0747 9.07031 10.5469 8.59811 10.5469 8.01562C10.5469 7.43314 10.0747 6.96094 9.49219 6.96094C8.9097 6.96094 8.4375 7.43314 8.4375 8.01562C8.4375 8.59811 8.9097 9.07031 9.49219 9.07031Z" fill="#3C4766"/>
<path d="M5.27344 9.07031C5.85593 9.07031 6.32812 8.59811 6.32812 8.01562C6.32812 7.43314 5.85593 6.96094 5.27344 6.96094C4.69095 6.96094 4.21875 7.43314 4.21875 8.01562C4.21875 8.59811 4.69095 9.07031 5.27344 9.07031Z" fill="#3C4766"/>
<path d="M5.27344 16.0312H21.3047C21.8872 16.0312 22.3594 15.559 22.3594 14.9766C22.3594 14.3942 21.8872 13.9219 21.3047 13.9219H5.27344C4.69093 13.9219 4.21875 14.3942 4.21875 14.9766C4.21875 15.559 4.69093 16.0312 5.27344 16.0312Z" fill="#3C4766"/>
<path d="M5.27344 20.25H21.3047C21.8872 20.25 22.3594 19.7777 22.3594 19.1953C22.3594 18.6129 21.8872 18.1406 21.3047 18.1406H5.27344C4.69093 18.1406 4.21875 18.6129 4.21875 19.1953C4.21875 19.7777 4.69093 20.25 5.27344 20.25Z" fill="#3C4766"/>
<path d="M5.27344 30.7969H21.3047C21.8872 30.7969 22.3594 30.3246 22.3594 29.7422C22.3594 29.1598 21.8872 28.6875 21.3047 28.6875H5.27344C4.69093 28.6875 4.21875 29.1598 4.21875 29.7422C4.21875 30.3246 4.69093 30.7969 5.27344 30.7969Z" fill="#3C4766"/>
<path d="M5.27344 35.0156H21.3047C21.8872 35.0156 22.3594 34.5433 22.3594 33.9609C22.3594 33.3785 21.8872 32.9062 21.3047 32.9062H5.27344C4.69093 32.9062 4.21875 33.3785 4.21875 33.9609C4.21875 34.5433 4.69093 35.0156 5.27344 35.0156Z" fill="#3C4766"/>
<path d="M41.3438 36.8694V1.05469C41.3438 0.472289 40.8715 0 40.2891 0H1.05469C0.472184 0 0 0.472289 0 1.05469V52.9453C0 53.5277 0.472184 54 1.05469 54H15.9258C16.5083 54 16.9805 53.5277 16.9805 52.9453C16.9805 52.3629 16.5083 51.8906 15.9258 51.8906H2.10938V2.10938H39.2344V34.7601L37.2643 32.79C37.1554 32.6811 37.0234 32.5986 36.8788 32.546C37.0412 31.9819 37.125 31.3973 37.125 30.7969C37.125 27.3075 34.2862 24.4688 30.7969 24.4688C27.3075 24.4688 24.4688 27.3075 24.4688 30.7969C24.4688 34.2862 27.3075 37.125 30.7969 37.125C31.3973 37.125 31.9819 37.0412 32.546 36.8789C32.5986 37.0235 32.6811 37.1554 32.79 37.2644L39.2344 43.7087V51.8906H25.418C24.8355 51.8906 24.3633 52.3629 24.3633 52.9453C24.3633 53.5277 24.8355 54 25.418 54H40.2891C40.8715 54 41.3438 53.5277 41.3438 52.9453V45.8181L49.2168 53.6911C49.6289 54.103 50.2964 54.1028 50.7084 53.6911L53.6911 50.7084C54.1029 50.2966 54.1029 49.6287 53.6911 49.2168L41.3438 36.8694ZM32.3782 31.0441C31.9994 30.9177 31.5815 31.0161 31.2989 31.2987C31.0164 31.5811 30.9177 31.999 31.044 32.378L31.8765 34.8754C31.5274 34.9675 31.1669 35.0156 30.7969 35.0156C28.4707 35.0156 26.5781 33.1231 26.5781 30.7969C26.5781 28.4707 28.4707 26.5781 30.7969 26.5781C33.1231 26.5781 35.0156 28.4707 35.0156 30.7969C35.0156 31.1668 34.9675 31.5274 34.8754 31.8765L32.3782 31.0441ZM33.7119 33.7123L35.949 34.4577C37.2689 35.7775 45.8519 44.3607 46.9787 45.4875L45.4876 46.9787L34.4575 35.9486L33.7119 33.7123ZM49.9627 51.4538L46.9793 48.4704L48.4704 46.9793L51.4538 49.9627L49.9627 51.4538Z" fill="#3C4766"/>
<path d="M36.6553 9.88038C36.1707 9.55733 35.5159 9.68811 35.1928 10.1728L34.6392 11.0033C33.5463 10.1665 32.2016 9.7032 30.7969 9.7032C27.3075 9.7032 24.4688 12.542 24.4688 16.0313C24.4688 19.5206 27.3075 22.3594 30.7969 22.3594C34.2862 22.3594 37.125 19.5206 37.125 16.0313C37.125 14.8089 36.7687 13.6157 36.1111 12.598L36.9478 11.3429C37.271 10.8583 37.1401 10.2034 36.6553 9.88038ZM30.7969 20.2501C28.4707 20.2501 26.5781 18.3575 26.5781 16.0313C26.5781 13.7051 28.4707 11.8126 30.7969 11.8126C31.7796 11.8126 32.7176 12.1538 33.4645 12.7653L31.6876 15.4306L30.488 14.2309C30.076 13.8191 29.4084 13.8191 28.9963 14.2309C28.5845 14.6427 28.5845 15.3105 28.9963 15.7225L31.1057 17.8319C31.5765 18.3027 32.3601 18.2244 32.7291 17.6711L34.7684 14.6121C34.9303 15.0645 35.0155 15.5445 35.0155 16.0315C35.0156 18.3575 33.1231 20.2501 30.7969 20.2501Z" fill="#3C4766"/>
<path d="M5.27344 43.4531H33.9609C34.5433 43.4531 35.0156 42.9808 35.0156 42.3984C35.0156 41.816 34.5433 41.3438 33.9609 41.3438H5.27344C4.69093 41.3438 4.21875 41.816 4.21875 42.3984C4.21875 42.9808 4.69093 43.4531 5.27344 43.4531Z" fill="#3C4766"/>
<path d="M5.27344 47.6719H36.0703C36.6527 47.6719 37.125 47.1996 37.125 46.6172C37.125 46.0348 36.6527 45.5625 36.0703 45.5625H5.27344C4.69093 45.5625 4.21875 46.0348 4.21875 46.6172C4.21875 47.1996 4.69093 47.6719 5.27344 47.6719Z" fill="#3C4766"/>
<path d="M20.6719 54C21.2544 54 21.7266 53.5278 21.7266 52.9453C21.7266 52.3628 21.2544 51.8906 20.6719 51.8906C20.0894 51.8906 19.6172 52.3628 19.6172 52.9453C19.6172 53.5278 20.0894 54 20.6719 54Z" fill="#3C4766"/>
</g>
<defs>
<clipPath id="clip0_748_28314">
<rect width="54" height="54" fill="white"/>
</clipPath>
</defs>
</svg>
