<svg width="18" height="18" viewBox="0 0 18 18" fill="none" xmlns="http://www.w3.org/2000/svg">
<path d="M13.5 15H4.5V12.75H3V15C3 15.825 3.675 16.5 4.5 16.5H13.5C14.325 16.5 15 15.825 15 15V12.75H13.5V15Z" fill="#3C4766"/>
<path d="M4.5 3H9.75V6.75H13.5V8.25H15V6L10.5 1.5H4.5C3.675 1.5 3 2.175 3 3V8.25H4.5V3Z" fill="#3C4766"/>
<path d="M11.25 9.75H6.75V11.25H11.25V9.75Z" fill="#3C4766"/>
<path d="M17.25 9.75H12.75V11.25H17.25V9.75Z" fill="#3C4766"/>
<path d="M5.25 9.75H0.75V11.25H5.25V9.75Z" fill="#3C4766"/>
</svg>
