<svg width="20" height="16" viewBox="0 0 20 16" fill="none" xmlns="http://www.w3.org/2000/svg">
<path d="M15.6639 12C16.1835 12 16.6052 11.552 16.6052 11C16.6052 10.448 16.1835 10 15.6639 10H2.48516C1.96554 10 1.54382 10.448 1.54382 11C1.54382 11.552 1.96554 12 2.48516 12H15.6639Z" fill="#3C4766"/>
<path d="M8.57617 16C9.09579 16 9.51751 15.552 9.51751 15C9.51751 14.448 9.09579 14 8.57617 14H2.48516C1.96554 14 1.54382 14.448 1.54382 15C1.54382 15.552 1.96554 16 2.48516 16H8.57617Z" fill="#3C4766"/>
<rect x="1.23242" y="0.75" width="17.5" height="6.5" rx="3.25" stroke="#3C4766" stroke-width="1.5"/>
</svg>
