<svg width="17" height="21" viewBox="0 0 17 21" fill="none" xmlns="http://www.w3.org/2000/svg">
<path fill-rule="evenodd" clip-rule="evenodd" d="M16.279 1.93991V19.6142C16.2789 19.7411 16.2443 19.8656 16.1787 19.9743C16.1131 20.083 16.0192 20.1717 15.9069 20.2309C15.7947 20.2903 15.6684 20.3178 15.5417 20.3106C15.4149 20.3034 15.2926 20.2617 15.1878 20.19L12.8669 18.6058L10.6725 20.1807C10.4092 20.3705 10.0502 20.3528 9.80644 20.1389L8.13948 18.6812L6.47251 20.1389C6.22879 20.3528 5.86973 20.3705 5.60649 20.1807L3.41207 18.6058L1.09117 20.19C0.986407 20.2617 0.864057 20.3034 0.73733 20.3106C0.610602 20.3178 0.484312 20.2902 0.37209 20.2309C0.259838 20.1717 0.16587 20.083 0.100304 19.9743C0.0347377 19.8656 5.83167e-05 19.7411 0 19.6142V1.93991C3.64795e-05 1.04131 0.728385 0.312012 1.62793 0.312012H14.6511C15.5506 0.312012 16.279 1.04131 16.279 1.93991ZM14.8837 1.93991C14.8836 1.87824 14.8591 1.8191 14.8155 1.77549C14.7719 1.73188 14.7128 1.70737 14.6511 1.70735H1.62793C1.56626 1.70737 1.50712 1.73188 1.46351 1.77549C1.4199 1.8191 1.3954 1.87824 1.39538 1.93991V18.2933L3.02885 17.178C3.147 17.0971 3.28718 17.0547 3.43032 17.0563C3.57346 17.058 3.71261 17.1037 3.82885 17.1873L5.97023 18.7249L7.67998 17.2291C7.80709 17.1176 7.97042 17.0561 8.13952 17.0561C8.30861 17.0561 8.47194 17.1176 8.59905 17.2291L10.3088 18.7249L12.4502 17.1873C12.5664 17.1037 12.7056 17.058 12.8487 17.0563C12.9919 17.0547 13.132 17.0971 13.2502 17.178L14.8837 18.2933V1.93991Z" fill="#3C4766"/>
<path fill-rule="evenodd" clip-rule="evenodd" d="M4.41849 5.42805C4.03338 5.42805 3.72083 5.1155 3.72083 4.73038C3.72083 4.34527 4.03338 4.03271 4.41849 4.03271H11.8603C12.2454 4.03271 12.558 4.34527 12.558 4.73038C12.558 5.1155 12.2454 5.42805 11.8603 5.42805H4.41849ZM4.41849 9.14896C4.03338 9.14896 3.72083 8.8364 3.72083 8.45129C3.72083 8.06618 4.03338 7.75362 4.41849 7.75362H11.8603C12.2454 7.75362 12.558 8.06618 12.558 8.45129C12.558 8.8364 12.2454 9.14896 11.8603 9.14896H4.41849ZM4.41849 12.8699C4.03338 12.8699 3.72083 12.5573 3.72083 12.1722C3.72083 11.7871 4.03338 11.4745 4.41849 11.4745H8.1394C8.52451 11.4745 8.83707 11.7871 8.83707 12.1722C8.83707 12.5573 8.52451 12.8699 8.1394 12.8699H4.41849Z" fill="#3C4766"/>
</svg>
