<svg width="17" height="16" viewBox="0 0 17 16" fill="none" xmlns="http://www.w3.org/2000/svg">
<path d="M0.680921 15.5504H3.40461C3.78047 15.5504 4.08553 15.228 4.08553 14.8308V11.9525C4.08553 11.5553 3.78047 11.2329 3.40461 11.2329H0.680921C0.305053 11.2329 0 11.5553 0 11.9525V14.8308C0 15.228 0.305053 15.5504 0.680921 15.5504ZM1.36184 12.6721H2.72368V14.1112H1.36184V12.6721Z" fill="#3C4766"/>
<path d="M6.68092 15.5504H9.40461C9.78047 15.5504 10.0855 15.228 10.0855 14.8308V11.9525C10.0855 11.5553 9.78047 11.2329 9.40461 11.2329H6.68092C6.30505 11.2329 6 11.5553 6 11.9525V14.8308C6 15.228 6.30505 15.5504 6.68092 15.5504ZM7.36184 12.6721H8.72368V14.1112H7.36184V12.6721Z" fill="#3C4766"/>
<path d="M12.6809 15.5504H15.4046C15.7805 15.5504 16.0855 15.228 16.0855 14.8308V11.9525C16.0855 11.5553 15.7805 11.2329 15.4046 11.2329H12.6809C12.3051 11.2329 12 11.5553 12 11.9525V14.8308C12 15.228 12.3051 15.5504 12.6809 15.5504ZM13.3618 12.6721H14.7237V14.1112H13.3618V12.6721Z" fill="#3C4766"/>
<path d="M9.6003 7.69449H11.9835C12.3594 7.69449 12.6644 7.34977 12.6644 6.92504C12.6644 6.5003 12.3594 6.15559 11.9835 6.15559H9.94076V4.61669H11.6431C12.2062 4.61669 12.6644 4.09885 12.6644 3.46252V1.15417C12.6644 0.517839 12.2062 0 11.6431 0H9.25984C8.88397 0 8.57892 0.344713 8.57892 0.769449C8.57892 1.19418 8.88397 1.5389 9.25984 1.5389H11.3026V3.0778H9.6003C9.03718 3.0778 8.57892 3.59563 8.57892 4.23197V6.54031C8.57892 7.17665 9.03718 7.69449 9.6003 7.69449Z" fill="#3C4766"/>
<path d="M3.68092 7.69449H5.04276H6.40461C6.78047 7.69449 7.08553 7.34977 7.08553 6.92504C7.08553 6.5003 6.78047 6.15559 6.40461 6.15559H5.72368V0.769449C5.72368 0.344713 5.41863 0 5.04276 0H4.02138C3.64551 0 3.34046 0.344713 3.34046 0.769449C3.34046 1.19418 3.64551 1.5389 4.02138 1.5389H4.36184V6.15559H3.68092C3.30505 6.15559 3 6.5003 3 6.92504C3 7.34977 3.30505 7.69449 3.68092 7.69449Z" fill="#3C4766"/>
</svg>
