<svg width="19" height="21" viewBox="0 0 19 21" fill="none" xmlns="http://www.w3.org/2000/svg">
<path d="M15.4846 13.5761V9.7761C15.4846 6.95353 13.6782 4.49226 11.1911 3.57291C11.2201 3.42773 11.2362 3.27938 11.2362 3.13096C11.2363 1.91485 10.2492 0.927734 9.03306 0.927734C7.81694 0.927734 6.82983 1.91485 6.82983 3.13096C6.82983 3.27614 6.84594 3.42127 6.87174 3.55999C6.01693 3.86322 5.2266 4.34385 4.55242 4.99546C3.28146 6.22127 2.58148 7.86964 2.58148 9.63739V13.5761C2.58148 13.7148 2.46857 13.831 2.32662 13.831C1.13631 13.831 0.120156 14.7277 0.0104762 15.8697C-0.0508279 16.5052 0.158888 17.1374 0.587909 17.6084C1.0137 18.0761 1.6234 18.3471 2.25885 18.3471H6.14918C6.31047 19.7955 7.54275 20.9277 9.03306 20.9277C10.5234 20.9277 11.7557 19.7955 11.9169 18.3471H15.8073C16.4428 18.3471 17.0524 18.0761 17.4782 17.6084C17.904 17.1374 18.1137 16.5052 18.0556 15.8697C17.946 14.7277 16.9266 13.831 15.7395 13.831C15.706 13.8311 15.6728 13.8247 15.6417 13.8119C15.6107 13.7992 15.5826 13.7804 15.5589 13.7567C15.5352 13.733 15.5164 13.7049 15.5036 13.6739C15.4909 13.6428 15.4845 13.6096 15.4846 13.5761ZM9.03306 2.21803C9.53626 2.21803 9.94594 2.62771 9.94594 3.13091C9.94594 3.17282 9.93948 3.21155 9.93301 3.25346C9.71365 3.2212 9.49106 3.19863 9.26847 3.19216C8.88459 3.17923 8.50718 3.20509 8.133 3.2567C8.12653 3.21479 8.12007 3.17605 8.12007 3.13414C8.12018 2.62771 8.52986 2.21803 9.03306 2.21803ZM9.03306 19.6373C8.25566 19.6373 7.60405 19.0825 7.4524 18.347H10.6137C10.4621 19.0825 9.81051 19.6373 9.03306 19.6373ZM16.7718 15.9922C16.7976 16.2696 16.7105 16.5374 16.5266 16.7406C16.3363 16.9438 16.0846 17.0567 15.8073 17.0567H2.2589C1.98147 17.0567 1.7299 16.9438 1.54276 16.7406C1.35566 16.5374 1.26856 16.2696 1.29436 15.9922C1.3395 15.5051 1.79438 15.1212 2.32662 15.1212C3.17825 15.1212 3.87177 14.4277 3.87177 13.5761V9.63739C3.87177 8.22448 4.43304 6.90515 5.44919 5.9245C6.42015 4.98582 7.68469 4.4761 9.03306 4.4761C9.0976 4.4761 9.15885 4.4761 9.22338 4.47933C11.9621 4.57608 14.1943 6.95353 14.1943 9.7761V13.5761C14.1943 14.4277 14.8879 15.1212 15.7395 15.1212C16.2717 15.1212 16.7234 15.5051 16.7718 15.9922Z" fill="#3C4766"/>
</svg>
