<svg width="16" height="16" viewBox="0 0 16 16" fill="none" xmlns="http://www.w3.org/2000/svg">
<path d="M15.8391 4.2282L11.7723 0.161569C11.5569 -0.0538563 11.2087 -0.0538563 10.9933 0.161569L0.161574 10.9929C-0.0538581 11.2083 -0.0538581 11.5565 0.161574 11.7719L4.22724 15.8386C4.33083 15.9421 4.47023 16 4.61679 16C4.76335 16 4.9033 15.9421 5.00633 15.8386L15.8386 5.00781C15.9421 4.90423 16 4.76428 16 4.61828C16 4.47228 15.9421 4.33178 15.8391 4.2282ZM13.7482 5.54003L12.104 3.89818C11.8886 3.6833 11.5398 3.68275 11.3244 3.89873C11.1095 4.11415 11.1095 4.46291 11.3249 4.67778L12.9691 6.31964L11.9294 7.3593L10.9652 6.39457C10.7497 6.1786 10.4015 6.17915 10.1861 6.39402C9.97064 6.6089 9.97064 6.95765 10.1861 7.17308L11.1503 8.13836L10.1111 9.17747L8.46757 7.53396C8.25214 7.31853 7.90392 7.31853 7.68849 7.53396C7.47306 7.74938 7.47306 8.09759 7.68849 8.31301L9.33151 9.95653L8.29291 10.9951L7.3265 10.0304C7.11107 9.81548 6.76285 9.81493 6.54741 10.0309C6.33198 10.2463 6.33198 10.5951 6.54741 10.81L7.51328 11.7747L6.47358 12.8138L4.83112 11.1714C4.61568 10.956 4.26747 10.956 4.05203 11.1714C3.8366 11.3868 3.8366 11.735 4.05203 11.9504L5.6945 13.5929L4.61679 14.6705L1.3302 11.383L11.3828 1.3307L14.6705 4.61828L13.7482 5.54003Z" fill="#3C4766"/>
</svg>
