<svg width="20" height="20" viewBox="0 0 20 20" fill="none" xmlns="http://www.w3.org/2000/svg">
<path d="M17.2728 5.20766C18.086 6.53876 18.5547 8.10329 18.5547 9.77734C18.5547 14.6249 14.6249 18.5547 9.77734 18.5547C4.92972 18.5547 1 14.6249 1 9.77734C1 4.92976 4.92972 0.999999 9.77734 0.999999C11.4514 0.999999 13.0159 1.46866 14.347 2.2819" stroke="#3C4766" stroke-width="1.5" stroke-miterlimit="10" stroke-linecap="round" stroke-linejoin="round"/>
<path d="M14.8994 9.77744C14.8994 12.6062 12.6062 14.8994 9.77738 14.8994C6.94859 14.8994 4.6554 12.6062 4.6554 9.77744C4.6554 6.94864 6.94859 4.65545 9.77738 4.65545" stroke="#3C4766" stroke-width="1.5" stroke-miterlimit="10" stroke-linecap="round" stroke-linejoin="round"/>
<path d="M12.7031 6.85155L9.77734 9.77734" stroke="#3C4766" stroke-width="1.5" stroke-miterlimit="10" stroke-linecap="round" stroke-linejoin="round"/>
<path d="M15.629 1.00018L12.7032 3.92597V6.85173H15.629L18.5548 3.92597H15.629V1.00018Z" stroke="#3C4766" stroke-width="1.5" stroke-miterlimit="10" stroke-linecap="round" stroke-linejoin="round"/>
</svg>
