<svg width="50" height="45" viewBox="0 0 50 45" fill="none" xmlns="http://www.w3.org/2000/svg">
<path d="M48.5352 5.24085C48.5352 4.3253 48.2056 3.44766 47.6173 2.80045C47.0289 2.15237 46.2287 1.78907 45.3972 1.78907H4.60283C3.77129 1.78907 2.97109 2.15237 2.38271 2.80045C1.79443 3.44766 1.46484 4.3253 1.46484 5.24085V39.7592C1.46484 40.6747 1.79443 41.5523 2.38271 42.1996C2.97109 42.8476 3.77129 43.2109 4.60283 43.2109H45.3972C46.2287 43.2109 47.0289 42.8476 47.6173 42.1996C48.2056 41.5523 48.5352 40.6747 48.5352 39.7592V5.24085Z" stroke="#CBD5E1" stroke-width="3" stroke-miterlimit="10" stroke-linecap="round" stroke-linejoin="round"/>
<path d="M4.60278 43.2109L20.2929 25.9519L26.569 32.8556L39.121 19.0481L48.5351 29.4037" stroke="#CBD5E1" stroke-width="3" stroke-miterlimit="10" stroke-linecap="round" stroke-linejoin="round"/>
<path d="M12.448 8.69249C15.0448 8.69249 17.155 11.013 17.155 13.8702C17.155 16.7274 15.0448 19.0479 12.448 19.0479C9.85122 19.0479 7.74097 16.7274 7.74097 13.8702C7.74097 11.013 9.85122 8.69249 12.448 8.69249Z" stroke="#CBD5E1" stroke-width="3" stroke-miterlimit="10" stroke-linecap="round" stroke-linejoin="round"/>
</svg>
