<svg width="16" height="16" viewBox="0 0 16 16" fill="none" xmlns="http://www.w3.org/2000/svg">
<path fill-rule="evenodd" clip-rule="evenodd" d="M7.07744 15.989C3.0937 15.5304 0 12.1379 0 8.0209C0 3.59108 3.58172 0 8 0C12.4182 0 16 3.59108 16 8.0209C16 12.1569 13.3738 11.8168 11.1308 11.5263C9.83712 11.3587 8.67088 11.2077 8.20952 11.9415C7.89392 12.4433 8.23504 13.0691 8.65344 13.4886C9.17624 14.0127 9.17624 14.8625 8.65344 15.3866C8.23504 15.8061 7.66528 16.0567 7.07744 15.989ZM7.268 4.01026C7.268 4.67472 6.73072 5.21339 6.068 5.21339C5.40526 5.21339 4.868 4.67472 4.868 4.01026C4.868 3.34578 5.40526 2.80712 6.068 2.80712C6.73072 2.80712 7.268 3.34578 7.268 4.01026ZM3.6 8.82299C4.26274 8.82299 4.8 8.2843 4.8 7.61985C4.8 6.9554 4.26274 6.4167 3.6 6.4167C2.93726 6.4167 2.4 6.9554 2.4 7.61985C2.4 8.2843 2.93726 8.82299 3.6 8.82299ZM12.4 8.82299C13.0627 8.82299 13.6 8.2843 13.6 7.61985C13.6 6.9554 13.0627 6.4167 12.4 6.4167C11.7373 6.4167 11.2 6.9554 11.2 7.61985C11.2 8.2843 11.7373 8.82299 12.4 8.82299ZM10 5.21357C10.6627 5.21357 11.2 4.67491 11.2 4.01043C11.2 3.34596 10.6627 2.8073 10 2.8073C9.33728 2.8073 8.8 3.34596 8.8 4.01043C8.8 4.67491 9.33728 5.21357 10 5.21357Z" fill="#3C4766"/>
</svg>
