<svg width="21" height="14" viewBox="0 0 21 14" fill="none" xmlns="http://www.w3.org/2000/svg">
<rect x="0.75" y="0.75" width="19.0714" height="12.5" rx="6.25" stroke="#3C4766" stroke-width="1.5"/>
<path d="M4.55345 8.5V5.54H5.14545V8.5H4.55345ZM5.87377 8.5V5.54H6.47377L7.33377 7.12L7.63377 7.76H7.65377C7.62177 7.452 7.57377 7.056 7.57377 6.72V5.54H8.13777V8.5H7.53377L6.67777 6.916L6.37777 6.284H6.35777C6.38577 6.6 6.43377 6.972 6.43377 7.316V8.5H5.87377ZM9.45786 8.5V6.032H8.62186V5.54H10.8859V6.032H10.0499V8.5H9.45786ZM11.3699 8.5V5.54H12.3979C13.0179 5.54 13.5099 5.756 13.5099 6.436C13.5099 7.096 13.0179 7.384 12.3979 7.384H11.9619V8.5H11.3699ZM11.9619 6.916H12.3419C12.7259 6.916 12.9339 6.752 12.9339 6.436C12.9339 6.12 12.7259 6.012 12.3419 6.012H11.9619V6.916ZM12.9779 8.5L12.2899 7.232L12.7019 6.86L13.6379 8.5H12.9779ZM15.2724 8.556C14.4844 8.556 13.9484 7.972 13.9484 7.008C13.9484 6.044 14.4844 5.488 15.2724 5.488C16.0564 5.488 16.5924 6.048 16.5924 7.008C16.5924 7.972 16.0564 8.556 15.2724 8.556ZM15.2724 8.044C15.7124 8.044 15.9924 7.64 15.9924 7.008C15.9924 6.376 15.7124 5.996 15.2724 5.996C14.8284 5.996 14.5524 6.376 14.5524 7.008C14.5524 7.64 14.8284 8.044 15.2724 8.044Z" fill="#3C4766"/>
</svg>
