<svg width="17" height="17" viewBox="0 0 17 17" fill="none" xmlns="http://www.w3.org/2000/svg">
<path d="M0.680921 4.31746H3.40461C3.78047 4.31746 4.08553 3.99509 4.08553 3.59789V0.719577C4.08553 0.322371 3.78047 0 3.40461 0H0.680921C0.305053 0 0 0.322371 0 0.719577V3.59789C0 3.99509 0.305053 4.31746 0.680921 4.31746ZM1.36184 1.43915H2.72368V2.87831H1.36184V1.43915Z" fill="#3C4766"/>
<path d="M0.680921 10.4339H3.40461C3.78047 10.4339 4.08553 10.1115 4.08553 9.71428V6.83597C4.08553 6.43876 3.78047 6.11639 3.40461 6.11639H0.680921C0.305053 6.11639 0 6.43876 0 6.83597V9.71428C0 10.1115 0.305053 10.4339 0.680921 10.4339ZM1.36184 7.55555H2.72368V8.9947H1.36184V7.55555Z" fill="#CBD5E1"/>
<path d="M0.680921 16.5503H3.40461C3.78047 16.5503 4.08553 16.2279 4.08553 15.8307V12.9524C4.08553 12.5552 3.78047 12.2328 3.40461 12.2328H0.680921C0.305053 12.2328 0 12.5552 0 12.9524V15.8307C0 16.2279 0.305053 16.5503 0.680921 16.5503ZM1.36184 13.672H2.72368V15.1111H1.36184V13.672Z" fill="#3C4766"/>
<path d="M6.68092 4.31746H9.40461C9.78047 4.31746 10.0855 3.99509 10.0855 3.59789V0.719577C10.0855 0.322371 9.78047 0 9.40461 0H6.68092C6.30505 0 6 0.322371 6 0.719577V3.59789C6 3.99509 6.30505 4.31746 6.68092 4.31746ZM7.36184 1.43915H8.72368V2.87831H7.36184V1.43915Z" fill="#3C4766"/>
<path d="M6.68092 10.4339H9.40461C9.78047 10.4339 10.0855 10.1115 10.0855 9.71428V6.83597C10.0855 6.43876 9.78047 6.11639 9.40461 6.11639H6.68092C6.30505 6.11639 6 6.43876 6 6.83597V9.71428C6 10.1115 6.30505 10.4339 6.68092 10.4339ZM7.36184 7.55555H8.72368V8.9947H7.36184V7.55555Z" fill="#3C4766"/>
<path d="M6.68092 16.5503H9.40461C9.78047 16.5503 10.0855 16.2279 10.0855 15.8307V12.9524C10.0855 12.5552 9.78047 12.2328 9.40461 12.2328H6.68092C6.30505 12.2328 6 12.5552 6 12.9524V15.8307C6 16.2279 6.30505 16.5503 6.68092 16.5503ZM7.36184 13.672H8.72368V15.1111H7.36184V13.672Z" fill="#3C4766"/>
<path d="M12.6809 4.31746H15.4046C15.7805 4.31746 16.0855 3.99509 16.0855 3.59789V0.719577C16.0855 0.322371 15.7805 0 15.4046 0H12.6809C12.3051 0 12 0.322371 12 0.719577V3.59789C12 3.99509 12.3051 4.31746 12.6809 4.31746ZM13.3618 1.43915H14.7237V2.87831H13.3618V1.43915Z" fill="#3C4766"/>
<path d="M12.6809 10.4339H15.4046C15.7805 10.4339 16.0855 10.1115 16.0855 9.71428V6.83597C16.0855 6.43876 15.7805 6.11639 15.4046 6.11639H12.6809C12.3051 6.11639 12 6.43876 12 6.83597V9.71428C12 10.1115 12.3051 10.4339 12.6809 10.4339ZM13.3618 7.55555H14.7237V8.9947H13.3618V7.55555Z" fill="#3C4766"/>
<path d="M12.6809 16.5503H15.4046C15.7805 16.5503 16.0855 16.2279 16.0855 15.8307V12.9524C16.0855 12.5552 15.7805 12.2328 15.4046 12.2328H12.6809C12.3051 12.2328 12 12.5552 12 12.9524V15.8307C12 16.2279 12.3051 16.5503 12.6809 16.5503ZM13.3618 13.672H14.7237V15.1111H13.3618V13.672Z" fill="#3C4766"/>
</svg>
