<svg width="16" height="18" viewBox="0 0 16 18" fill="none" xmlns="http://www.w3.org/2000/svg">
<path d="M15.1899 0C14.8384 0 14.5531 0.322 14.5531 0.71875V5.03125H1.8174V0.71875C1.8174 0.322 1.53212 0 1.18061 0C0.829104 0 0.543823 0.322 0.543823 0.71875V5.03125C0.543823 5.82403 1.11502 6.46875 1.8174 6.46875H14.5531C15.2555 6.46875 15.8267 5.82403 15.8267 5.03125V0.71875C15.8267 0.322 15.5414 0 15.1899 0Z" fill="#3C4766"/>
<path d="M14.5531 10.7812H1.8174C1.11502 10.7812 0.543823 11.426 0.543823 12.2188V16.5312C0.543823 16.928 0.829104 17.25 1.18061 17.25C1.53212 17.25 1.8174 16.928 1.8174 16.5312V12.2188H14.5531V16.5312C14.5531 16.928 14.8384 17.25 15.1899 17.25C15.5414 17.25 15.8267 16.928 15.8267 16.5312V12.2188C15.8267 11.426 15.2555 10.7812 14.5531 10.7812Z" fill="#3C4766"/>
<path d="M1.49897 9.34375H2.13576C2.48726 9.34375 2.77254 9.02175 2.77254 8.625C2.77254 8.22825 2.48726 7.90625 2.13576 7.90625H1.49897C1.14746 7.90625 0.862183 8.22825 0.862183 8.625C0.862183 9.02175 1.14746 9.34375 1.49897 9.34375Z" fill="#3C4766"/>
<path d="M5.31972 9.34375C5.67122 9.34375 5.9565 9.02175 5.9565 8.625C5.9565 8.22825 5.67122 7.90625 5.31972 7.90625H4.68293C4.33142 7.90625 4.04614 8.22825 4.04614 8.625C4.04614 9.02175 4.33142 9.34375 4.68293 9.34375H5.31972Z" fill="#3C4766"/>
<path d="M8.50368 9.34375C8.85518 9.34375 9.14046 9.02175 9.14046 8.625C9.14046 8.22825 8.85518 7.90625 8.50368 7.90625H7.86689C7.51538 7.90625 7.2301 8.22825 7.2301 8.625C7.2301 9.02175 7.51538 9.34375 7.86689 9.34375H8.50368Z" fill="#3C4766"/>
<path d="M11.6876 9.34375C12.0391 9.34375 12.3244 9.02175 12.3244 8.625C12.3244 8.22825 12.0391 7.90625 11.6876 7.90625H11.0508C10.6993 7.90625 10.4141 8.22825 10.4141 8.625C10.4141 9.02175 10.6993 9.34375 11.0508 9.34375H11.6876Z" fill="#3C4766"/>
<path d="M14.8716 9.34375C15.2231 9.34375 15.5084 9.02175 15.5084 8.625C15.5084 8.22825 15.2231 7.90625 14.8716 7.90625H14.2348C13.8833 7.90625 13.598 8.22825 13.598 8.625C13.598 9.02175 13.8833 9.34375 14.2348 9.34375H14.8716Z" fill="#3C4766"/>
</svg>
