<svg width="16" height="14" viewBox="0 0 16 14" fill="none" xmlns="http://www.w3.org/2000/svg">
<path d="M14.6639 2C15.1835 2 15.6052 1.552 15.6052 1C15.6052 0.448 15.1835 0 14.6639 0H1.48516C0.965543 0 0.543823 0.448 0.543823 1C0.543823 1.552 0.965543 2 1.48516 2H14.6639Z" fill="#3C4766"/>
<path d="M14.6639 6C15.1835 6 15.6052 5.552 15.6052 5C15.6052 4.448 15.1835 4 14.6639 4H1.48516C0.965543 4 0.543823 4.448 0.543823 5C0.543823 5.552 0.965543 6 1.48516 6H14.6639Z" fill="#3C4766"/>
<path d="M14.6639 10C15.1835 10 15.6052 9.552 15.6052 9C15.6052 8.448 15.1835 8 14.6639 8H1.48516C0.965543 8 0.543823 8.448 0.543823 9C0.543823 9.552 0.965543 10 1.48516 10H14.6639Z" fill="#3C4766"/>
<path d="M7.57617 14C8.09579 14 8.51751 13.552 8.51751 13C8.51751 12.448 8.09579 12 7.57617 12H1.48516C0.965543 12 0.543823 12.448 0.543823 13C0.543823 13.552 0.965543 14 1.48516 14H7.57617Z" fill="#3C4766"/>
</svg>
