<svg width="18" height="18" viewBox="0 0 18 18" fill="none" xmlns="http://www.w3.org/2000/svg">
<path d="M17.2555 6.80118C17.146 6.42084 16.8471 6.15157 16.4949 6.1156L11.6911 5.62334L9.79256 0.606473C9.65239 0.237889 9.33345 0 8.97846 0C8.62347 0 8.30441 0.237889 8.16513 0.606473L6.26663 5.62334L1.46204 6.1156C1.10984 6.15229 0.811601 6.42156 0.701396 6.80118C0.591825 7.18151 0.693016 7.59868 0.959388 7.86236L4.5907 11.4563L3.52001 16.779C3.44167 17.1704 3.57625 17.5751 3.86395 17.8098C4.0186 17.9367 4.20028 18 4.3826 18C4.53928 18 4.69608 17.953 4.83612 17.8584L8.97846 15.0628L13.12 17.8584C13.4239 18.0633 13.8059 18.0446 14.093 17.8098C14.3807 17.5751 14.5153 17.1704 14.4369 16.779L13.3662 11.4563L16.9975 7.86236C17.2638 7.59868 17.3651 7.18237 17.2555 6.80118Z" fill="#3C4766"/>
</svg>
