<svg width="16" height="16" viewBox="0 0 16 16" fill="none" xmlns="http://www.w3.org/2000/svg">
<path d="M10.9099 5.60662L9.84923 4.54596L7.72791 6.66728L5.60658 4.54596L4.54592 5.60662L6.66725 7.72794L4.54592 9.84926L5.60658 10.9099L7.72791 8.7886L9.84923 10.9099L10.9099 9.84926L8.78857 7.72794L10.9099 5.60662ZM13.0312 2.42464C10.1038 -0.502783 5.35203 -0.502783 2.4246 2.42464C-0.502818 5.35206 -0.502817 10.1038 2.4246 13.0312C5.35203 15.9587 10.1038 15.9587 13.0312 13.0312C15.9586 10.1038 15.9586 5.35206 13.0312 2.42464ZM3.48526 11.9706C1.14651 9.63182 1.14651 5.82405 3.48526 3.4853C5.82402 1.14654 9.63179 1.14654 11.9705 3.4853C14.3093 5.82405 14.3093 9.63182 11.9705 11.9706C9.63179 14.3093 5.82402 14.3093 3.48526 11.9706Z" fill="#3C4766"/>
</svg>
