<svg width="19" height="18" viewBox="0 0 19 18" fill="none" xmlns="http://www.w3.org/2000/svg">
<path d="M9.51749 0C4.63228 0 0.657837 4.03745 0.657837 9.00006C0.657837 13.9627 4.63228 18 9.51749 18C14.4027 18 18.3771 13.9627 18.3771 9.00006C18.3771 4.03745 14.4027 0 9.51749 0ZM9.51749 16.3636C5.52044 16.3636 2.26868 13.0604 2.26868 9.00006C2.26868 4.93975 5.52044 1.63636 9.51749 1.63636C13.5145 1.63636 16.7663 4.93975 16.7663 9.00006C16.7663 13.0604 13.5145 16.3636 9.51749 16.3636Z" fill="#3C4766"/>
<path d="M9.51741 3.81818C8.92537 3.81818 8.44373 4.30778 8.44373 4.90958C8.44373 5.51083 8.92537 5.99999 9.51741 5.99999C10.1094 5.99999 10.5911 5.51083 10.5911 4.90958C10.5911 4.30778 10.1094 3.81818 9.51741 3.81818Z" fill="#3C4766"/>
<path d="M9.51746 7.63638C9.07265 7.63638 8.71204 8.00271 8.71204 8.45456V13.3637C8.71204 13.8155 9.07265 14.1818 9.51746 14.1818C9.96227 14.1818 10.3229 13.8155 10.3229 13.3637V8.45456C10.3229 8.00271 9.96227 7.63638 9.51746 7.63638Z" fill="#3C4766"/>
</svg>
