<svg width="25" height="17" viewBox="0 0 25 17" fill="none" xmlns="http://www.w3.org/2000/svg">
<path d="M21.1564 7.15125C21.166 7.01362 21.1718 6.87603 21.1718 6.73647C21.1718 3.02178 18.149 0 14.4353 0C11.7542 0 9.33962 1.59846 8.27238 4.02746C7.92785 3.90909 7.57468 3.84941 7.21765 3.84941C5.49791 3.84941 4.07459 5.14474 3.87732 6.84906C1.64079 7.28888 0 9.24146 0 11.5482C0 14.2014 2.15857 16.36 4.81177 16.36H19.2471C21.8993 16.36 24.0588 14.2014 24.0588 11.5482C24.0588 9.63124 22.9069 7.90863 21.1564 7.15125Z" fill="#3C4766"/>
<path d="M10.1779 11.5227L7.80728 9.34601L7 10.082L10.1779 13L17 6.73602L16.1984 6L10.1779 11.5227Z" fill="white"/>
</svg>
