<svg width="19" height="16" viewBox="0 0 19 16" fill="none" xmlns="http://www.w3.org/2000/svg">
<path d="M15.6639 12C16.1835 12 16.6052 11.552 16.6052 11C16.6052 10.448 16.1835 10 15.6639 10H2.48516C1.96554 10 1.54382 10.448 1.54382 11C1.54382 11.552 1.96554 12 2.48516 12H15.6639Z" fill="#3C4766"/>
<path d="M15.6639 16C16.1835 16 16.6052 15.552 16.6052 15C16.6052 14.448 16.1835 14 15.6639 14H2.48516C1.96554 14 1.54382 14.448 1.54382 15C1.54382 15.552 1.96554 16 2.48516 16H15.6639Z" fill="#3C4766"/>
<rect x="0.75" y="0.75" width="17.5" height="6.5" rx="3.25" stroke="#3C4766" stroke-width="1.5"/>
<path d="M12.4034 3L14.1754 5L15.9473 3H12.4034Z" fill="#3C4766"/>
</svg>
