<svg width="16" height="16" viewBox="0 0 16 16" fill="none" xmlns="http://www.w3.org/2000/svg">
<path d="M14.9206 7.41803C14.739 7.41803 14.5649 7.49944 14.4365 7.64436C14.3081 7.78927 14.236 7.98582 14.236 8.19076V11.4463C14.2355 12.0172 14.0343 12.5647 13.6766 12.9684C13.3189 13.3721 12.8339 13.5992 12.328 13.5998H3.82105C3.31518 13.5992 2.83019 13.3721 2.47248 12.9684C2.11478 12.5647 1.91359 12.0172 1.91304 11.4463V8.19076C1.91304 7.98582 1.84091 7.78927 1.71252 7.64436C1.58414 7.49944 1.41 7.41803 1.22843 7.41803C1.04686 7.41803 0.87273 7.49944 0.744341 7.64436C0.615951 7.78927 0.543823 7.98582 0.543823 8.19076V11.4463C0.544729 12.427 0.890298 13.3673 1.5047 14.0607C2.1191 14.7542 2.95215 15.1443 3.82105 15.1453H12.328C13.1969 15.1443 14.0299 14.7542 14.6443 14.0607C15.2588 13.3673 15.6043 12.427 15.6052 11.4463V8.19076C15.6052 7.98582 15.5331 7.78927 15.4047 7.64436C15.2763 7.49944 15.1022 7.41803 14.9206 7.41803Z" fill="#3C4766"/>
<path d="M4.20389 5.0445L7.2322 2.23451V10.4727C7.2322 10.6463 7.30652 10.8128 7.43881 10.9356C7.5711 11.0583 7.75052 11.1273 7.93761 11.1273C8.12469 11.1273 8.30412 11.0583 8.43641 10.9356C8.5687 10.8128 8.64302 10.6463 8.64302 10.4727V2.23451L11.6713 5.0445C11.8044 5.16374 11.9826 5.22971 12.1675 5.22822C12.3525 5.22673 12.5294 5.15789 12.6602 5.03653C12.791 4.91517 12.8652 4.751 12.8668 4.57938C12.8684 4.40776 12.7973 4.24242 12.6688 4.11897L8.43633 0.191644C8.30405 0.0689346 8.12466 0 7.93761 0C7.75056 0 7.57117 0.0689346 7.43889 0.191644L3.20644 4.11897C3.07794 4.24242 3.00684 4.40776 3.00845 4.57938C3.01006 4.751 3.08424 4.91517 3.21503 5.03653C3.34582 5.15789 3.52275 5.22673 3.7077 5.22822C3.89266 5.22971 4.07084 5.16374 4.20389 5.0445Z" fill="#3C4766"/>
</svg>
