<svg width="22" height="12" viewBox="0 0 22 12" fill="none" xmlns="http://www.w3.org/2000/svg">
<rect x="1.46436" y="0.75" width="19.0714" height="10.5" rx="5.25" stroke="#3C4766" stroke-width="1.5"/>
<path d="M4.82807 8.07C4.32807 8.07 3.83807 7.88 3.47807 7.535L3.90307 7.025C4.16307 7.27 4.51807 7.43 4.84307 7.43C5.22807 7.43 5.42807 7.265 5.42807 7.01C5.42807 6.735 5.20307 6.645 4.87307 6.505L4.37807 6.295C4.00807 6.145 3.62807 5.84 3.62807 5.305C3.62807 4.7 4.16307 4.235 4.90807 4.235C5.33807 4.235 5.76807 4.405 6.06807 4.71L5.69807 5.175C5.45807 4.98 5.21307 4.87 4.90807 4.87C4.58307 4.87 4.37807 5.015 4.37807 5.255C4.37807 5.52 4.64307 5.62 4.95807 5.745L5.44307 5.945C5.88807 6.13 6.18307 6.42 6.18307 6.95C6.18307 7.555 5.67807 8.07 4.82807 8.07ZM7.43658 8V4.915H6.39158V4.3H9.22158V4.915H8.17658V8H7.43658ZM9.09768 8L10.2827 4.3H11.1527L12.3377 8H11.5627L11.0327 6.075C10.9227 5.69 10.8177 5.26 10.7127 4.865H10.6927C10.5927 5.265 10.4877 5.69 10.3777 6.075L9.84768 8H9.09768ZM9.83268 7.05V6.48H11.5927V7.05H9.83268ZM12.7758 8V4.3H14.0608C14.8358 4.3 15.4508 4.57 15.4508 5.42C15.4508 6.245 14.8358 6.605 14.0608 6.605H13.5158V8H12.7758ZM13.5158 6.02H13.9908C14.4708 6.02 14.7308 5.815 14.7308 5.42C14.7308 5.025 14.4708 4.89 13.9908 4.89H13.5158V6.02ZM14.7858 8L13.9258 6.415L14.4408 5.95L15.6108 8H14.7858ZM16.7969 8V4.915H15.7519V4.3H18.5819V4.915H17.5369V8H16.7969Z" fill="#3C4766"/>
</svg>
