<svg width="18" height="14" viewBox="0 0 18 14" fill="none" xmlns="http://www.w3.org/2000/svg">
<path d="M5.92881 7.1875H8.15757C8.50908 7.1875 8.79436 6.8655 8.79436 6.46875C8.79436 6.072 8.50908 5.75 8.15757 5.75H6.24721V4.3125H7.83918C8.3658 4.3125 8.79436 3.82878 8.79436 3.23438V1.07812C8.79436 0.483719 8.3658 0 7.83918 0H5.61042C5.25891 0 4.97363 0.322 4.97363 0.71875C4.97363 1.1155 5.25891 1.4375 5.61042 1.4375H7.52078V2.875H5.92881C5.40219 2.875 4.97363 3.35872 4.97363 3.95312V6.10938C4.97363 6.70378 5.40219 7.1875 5.92881 7.1875Z" fill="#3C4766"/>
<path d="M10.9262 7.1875H12.1998H13.4734C13.8249 7.1875 14.1102 6.8655 14.1102 6.46875C14.1102 6.072 13.8249 5.75 13.4734 5.75H12.8366V0.71875C12.8366 0.322 12.5513 0 12.1998 0H11.2446C10.8931 0 10.6078 0.322 10.6078 0.71875C10.6078 1.1155 10.8931 1.4375 11.2446 1.4375H11.563V5.75H10.9262C10.5747 5.75 10.2894 6.072 10.2894 6.46875C10.2894 6.8655 10.5747 7.1875 10.9262 7.1875Z" fill="#3C4766"/>
<path d="M15.9744 10H1.9466C1.17297 10 0.543823 10.6524 0.543823 11.4545V12.5455C0.543823 13.3476 1.17297 14 1.9466 14H15.9744C16.748 14 17.3772 13.3476 17.3772 12.5455V11.4545C17.3772 10.6524 16.748 10 15.9744 10ZM15.9744 12.5455H1.9466L1.94555 11.4545H1.9466H15.9744V12.5455Z" fill="#3C4766"/>
</svg>
