<svg width="18" height="16" viewBox="0 0 18 16" fill="none" xmlns="http://www.w3.org/2000/svg">
<path d="M11.0214 7.69449H13.4046C13.7804 7.69449 14.0855 7.34977 14.0855 6.92504C14.0855 6.5003 13.7804 6.15559 13.4046 6.15559H11.3618V4.61669H13.0641C13.6272 4.61669 14.0855 4.09885 14.0855 3.46252V1.15417C14.0855 0.517839 13.6272 0 13.0641 0H10.6809C10.305 0 9.99997 0.344713 9.99997 0.769449C9.99997 1.19418 10.305 1.5389 10.6809 1.5389H12.7237V3.0778H11.0214C10.4582 3.0778 9.99997 3.59563 9.99997 4.23197V6.54031C9.99997 7.17665 10.4582 7.69449 11.0214 7.69449Z" fill="#3C4766"/>
<path d="M5.10197 7.69449H6.46381H7.82566C8.20152 7.69449 8.50658 7.34977 8.50658 6.92504C8.50658 6.5003 8.20152 6.15559 7.82566 6.15559H7.14474V0.769449C7.14474 0.344713 6.83968 0 6.46381 0H5.44243C5.06656 0 4.76151 0.344713 4.76151 0.769449C4.76151 1.19418 5.06656 1.5389 5.44243 1.5389H5.78289V6.15559H5.10197C4.7261 6.15559 4.42105 6.5003 4.42105 6.92504C4.42105 7.34977 4.7261 7.69449 5.10197 7.69449Z" fill="#3C4766"/>
<path d="M16.5 11H1.5C0.67275 11 0 11.6984 0 12.5571V13.725C0 14.5838 0.67275 15.2821 1.5 15.2821H16.5C17.3272 15.2821 18 14.5838 18 13.725V12.5571C18 11.6984 17.3272 11 16.5 11ZM16.5 13.725H1.5L1.49887 12.5571H1.5H16.5V13.725Z" fill="#3C4766"/>
</svg>
