<svg width="8" height="16" viewBox="0 0 8 16" fill="none" xmlns="http://www.w3.org/2000/svg">
<path d="M2.09302 8.02326C2.09302 8.5814 1.60465 9.06977 1.04651 9.06977C0.488372 9.06977 0 8.5814 0 8.02326C0 7.46512 0.488372 6.97674 1.04651 6.97674C1.60465 6.97674 2.09302 7.46512 2.09302 8.02326ZM2.09302 4.53488C2.09302 5.09302 1.60465 5.5814 1.04651 5.5814C0.488372 5.5814 0 5.09302 0 4.53488C0 3.97674 0.488372 3.48837 1.04651 3.48837C1.60465 3.48837 2.09302 3.97674 2.09302 4.53488ZM2.09302 1.04651C2.09302 1.60465 1.60465 2.09302 1.04651 2.09302C0.488372 2.09302 0 1.60465 0 1.04651C0 0.488372 0.488372 0 1.04651 0C1.60465 0 2.09302 0.488372 2.09302 1.04651Z" fill="#3C4766"/>
<path d="M1.04651 12.5581C1.60465 12.5581 2.09302 12.0698 2.09302 11.5116C2.09302 10.9535 1.60465 10.4651 1.04651 10.4651C0.488372 10.4651 0 10.9535 0 11.5116C0 12.0698 0.488372 12.5581 1.04651 12.5581Z" fill="#3C4766"/>
<path d="M1.04651 16C1.60465 16 2.09302 15.5116 2.09302 14.9535C2.09302 14.3953 1.60465 13.907 1.04651 13.907C0.488372 13.907 0 14.3953 0 14.9535C0 15.5116 0.488372 16 1.04651 16Z" fill="#3C4766"/>
<path d="M7.09302 8.02326C7.09302 8.5814 6.60465 9.06977 6.04651 9.06977C5.48837 9.06977 5 8.5814 5 8.02326C5 7.46512 5.48837 6.97674 6.04651 6.97674C6.60465 6.97674 7.09302 7.46512 7.09302 8.02326ZM7.09302 4.53488C7.09302 5.09302 6.60465 5.5814 6.04651 5.5814C5.48837 5.5814 5 5.09302 5 4.53488C5 3.97674 5.48837 3.48837 6.04651 3.48837C6.60465 3.48837 7.09302 3.97674 7.09302 4.53488ZM7.09302 1.04651C7.09302 1.60465 6.60465 2.09302 6.04651 2.09302C5.48837 2.09302 5 1.60465 5 1.04651C5 0.488372 5.48837 0 6.04651 0C6.60465 0 7.09302 0.488372 7.09302 1.04651Z" fill="#3C4766"/>
<path d="M6.04651 12.5581C6.60465 12.5581 7.09302 12.0698 7.09302 11.5116C7.09302 10.9535 6.60465 10.4651 6.04651 10.4651C5.48837 10.4651 5 10.9535 5 11.5116C5 12.0698 5.48837 12.5581 6.04651 12.5581Z" fill="#3C4766"/>
<path d="M6.04651 16C6.60465 16 7.09302 15.5116 7.09302 14.9535C7.09302 14.3953 6.60465 13.907 6.04651 13.907C5.48837 13.907 5 14.3953 5 14.9535C5 15.5116 5.48837 16 6.04651 16Z" fill="#3C4766"/>
</svg>
