<svg width="21" height="12" viewBox="0 0 21 12" fill="none" xmlns="http://www.w3.org/2000/svg">
<rect x="0.75" y="0.75" width="19.0714" height="10.5" rx="5.25" stroke="#3C4766" stroke-width="1.5"/>
<path d="M5.54484 8V4.3H7.81484V4.915H6.28484V5.77H7.57984V6.395H6.28484V7.38H7.86984V8H5.54484ZM8.62102 8V4.3H9.37102L10.446 6.275L10.821 7.075H10.846C10.806 6.69 10.746 6.195 10.746 5.775V4.3H11.451V8H10.696L9.62602 6.02L9.25102 5.23H9.22602C9.26102 5.625 9.32102 6.09 9.32102 6.52V8H8.62102ZM12.3661 8V4.3H13.3811C14.5111 4.3 15.2061 4.885 15.2061 6.135C15.2061 7.38 14.5111 8 13.4211 8H12.3661ZM13.1061 7.405H13.3311C14.0261 7.405 14.4511 7.035 14.4511 6.135C14.4511 5.235 14.0261 4.89 13.3311 4.89H13.1061V7.405Z" fill="#3C4766"/>
</svg>
