<svg width="20" height="20" viewBox="0 0 20 20" fill="none" xmlns="http://www.w3.org/2000/svg">
<path d="M14.1667 5.83334H10.8333V7.50001H14.1667C15.5417 7.50001 16.6667 8.62501 16.6667 10C16.6667 11.375 15.5417 12.5 14.1667 12.5H10.8333V14.1667H14.1667C16.4667 14.1667 18.3333 12.3 18.3333 10C18.3333 7.70001 16.4667 5.83334 14.1667 5.83334ZM9.16666 12.5H5.83332C4.45832 12.5 3.33332 11.375 3.33332 10C3.33332 8.62501 4.45832 7.50001 5.83332 7.50001H9.16666V5.83334H5.83332C3.53332 5.83334 1.66666 7.70001 1.66666 10C1.66666 12.3 3.53332 14.1667 5.83332 14.1667H9.16666V12.5ZM6.66666 9.16668H13.3333V10.8333H6.66666V9.16668Z" fill="#3C4766"/>
</svg>
