<svg width="20" height="20" viewBox="0 0 20 20" fill="none" xmlns="http://www.w3.org/2000/svg">
<path d="M11.9917 9.22083L13.3333 10.5625V9.22083H11.9917ZM14.1667 5.8875H10.8333V7.47083H14.1667C15.5917 7.47083 16.75 8.62917 16.75 10.0542C16.75 11.1125 16.1083 12.0292 15.1917 12.4208L16.3583 13.5875C17.5417 12.8542 18.3333 11.5458 18.3333 10.0542C18.3333 7.75417 16.4667 5.8875 14.1667 5.8875ZM1.66666 3.6125L4.25832 6.20417C2.74166 6.82083 1.66666 8.3125 1.66666 10.0542C1.66666 12.3542 3.53332 14.2208 5.83332 14.2208H9.16666V12.6375H5.83332C4.40832 12.6375 3.24999 11.4792 3.24999 10.0542C3.24999 8.72917 4.25832 7.6375 5.54999 7.49583L7.27499 9.22083H6.66666V10.8875H8.94166L10.8333 12.7792V14.2208H12.275L15.6167 17.5625L16.7917 16.3875L2.84166 2.4375L1.66666 3.6125Z" fill="#3C4766"/>
</svg>
