<svg width="20" height="20" viewBox="0 0 20 20" fill="none" xmlns="http://www.w3.org/2000/svg">
<g clip-path="url(#clip0_103_754)">
<path d="M19.4083 12.3083L16.2417 10.9167C16.1333 10.8667 16.0083 10.8333 15.875 10.8333H15.3333V7.08333C15.3333 5.93333 14.4 5 13.25 5C12.1 5 11.1667 5.93333 11.1667 7.08333V13.875L9.60833 13.5417C9.45 13.5167 8.75833 13.4167 8.16667 14.0083L7 15.1833L11.2667 19.5083C11.575 19.825 12 20 12.4417 20H17.9C18.7167 20 19.4083 19.4167 19.5417 18.6083L20.3083 14.075C20.4333 13.3583 20.0667 12.6417 19.4083 12.3083ZM17.9 18.3333H12.4417L9.35833 15.1833L12.8333 15.925V7.08333C12.8333 6.85 13.0167 6.66667 13.25 6.66667C13.4833 6.66667 13.6667 6.85 13.6667 7.08333V12.2333H15.1333L18.6667 13.8L17.9 18.3333Z" fill="#3617CE"/>
<path d="M2.83016 4.83018L1.94628 3.9463L4.89256 1.00002L7.83883 3.9463L6.95495 4.83018L5.51717 3.3924L5.51717 10.3928L6.95495 8.95497L7.83883 9.83886L4.89256 12.7851L1.94628 9.83886L2.83016 8.95497L4.26794 10.3928L4.26795 3.3924L2.83016 4.83018Z" fill="#3617CE"/>
</g>
<defs>
<clipPath id="clip0_103_754">
<rect width="20" height="20" fill="white"/>
</clipPath>
</defs>
</svg>
