<svg width="24" height="24" viewBox="0 0 14 18" fill="none" xmlns="http://www.w3.org/2000/svg">
<path d="M14 11.0401C14 14.4857 10.9746 17.2889 7.25645 17.2889H4.86936C4.47378 17.2889 4.15322 16.9919 4.15322 16.6253V16.4041C4.15322 16.0375 4.47374 15.7405 4.86936 15.7405H7.25645C10.0534 15.7405 12.329 13.6318 12.329 11.0401C12.329 8.44844 10.0534 6.33974 7.25645 6.33974H2.8524L5.88547 9.15026C6.21124 9.45201 6.21124 9.94326 5.88547 10.245C5.56936 10.5377 5.01923 10.5373 4.70383 10.245L0.24476 6.11302C0.0869634 5.9668 0 5.77238 0 5.56553C0 5.35883 0.0869634 5.1643 0.24476 5.01816L4.70407 0.88598C5.01946 0.593508 5.57007 0.593508 5.88551 0.88598C6.21128 1.18766 6.21128 1.67898 5.88551 1.98062L2.85244 4.79136H7.25645C10.9746 4.79136 14 7.59464 14 11.0401Z" fill="#7C8A9F"/>
</svg>
