<svg width="20" height="20" viewBox="0 0 20 20" fill="none" xmlns="http://www.w3.org/2000/svg">
<path d="M11.6667 3.33332V7.49999C11.6667 8.43332 11.975 9.29999 12.5 9.99999H7.5C8.04167 9.28332 8.33333 8.41666 8.33333 7.49999V3.33332H11.6667ZM14.1667 1.66666H5.83333C5.375 1.66666 5 2.04166 5 2.49999C5 2.95832 5.375 3.33332 5.83333 3.33332H6.66667V7.49999C6.66667 8.88332 5.55 9.99999 4.16667 9.99999V11.6667H9.14167V17.5L9.975 18.3333L10.8083 17.5V11.6667H15.8333V9.99999C14.45 9.99999 13.3333 8.88332 13.3333 7.49999V3.33332H14.1667C14.625 3.33332 15 2.95832 15 2.49999C15 2.04166 14.625 1.66666 14.1667 1.66666Z" fill="#3C4766"/>
</svg>
