<svg width="20" height="20" viewBox="0 0 20 20" fill="none" xmlns="http://www.w3.org/2000/svg">
<path d="M10 1.66667C5.41669 1.66667 1.66669 5.41667 1.66669 10C1.66669 14.5833 5.41669 18.3333 10 18.3333C14.5834 18.3333 18.3334 14.5833 18.3334 10C18.3334 5.41667 14.5834 1.66667 10 1.66667ZM10 16.6667C6.32502 16.6667 3.33335 13.675 3.33335 10C3.33335 6.32501 6.32502 3.33334 10 3.33334C13.675 3.33334 16.6667 6.32501 16.6667 10C16.6667 13.675 13.675 16.6667 10 16.6667ZM10.4167 5.83334H9.16669V10.8333L13.5 13.5L14.1667 12.4167L10.4167 10.1667V5.83334Z" fill="#3C4766"/>
</svg>
