<svg width="20" height="20" viewBox="0 0 20 20" fill="none" xmlns="http://www.w3.org/2000/svg">
<path d="M8.33335 12.9167H13.2334C13.4584 12.6583 13.7917 12.5 14.1667 12.5C14.8584 12.5 15.4167 13.0583 15.4167 13.75C15.4167 14.4417 14.8584 15 14.1667 15C13.8 15 13.4667 14.8417 13.2334 14.5833H9.91669C9.53335 16.4833 7.85002 17.9167 5.83335 17.9167C3.53335 17.9167 1.66669 16.05 1.66669 13.75C1.66669 11.7333 3.10002 10.05 5.00002 9.66666V11.3917C4.03335 11.7333 3.33335 12.6667 3.33335 13.75C3.33335 15.125 4.45835 16.25 5.83335 16.25C7.20835 16.25 8.33335 15.125 8.33335 13.75V12.9167ZM10.4167 3.74999C11.7917 3.74999 12.9167 4.87499 12.9167 6.24999H14.5834C14.5834 3.94999 12.7167 2.08333 10.4167 2.08333C8.11669 2.08333 6.25002 3.94999 6.25002 6.24999C6.25002 7.44166 6.75002 8.50833 7.54169 9.26666L5.58335 12.5167C5.01669 12.6333 4.58335 13.1417 4.58335 13.75C4.58335 14.4417 5.14169 15 5.83335 15C6.52502 15 7.08335 14.4417 7.08335 13.75C7.08335 13.6167 7.06669 13.4917 7.02502 13.375L9.84169 8.68333C8.74169 8.42499 7.91669 7.43333 7.91669 6.24999C7.91669 4.87499 9.04169 3.74999 10.4167 3.74999ZM14.1667 11.25C13.6334 11.25 13.1417 11.4167 12.7334 11.7L10.1917 7.475C9.60835 7.375 9.16669 6.86666 9.16669 6.24999C9.16669 5.55833 9.72502 4.99999 10.4167 4.99999C11.1084 4.99999 11.6667 5.55833 11.6667 6.24999C11.6667 6.37499 11.65 6.49166 11.6167 6.60833L13.4417 9.64999C13.675 9.60833 13.9167 9.58333 14.1667 9.58333C16.4667 9.58333 18.3334 11.45 18.3334 13.75C18.3334 16.05 16.4667 17.9167 14.1667 17.9167C12.625 17.9167 11.275 17.075 10.5584 15.8333H12.7834C13.1834 16.1 13.6584 16.25 14.1667 16.25C15.5417 16.25 16.6667 15.125 16.6667 13.75C16.6667 12.375 15.5417 11.25 14.1667 11.25Z" fill="#3C4766"/>
</svg>
