<svg width="24" height="24" viewBox="0 0 24 24" fill="none" xmlns="http://www.w3.org/2000/svg">
<path d="M10.5395 14.625L8.40952 12.495L7.34952 13.555L10.5295 16.735L16.5295 10.735L15.4695 9.67503L10.5395 14.625ZM17.3365 1.90503L21.9435 5.75003L20.6635 7.28503L16.0535 3.44203L17.3365 1.90503ZM6.66252 1.90503L7.94452 3.44103L3.33652 7.28503L2.05652 5.74903L6.66252 1.90503ZM11.9995 4.09503C7.02952 4.09503 2.99952 8.12503 2.99952 13.095C2.99952 18.065 7.02952 22.095 11.9995 22.095C16.9695 22.095 20.9995 18.065 20.9995 13.095C20.9995 8.12503 16.9695 4.09503 11.9995 4.09503ZM11.9995 20.095C8.13952 20.095 4.99952 16.955 4.99952 13.095C4.99952 9.23503 8.13952 6.09503 11.9995 6.09503C15.8595 6.09503 18.9995 9.23503 18.9995 13.095C18.9995 16.955 15.8595 20.095 11.9995 20.095Z" fill="black"/>
</svg>
