<svg width="24" height="24" viewBox="0 0 24 24" fill="none" xmlns="http://www.w3.org/2000/svg">
<path d="M22.6559 18.9896L13.5759 9.90961C14.5059 7.5696 14.0259 4.80961 12.1359 2.90961C9.83586 0.609605 6.25586 0.399605 3.70586 2.2596L7.54586 6.10961L6.12586 7.51961L2.29586 3.6896C0.43586 6.2296 0.64586 9.8196 2.94586 12.1096C4.80586 13.9696 7.51586 14.4596 9.83586 13.5896L18.9459 22.6996C19.3359 23.0896 19.9659 23.0896 20.3559 22.6996L22.6559 20.3996C23.0559 20.0196 23.0559 19.3896 22.6559 18.9896ZM19.6559 20.5896L10.1959 11.1296C9.58586 11.5796 8.90586 11.8496 8.19586 11.9496C6.83586 12.1496 5.40586 11.7396 4.36586 10.6996C3.41586 9.75961 2.97586 8.49961 3.04586 7.25961L6.13586 10.3496L10.3759 6.10961L7.28586 3.0196C8.52586 2.9496 9.77586 3.3896 10.7259 4.3296C11.8059 5.40961 12.2159 6.89961 11.9659 8.28961C11.8459 8.99961 11.5459 9.65961 11.0859 10.2496L20.5359 19.6996L19.6559 20.5896Z" fill="black"/>
</svg>
