<svg width="24" height="24" viewBox="0 0 24 24" fill="none" xmlns="http://www.w3.org/2000/svg">
<path d="M13.025 5.07999C16.085 5.51999 18.505 7.93999 18.945 11H21.975C21.505 6.27999 17.745 2.51999 13.025 2.04999V5.07999ZM18.945 13C18.505 16.06 16.085 18.48 13.025 18.92V21.95C17.745 21.48 21.505 17.72 21.975 13H18.945ZM11.025 18.92C7.63502 18.43 5.02502 15.52 5.02502 12C5.02502 8.47999 7.63502 5.56999 11.025 5.07999V2.04999C5.97502 2.54999 2.02502 6.80999 2.02502 12C2.02502 17.19 5.97502 21.45 11.025 21.95V18.92Z" fill="black"/>
</svg>
