<svg width="24" height="24" viewBox="0 0 24 24" fill="none" xmlns="http://www.w3.org/2000/svg">
<path d="M14.845 11H21.975C21.505 6.27999 17.745 2.51999 13.025 2.04999V9.17999C13.875 9.48999 14.535 10.15 14.845 11ZM15.025 4.57999C17.025 5.39999 18.625 6.99999 19.445 8.99999H16.015C15.735 8.62999 15.395 8.28999 15.025 8.00999V4.57999ZM2.02502 12C2.02502 17.19 5.97502 21.45 11.025 21.95V14.82C9.86502 14.4 9.02502 13.3 9.02502 12C9.02502 10.7 9.86502 9.59999 11.025 9.17999V2.04999C5.97502 2.54999 2.02502 6.80999 2.02502 12ZM9.02502 4.57999V8.01999C7.79502 8.93999 7.02502 10.41 7.02502 12C7.02502 13.59 7.79502 15.06 9.02502 15.99V19.43C6.06502 18.24 4.02502 15.35 4.02502 12C4.02502 8.64999 6.06502 5.75999 9.02502 4.57999ZM13.025 14.82V21.95C17.745 21.48 21.505 17.72 21.975 13H14.845C14.535 13.85 13.875 14.51 13.025 14.82ZM15.025 15.99C15.395 15.71 15.735 15.38 16.015 15H19.445C18.625 17 17.025 18.6 15.025 19.42V15.99Z" fill="black"/>
</svg>
