<svg width="24" height="24" viewBox="0 0 24 24" fill="none" xmlns="http://www.w3.org/2000/svg">
<path d="M14.77 8.31001L15.69 9.23001L14.58 10.34L15.99 11.75L18.51 9.23001L14.76 5.48001L12.24 8.00001L13.65 9.41001L14.77 8.31001ZM21.42 6.33001C21.81 5.94001 21.81 5.31001 21.42 4.92001L19.08 2.58001C18.88 2.38001 18.63 2.29001 18.37 2.29001C18.11 2.29001 17.86 2.39001 17.67 2.58001L15.84 4.41001L19.59 8.16001L21.42 6.33001ZM3.51998 2.10001L2.09998 3.51001L9.41998 10.83L3.70998 16.54V20.29H7.45998L13.17 14.58L20.49 21.9L21.9 20.49L3.51998 2.10001ZM6.62998 18.29H5.70998V17.37L10.84 12.24L11.76 13.16L6.62998 18.29Z" fill="black"/>
</svg>
