<svg width="24" height="24" viewBox="0 0 24 24" fill="none" xmlns="http://www.w3.org/2000/svg">
<path d="M3.93372 9.5H17.9337V11.5H19.9337V5.5C19.9337 4.4 19.0337 3.5 17.9337 3.5H16.9337V1.5H14.9337V3.5H6.93372V1.5H4.93372V3.5H3.93372C2.82372 3.5 1.94372 4.4 1.94372 5.5L1.93372 19.5C1.93372 20.6 2.82372 21.5 3.93372 21.5H10.9337V19.5H3.93372V9.5ZM3.93372 5.5H17.9337V7.5H3.93372V5.5ZM21.7737 15.78L21.0637 16.49L18.9437 14.37L19.6537 13.66C20.0437 13.27 20.6737 13.27 21.0637 13.66L21.7737 14.37C22.1637 14.76 22.1637 15.39 21.7737 15.78ZM18.2337 15.08L20.3537 17.2L15.0537 22.5H12.9337V20.38L18.2337 15.08Z" fill="black"/>
</svg>
