<svg width="24" height="24" viewBox="0 0 24 24" fill="none" xmlns="http://www.w3.org/2000/svg">
<path d="M1.44495 4.17001L3.06495 5.79001C3.06495 5.84001 3.05495 5.89001 3.05495 5.95001V9.75001C5.75495 9.75001 6.05495 11.91 6.05495 12.45C6.05495 12.99 5.76495 15.15 3.05495 15.15V18.95C3.05495 20.05 3.95495 20.95 5.05495 20.95H8.85495C8.85495 18.24 11.0149 17.95 11.5549 17.95C12.0949 17.95 14.2549 18.24 14.2549 20.95H18.0549C18.1149 20.95 18.1649 20.95 18.2149 20.94L19.8249 22.55L21.2349 21.14L2.86495 2.76001L1.44495 4.17001ZM11.5549 15.95C10.0549 15.95 7.98495 16.78 7.18495 18.95H5.05495V16.82C7.22495 16.02 8.05495 13.95 8.05495 12.45C8.05495 11.76 7.87495 10.95 7.47495 10.2L13.8049 16.53C13.0549 16.13 12.2449 15.95 11.5549 15.95ZM8.88495 5.95001L6.88495 3.95001H9.05495C9.05495 2.57001 10.1749 1.45001 11.5549 1.45001C12.9349 1.45001 14.0549 2.57001 14.0549 3.95001H18.0549C19.1549 3.95001 20.0549 4.85001 20.0549 5.95001V9.95001C21.4349 9.95001 22.5549 11.07 22.5549 12.45C22.5549 13.83 21.4349 14.95 20.0549 14.95V17.12L18.0549 15.12V12.95H20.0549C20.3349 12.95 20.5549 12.73 20.5549 12.45C20.5549 12.17 20.3349 11.95 20.0549 11.95H18.0549V5.95001H12.0549V3.95001C12.0549 3.67001 11.8349 3.45001 11.5549 3.45001C11.2749 3.45001 11.0549 3.67001 11.0549 3.95001V5.95001H8.88495Z" fill="black"/>
</svg>
