<svg width="24" height="24" viewBox="0 0 24 24" fill="none" xmlns="http://www.w3.org/2000/svg">
<path d="M10.62 19.75H4.41003V9.75H18.41V14.13L20.41 12.13V5.75C20.41 4.65 19.51 3.75 18.41 3.75H17.41V1.75H15.41V3.75H7.41003V1.75H5.41003V3.75H4.41003C3.30003 3.75 2.42003 4.65 2.42003 5.75L2.41003 19.75C2.41003 20.85 3.30003 21.75 4.41003 21.75H12.62L10.62 19.75ZM4.41003 5.75H18.41V7.75H4.41003V5.75ZM15.95 22.25L12.41 18.71L13.82 17.3L15.94 19.42L20.18 15.18L21.59 16.59L15.95 22.25ZM9.82003 13.75L11.41 15.34L10 16.75L8.41003 15.16L6.82003 16.75L5.41003 15.34L7.00003 13.75L5.41003 12.16L6.82003 10.75L8.41003 12.34L10 10.75L11.41 12.16L9.82003 13.75Z" fill="black"/>
</svg>
