<svg width="24" height="24" viewBox="0 0 24 24" fill="none" xmlns="http://www.w3.org/2000/svg">
<path d="M18.545 14.295H20.215C20.765 14.295 21.215 13.845 21.215 13.295V11.795C21.215 11.245 20.765 10.795 20.215 10.795H17.715V9.795H19.715V10.295H21.215V9.295C21.215 8.745 20.765 8.295 20.215 8.295H17.215C16.665 8.295 16.215 8.745 16.215 9.295V10.795C16.215 11.345 16.665 11.795 17.215 11.795H19.715V12.795H17.715V12.295H16.545L18.545 14.295ZM8.71498 10.125V14.295H7.21498V11.795H5.21498V14.295H3.71498V8.295H5.21498V10.295H7.21498V8.625L2.10498 3.515L3.51498 2.105L21.895 20.485L20.485 21.895L12.885 14.295H10.715V12.125L8.71498 10.125Z" fill="black"/>
</svg>
