<svg width="24" height="24" viewBox="0 0 24 24" fill="none" xmlns="http://www.w3.org/2000/svg">
<path d="M4.07005 13H2.05005C2.25005 15.01 3.05005 16.84 4.26005 18.33L5.69005 16.9C4.83005 15.79 4.25005 14.46 4.07005 13Z" fill="black"/>
<path d="M5.69005 7.1L4.26005 5.67C3.05005 7.16 2.25005 8.99 2.05005 11H4.07005C4.25005 9.54 4.83005 8.21 5.69005 7.1Z" fill="black"/>
<path d="M11 4.07V2.05C8.99005 2.25 7.16005 3.05 5.67005 4.26L7.10005 5.69C8.21005 4.83 9.54005 4.25 11 4.07Z" fill="black"/>
<path d="M18.33 4.26C16.84 3.05 15.01 2.25 13 2.05V4.07C14.46 4.25 15.79 4.83 16.9 5.69L18.33 4.26Z" fill="black"/>
<path d="M18.31 16.9L19.74 18.33C20.9501 16.85 21.75 15.01 21.9501 13H19.93C19.75 14.46 19.17 15.79 18.31 16.9Z" fill="black"/>
<path d="M19.93 11H21.9501C21.75 8.99 20.9501 7.16 19.74 5.67L18.31 7.1C19.17 8.21 19.75 9.54 19.93 11Z" fill="black"/>
<path d="M13 19.93V21.95C15.01 21.75 16.84 20.95 18.33 19.74L16.9 18.31C15.79 19.17 14.46 19.75 13 19.93Z" fill="black"/>
<path d="M5.67005 19.74C7.15005 20.95 8.99005 21.75 11 21.95V19.93C9.54005 19.75 8.21005 19.17 7.10005 18.31L5.67005 19.74Z" fill="black"/>
<path d="M12 17C14.7615 17 17 14.7614 17 12C17 9.23857 14.7615 7 12 7C9.23862 7 7.00005 9.23857 7.00005 12C7.00005 14.7614 9.23862 17 12 17Z" fill="black"/>
</svg>
