<svg width="24" height="24" viewBox="0 0 24 24" fill="none" xmlns="http://www.w3.org/2000/svg">
<path d="M10.71 3.695C10.71 2.595 11.61 1.695 12.71 1.695C13.81 1.695 14.71 2.595 14.71 3.695C14.71 4.795 13.81 5.695 12.71 5.695C11.61 5.695 10.71 4.795 10.71 3.695ZM19.71 12.695V10.695C18.17 10.715 16.62 9.945 15.64 8.865L14.35 7.435C14.11 7.195 13.91 7.075 13.72 6.975C13.36 6.785 13 6.675 12.52 6.715C12.03 6.755 11.61 6.985 11.29 7.325L14.71 10.745C16 11.815 17.96 12.685 19.71 12.695ZM10.71 19.695C9.04998 19.695 7.70998 18.355 7.70998 16.695C7.70998 15.385 8.54998 14.285 9.70998 13.865V11.795C7.42998 12.255 5.70998 14.275 5.70998 16.695C5.70998 19.455 7.94998 21.695 10.71 21.695C13.13 21.695 15.15 19.975 15.61 17.695H13.54C13.13 18.855 12.02 19.695 10.71 19.695ZM3.51998 2.505L2.09998 3.915L10.71 12.525V14.695C10.71 15.795 11.61 16.695 12.71 16.695H14.88L20.49 22.305L21.9 20.895L3.51998 2.505Z" fill="black"/>
</svg>
