<svg width="24" height="24" viewBox="0 0 24 24" fill="none" xmlns="http://www.w3.org/2000/svg">
<path d="M17.505 5.09L14.715 2.29H21.715V9.29L18.925 6.49L14.835 10.58L13.425 9.17L17.505 5.09ZM19.715 11.29V15.46L21.715 17.46V11.29H19.715ZM20.495 21.9L18.885 20.29H5.71498C4.60498 20.29 3.71498 19.39 3.71498 18.29V5.12L2.10498 3.51L3.51498 2.1L21.895 20.48L20.495 21.9ZM16.885 18.29L12.005 13.41L10.415 15L9.00498 13.59L10.595 12L5.71498 7.12V18.29H16.885ZM8.54498 4.29H12.715V2.29H6.54498L8.54498 4.29Z" fill="black"/>
</svg>
