<svg width="24" height="24" viewBox="0 0 24 24" fill="none" xmlns="http://www.w3.org/2000/svg">
<path d="M18.37 23.995H11.82C10.74 23.995 9.68001 23.545 8.93001 22.765L1.63 15.155L3.7 13.325C4.32 12.775 5.23 12.665 5.96 13.055L8.37 14.335V4.785C8.37 3.405 9.49 2.285 10.87 2.285C11.04 2.285 11.21 2.305 11.38 2.335C11.47 1.035 12.55 0.00499725 13.87 0.00499725C14.73 0.00499725 15.48 0.434997 15.93 1.095C16.22 0.974997 16.54 0.914997 16.87 0.914997C18.25 0.914997 19.37 2.035 19.37 3.415V3.695C19.53 3.665 19.7 3.645 19.87 3.645C21.25 3.645 22.37 4.765 22.37 6.145V19.995C22.37 22.205 20.58 23.995 18.37 23.995ZM4.51 15.275L10.37 21.375C10.75 21.765 11.27 21.995 11.81 21.995H18.37C19.47 21.995 20.37 21.095 20.37 19.995V6.145C20.37 5.865 20.15 5.645 19.87 5.645C19.59 5.645 19.37 5.865 19.37 6.145V11.995H17.37V3.415C17.37 3.135 17.15 2.915 16.87 2.915C16.59 2.915 16.37 3.135 16.37 3.415V11.995H14.37V2.505C14.37 2.225 14.15 2.005 13.87 2.005C13.59 2.005 13.37 2.225 13.37 2.505V11.995H11.37V4.785C11.37 4.505 11.15 4.285 10.87 4.285C10.59 4.285 10.37 4.515 10.37 4.785V17.655L5.02 14.825L4.51 15.275Z" fill="black"/>
</svg>
