<svg width="24" height="24" viewBox="0 0 24 24" fill="none" xmlns="http://www.w3.org/2000/svg">
<g clip-path="url(#clip0_5_32834)">
<path d="M1.97494 0.565002L0.564941 1.975L4.95494 6.365L7.16494 11.025L5.81494 13.475C5.65494 13.755 5.56494 14.085 5.56494 14.435C5.56494 15.535 6.46494 16.435 7.56494 16.435H15.0249L16.4049 17.815C15.9049 18.175 15.5749 18.765 15.5749 19.435C15.5749 20.535 16.4649 21.435 17.5649 21.435C18.2349 21.435 18.8249 21.105 19.1849 20.595L22.0249 23.435L23.4349 22.025L1.97494 0.565002ZM7.56494 14.435L8.66494 12.435H11.0249L13.0249 14.435H7.56494ZM20.5649 3.435H7.68494L9.68494 5.435H18.8749L16.1149 10.435H14.6749L16.6149 12.375C17.1549 12.235 17.6049 11.885 17.8649 11.405L21.4449 4.915C21.8149 4.255 21.3249 3.435 20.5649 3.435ZM7.56494 17.435C6.46494 17.435 5.57494 18.335 5.57494 19.435C5.57494 20.535 6.46494 21.435 7.56494 21.435C8.66494 21.435 9.56494 20.535 9.56494 19.435C9.56494 18.335 8.66494 17.435 7.56494 17.435Z" fill="black"/>
</g>
<defs>
<clipPath id="clip0_5_32834">
<rect width="24" height="24" fill="white"/>
</clipPath>
</defs>
</svg>
