<svg width="24" height="24" viewBox="0 0 24 24" fill="none" xmlns="http://www.w3.org/2000/svg">
<path d="M6.00037 14.9996C5.17037 14.9996 4.42037 15.3396 3.88037 15.8796C2.70037 17.0596 2.00037 21.9996 2.00037 21.9996C2.00037 21.9996 6.94037 21.2996 8.12037 20.1196C8.66037 19.5796 9.00037 18.8296 9.00037 17.9996C9.00037 16.3396 7.66037 14.9996 6.00037 14.9996ZM6.71037 18.7096C6.43037 18.9896 4.54037 19.4696 4.54037 19.4696C4.54037 19.4696 5.01037 17.5896 5.30037 17.2996C5.47037 17.1096 5.72037 16.9996 6.00037 16.9996C6.55037 16.9996 7.00037 17.4496 7.00037 17.9996C7.00037 18.2796 6.89037 18.5296 6.71037 18.7096ZM17.4204 13.6496C23.7804 7.2896 21.6604 2.3396 21.6604 2.3396C21.6604 2.3396 16.7104 0.219597 10.3504 6.5796L7.86037 6.0796C7.21037 5.9496 6.53037 6.1596 6.05037 6.6296L2.00037 10.6896L7.00037 12.8296L11.1704 16.9996L13.3104 21.9996L17.3604 17.9496C17.8304 17.4796 18.0404 16.7996 17.9104 16.1396L17.4204 13.6496ZM7.41037 10.8296L5.50037 10.0096L7.47037 8.0396L8.91037 8.3296C8.34037 9.1596 7.83037 10.0296 7.41037 10.8296ZM13.9904 18.4996L13.1704 16.5896C13.9704 16.1696 14.8404 15.6596 15.6604 15.0896L15.9504 16.5296L13.9904 18.4996ZM16.0004 12.2396C14.6804 13.5596 12.6204 14.6396 11.9604 14.9696L9.03037 12.0396C9.35037 11.3896 10.4304 9.3296 11.7604 7.9996C16.4404 3.3196 19.9904 4.0096 19.9904 4.0096C19.9904 4.0096 20.6804 7.5596 16.0004 12.2396ZM15.0004 10.9996C16.1004 10.9996 17.0004 10.0996 17.0004 8.9996C17.0004 7.8996 16.1004 6.9996 15.0004 6.9996C13.9004 6.9996 13.0004 7.8996 13.0004 8.9996C13.0004 10.0996 13.9004 10.9996 15.0004 10.9996Z" fill="black"/>
</svg>
