<svg width="24" height="24" viewBox="0 0 24 24" fill="none" xmlns="http://www.w3.org/2000/svg">
<g clip-path="url(#clip0_5_32890)">
<path d="M20.9301 3.33999V15.34H19.5901L21.5001 17.25C22.3201 17 22.9301 16.24 22.9301 15.34V3.33999C22.9301 2.23999 22.0301 1.33999 20.9301 1.33999H5.59005L7.59005 3.33999H20.9301ZM6.93005 11.34H8.93005V13.34H6.93005V11.34ZM18.9301 8.33999H12.5901L14.5901 10.34H18.9301V8.33999ZM18.9301 5.33999H10.9301V6.67999L11.5901 7.33999H18.9301V5.33999ZM2.34005 0.929993L0.930054 2.33999L2.94005 4.34999L2.93005 21.34L6.93005 17.34H15.9301L21.6601 23.07L23.0701 21.66L2.34005 0.929993ZM6.10005 15.34L4.93005 16.51V6.33999L6.93005 8.33999V10.34H8.93005L13.9301 15.34H6.10005Z" fill="black"/>
</g>
<defs>
<clipPath id="clip0_5_32890">
<rect width="24" height="24" fill="white"/>
</clipPath>
</defs>
</svg>
