<svg width="24" height="24" viewBox="0 0 24 24" fill="none" xmlns="http://www.w3.org/2000/svg">
<path d="M19.9743 10.5029L15.8243 10.5129C15.6643 10.5029 15.5143 10.5329 15.3743 10.5929L14.7843 10.8529L12.9543 6.75287C12.3943 5.49287 10.9143 4.92287 9.65427 5.48287C8.39427 6.04287 7.82427 7.52287 8.38427 8.78287L11.6843 16.2329L9.81427 16.6229C9.62427 16.6729 8.82427 16.8929 8.45427 17.8329L7.75427 19.6929L14.5343 22.3629C15.0243 22.5529 15.5843 22.5429 16.0643 22.3229L22.0543 19.6729C22.9443 19.2729 23.4243 18.2929 23.1843 17.3529L21.8243 12.0129C21.6043 11.1529 20.8543 10.5429 19.9743 10.5029ZM21.2443 17.8429L15.2543 20.5029L10.3343 18.5429L14.5143 17.6629L10.2143 7.96287C10.1043 7.71287 10.2143 7.41287 10.4643 7.30287C10.7143 7.19287 11.0143 7.30287 11.1243 7.55287L13.6243 13.2029L15.2343 12.4929L19.8843 12.5029L21.2443 17.8429ZM1.81427 6.06287L0.754272 5.00287L4.25427 1.50287L7.75427 5.00287L6.69427 6.06287L5.07427 4.44287C4.86427 5.26287 4.75427 6.12287 4.75427 7.00287C4.75427 9.42287 5.57427 11.6529 6.95427 13.4329L5.88427 14.5029C4.24427 12.4529 3.25427 9.84287 3.25427 7.00287C3.25427 6.08287 3.35427 5.18287 3.55427 4.32287L1.81427 6.06287Z" fill="black"/>
</svg>
