<svg width="24" height="24" viewBox="0 0 24 24" fill="none" xmlns="http://www.w3.org/2000/svg">
<path d="M19.9743 10.0029L15.8243 10.0129C15.6643 10.0029 15.5143 10.0329 15.3743 10.0929L14.7843 10.3529L12.9543 6.25287C12.3943 4.99287 10.9143 4.42287 9.65427 4.98287C8.39427 5.54287 7.82427 7.02287 8.38427 8.28287L11.6843 15.7329L9.81427 16.1229C9.62427 16.1729 8.82427 16.3929 8.45427 17.3329L7.75427 19.1929L14.5343 21.8629C15.0243 22.0529 15.5843 22.0429 16.0643 21.8229L22.0543 19.1729C22.9443 18.7729 23.4243 17.7929 23.1843 16.8529L21.8243 11.5129C21.6043 10.6529 20.8543 10.0429 19.9743 10.0029ZM21.2443 17.3429L15.2543 20.0029L10.3343 18.0429L14.5143 17.1629L10.2143 7.46287C10.1043 7.21287 10.2143 6.91287 10.4643 6.80287C10.7143 6.69287 11.0143 6.80287 11.1243 7.05287L13.6243 12.7029L15.2343 11.9929L19.8843 12.0029L21.2443 17.3429ZM3.55427 12.1829C3.35427 11.3229 3.25427 10.4229 3.25427 9.50287C3.25427 6.66287 4.24427 4.05287 5.88427 2.00287L6.95427 3.07287C5.57427 4.85287 4.75427 7.08287 4.75427 9.50287C4.75427 10.3829 4.86427 11.2429 5.07427 12.0629L6.69427 10.4429L7.75427 11.5029L4.25427 15.0029L0.754272 11.5029L1.81427 10.4429L3.55427 12.1829Z" fill="black"/>
</svg>
