<svg width="24" height="24" viewBox="0 0 24 24" fill="none" xmlns="http://www.w3.org/2000/svg">
<path d="M8.24495 4.81501L6.79495 3.35501C8.37495 2.30501 10.2649 1.69501 12.3049 1.69501C17.8249 1.69501 22.3049 6.17501 22.3049 11.695C22.3049 13.735 21.6949 15.625 20.6449 17.205L19.1849 15.745C19.8949 14.555 20.3049 13.175 20.3049 11.695C20.3049 7.28501 16.7149 3.69501 12.3049 3.69501C10.8249 3.69501 9.44495 4.10501 8.24495 4.81501ZM17.9649 9.22501L16.5549 7.81501L13.9049 10.465L15.3149 11.875L17.9649 9.22501ZM20.0849 22.305L17.8149 20.035C16.2349 21.085 14.3449 21.695 12.3049 21.695C6.78495 21.695 2.30495 17.215 2.30495 11.695C2.30495 9.65501 2.91495 7.76501 3.96495 6.18501L1.69495 3.91501L3.10495 2.50501L21.4849 20.885L20.0849 22.305ZM16.3649 18.575L12.4849 14.695L10.8949 16.285L6.65495 12.045L8.06495 10.635L10.8949 13.465L11.0749 13.285L5.42495 7.63501C4.71495 8.83501 4.30495 10.215 4.30495 11.695C4.30495 16.105 7.89495 19.695 12.3049 19.695C13.7849 19.695 15.1649 19.285 16.3649 18.575Z" fill="black"/>
</svg>
