<svg width="24" height="24" viewBox="0 0 24 24" fill="none" xmlns="http://www.w3.org/2000/svg">
<path d="M21.655 12.29C21.505 13.67 21.035 14.96 20.325 16.08L18.855 14.61C19.235 13.9 19.505 13.12 19.625 12.29H21.655ZM9.38498 5.12998C10.375 4.59998 11.515 4.28998 12.715 4.28998C15.085 4.28998 17.185 5.47998 18.455 7.28998H15.715V9.28998H21.715V3.28998H19.715V5.64998C18.065 3.60998 15.545 2.28998 12.715 2.28998C10.955 2.28998 9.31498 2.79998 7.93498 3.67998L9.38498 5.12998ZM11.715 6.28998V7.45998L13.715 9.45998V6.28998H11.715ZM20.495 21.9L17.495 18.9C16.105 19.77 14.475 20.29 12.715 20.29C7.74498 20.29 3.71498 16.26 3.71498 11.29C3.71498 9.52998 4.22498 7.88998 5.10498 6.50998L2.10498 3.50998L3.51498 2.09998L21.895 20.48L20.495 21.9ZM16.035 17.44L6.55498 7.95998C6.02498 8.94998 5.71498 10.09 5.71498 11.29C5.71498 15.15 8.85498 18.29 12.715 18.29C13.915 18.29 15.055 17.98 16.035 17.44Z" fill="black"/>
</svg>
