<svg width="24" height="24" viewBox="0 0 24 24" fill="none" xmlns="http://www.w3.org/2000/svg">
<path d="M13.715 9.28998C13.715 8.73998 14.165 8.28998 14.715 8.28998H17.715C18.265 8.28998 18.715 8.73998 18.715 9.28998V10.29H17.215V9.78998H15.215V10.79L13.715 9.28998ZM17.215 12.79L18.425 14C18.605 13.81 18.715 13.56 18.715 13.29V12.29H17.215V12.79ZM9.54498 5.28998H19.715V15.46L21.695 17.44C21.695 17.39 21.715 17.34 21.715 17.28V5.28998C21.715 4.18998 20.815 3.28998 19.715 3.28998H7.54498L9.54498 5.28998ZM20.495 21.9L17.885 19.29H5.71498C4.60498 19.29 3.71498 18.39 3.71498 17.29V5.28998C3.71498 5.23998 3.73498 5.18998 3.73498 5.13998L2.10498 3.50998L3.51498 2.09998L21.895 20.48L20.495 21.9ZM8.21498 12.79H10.215V12.29H10.885L8.38498 9.78998H8.21498V12.79ZM15.885 17.29L11.715 13.12V13.29C11.715 13.84 11.265 14.29 10.715 14.29H7.71498C7.16498 14.29 6.71498 13.84 6.71498 13.29V9.28998C6.71498 8.96998 6.87498 8.69998 7.11498 8.50998L5.71498 7.11998V17.29H15.885Z" fill="black"/>
</svg>
