<svg width="24" height="24" viewBox="0 0 24 24" fill="none" xmlns="http://www.w3.org/2000/svg">
<path d="M6.73998 3.28499C7.85998 2.52499 9.21998 2.08499 10.71 2.08499C14.64 2.08499 17.71 5.15499 17.71 9.08499C17.71 10.345 17.33 11.735 16.64 12.985C16.62 13.025 16.59 13.065 16.56 13.115L15.08 11.635C15.48 10.775 15.71 9.88499 15.71 9.08499C15.71 6.28499 13.51 4.08499 10.71 4.08499C9.78998 4.08499 8.94998 4.34499 8.20998 4.75499L6.73998 3.28499ZM17.92 14.465L19.35 15.895C20.82 14.015 21.71 11.655 21.71 9.08499C21.71 6.04499 20.48 3.29499 18.49 1.30499L17.07 2.72499C18.7 4.34499 19.71 6.59499 19.71 9.08499C19.71 11.105 19.04 12.965 17.92 14.465ZM10.71 6.58499C10.5 6.58499 10.31 6.61499 10.12 6.66499L13.13 9.67499C13.18 9.48499 13.21 9.29499 13.21 9.08499C13.21 7.70499 12.09 6.58499 10.71 6.58499ZM21.9 21.275L3.51998 2.89499L2.09998 4.30499L4.22998 6.43499C3.89998 7.24499 3.70998 8.13499 3.70998 9.08499H5.70998C5.70998 8.72499 5.75998 8.37499 5.82998 8.03499L12.44 14.645C11.56 15.325 10.66 16.055 10.17 17.545C9.66998 19.045 9.16998 19.555 8.45998 19.925C8.26998 20.025 7.99998 20.085 7.70998 20.085C6.60998 20.085 5.70998 19.185 5.70998 18.085H3.70998C3.70998 20.295 5.49998 22.085 7.70998 22.085C8.27998 22.085 8.83998 21.965 9.34998 21.735C10.71 21.025 11.48 20.005 12.08 18.185C12.4 17.205 12.98 16.755 13.79 16.135C13.82 16.115 13.84 16.095 13.87 16.075L20.49 22.695L21.9 21.275Z" fill="black"/>
</svg>
