<svg width="24" height="24" viewBox="0 0 24 24" fill="none" xmlns="http://www.w3.org/2000/svg">
<path d="M10.72 5.38999C10.72 4.72999 11.26 4.18999 11.92 4.18999C12.58 4.18999 13.12 4.72999 13.12 5.38999L13.11 9.29999L14.92 11.09V5.48999C14.92 3.82999 13.58 2.48999 11.92 2.48999C10.38 2.48999 9.12998 3.64999 8.95998 5.13999L10.72 6.89999V5.38999ZM18.92 11.49H17.22C17.22 12.07 17.12 12.62 16.95 13.13L18.22 14.4C18.66 13.52 18.92 12.53 18.92 11.49ZM4.32998 3.34999L2.91998 4.75999L8.91998 10.76V11.49C8.91998 13.15 10.26 14.49 11.92 14.49C12.15 14.49 12.36 14.46 12.57 14.41L14.23 16.07C13.52 16.4 12.73 16.59 11.92 16.59C9.15998 16.59 6.61998 14.49 6.61998 11.49H4.91998C4.91998 14.9 7.63998 17.72 10.92 18.21V21.49H12.92V18.21C13.83 18.08 14.69 17.76 15.47 17.31L19.67 21.51L21.08 20.1L4.32998 3.34999Z" fill="black"/>
</svg>
