<svg width="24" height="24" viewBox="0 0 24 24" fill="none" xmlns="http://www.w3.org/2000/svg">
<path d="M23 11.995L20.56 9.21497L20.9 5.53497L17.29 4.71497L15.4 1.53497L12 2.99497L8.6 1.53497L6.71 4.71497L3.1 5.52497L3.44 9.20497L1 11.995L3.44 14.775L3.1 18.465L6.71 19.285L8.6 22.465L12 20.995L15.4 22.455L17.29 19.275L20.9 18.455L20.56 14.775L23 11.995ZM18.49 14.105L18.75 16.895L16.01 17.515L14.58 19.925L12 18.815L9.42 19.925L7.99 17.515L5.25 16.895L5.51 14.095L3.66 11.995L5.51 9.87497L5.25 7.09497L7.99 6.48497L9.42 4.07497L12 5.17497L14.58 4.06497L16.01 6.47497L18.75 7.09497L18.49 9.88497L20.34 11.995L18.49 14.105ZM11 14.995H13V16.995H11V14.995ZM11 6.99497H13V12.995H11V6.99497Z" fill="black"/>
</svg>
