<svg width="24" height="24" viewBox="0 0 24 24" fill="none" xmlns="http://www.w3.org/2000/svg">
<path d="M13.025 9.78999L9.97502 7.49999V16.5L13.025 14.21L15.975 12L13.025 9.78999ZM13.025 9.78999L9.97502 7.49999V16.5L13.025 14.21L15.975 12L13.025 9.78999ZM13.025 9.78999L9.97502 7.49999V16.5L13.025 14.21L15.975 12L13.025 9.78999ZM10.975 4.06999V2.04999C8.96502 2.24999 7.13502 3.04999 5.65502 4.25999L7.07502 5.68999C8.18502 4.82999 9.51502 4.24999 10.975 4.06999ZM5.66502 7.09999L4.23502 5.67999C3.02502 7.15999 2.22502 8.98999 2.02502 11H4.04502C4.22502 9.53999 4.80502 8.20999 5.66502 7.09999ZM4.04502 13H2.02502C2.22502 15.01 3.02502 16.84 4.23502 18.32L5.66502 16.89C4.80502 15.79 4.22502 14.46 4.04502 13ZM5.65502 19.74C7.13502 20.95 8.97502 21.75 10.975 21.95V19.93C9.51502 19.75 8.18502 19.17 7.07502 18.31L5.65502 19.74ZM21.975 12C21.975 17.16 18.055 21.42 13.025 21.95V19.93C16.945 19.41 19.975 16.05 19.975 12C19.975 7.94999 16.945 4.58999 13.025 4.06999V2.04999C18.055 2.57999 21.975 6.83999 21.975 12Z" fill="black"/>
</svg>
