<svg width="24" height="24" viewBox="0 0 24 24" fill="none" xmlns="http://www.w3.org/2000/svg">
<path d="M8.99948 11.095H12.6295L8.99948 15.295V17.095H14.9995V15.095H11.3695L14.9995 10.895V9.095H8.99948V11.095ZM16.0555 3.441L17.3375 1.906L21.9445 5.756L20.6645 7.296L16.0555 3.441ZM3.33548 7.285L2.05548 5.749L6.66148 1.905L7.94148 3.441L3.33548 7.285ZM11.9995 6.095C15.8595 6.095 18.9995 9.235 18.9995 13.095C18.9995 16.955 15.8595 20.095 11.9995 20.095C8.13948 20.095 4.99948 16.955 4.99948 13.095C4.99948 9.235 8.13948 6.095 11.9995 6.095ZM11.9995 4.095C7.02948 4.095 2.99948 8.125 2.99948 13.095C2.99948 18.065 7.02948 22.095 11.9995 22.095C16.9695 22.095 20.9995 18.065 20.9995 13.095C20.9995 8.125 16.9695 4.095 11.9995 4.095Z" fill="black"/>
</svg>
