<svg width="24" height="24" viewBox="0 0 24 24" fill="none" xmlns="http://www.w3.org/2000/svg">
<path d="M2.55811 4.505H20.5581V9.505H22.5581V4.505C22.5581 3.405 21.6581 2.505 20.5581 2.505H2.55811C1.45811 2.505 0.558105 3.405 0.558105 4.505V16.505C0.558105 17.605 1.45811 18.505 2.55811 18.505H11.5581V16.505H2.55811V4.505Z" fill="black"/>
<path d="M14.5581 10.505L8.55811 6.505V14.505L14.5581 10.505Z" fill="black"/>
<path d="M22.2681 16.935C22.2981 16.645 22.3081 16.355 22.2781 16.075L23.3481 15.225C23.4481 15.145 23.4681 15.015 23.4081 14.905L22.3781 13.115C22.3181 13.005 22.1881 12.965 22.0681 13.005L20.7881 13.505C20.5581 13.335 20.3081 13.195 20.0381 13.085L19.8381 11.725C19.8181 11.595 19.7181 11.505 19.5881 11.505H17.5181C17.3981 11.505 17.2881 11.595 17.2681 11.715L17.0681 13.075C16.8081 13.185 16.5581 13.335 16.3281 13.495L15.0481 12.995C14.9281 12.945 14.7981 12.995 14.7381 13.105L13.7081 14.895C13.6481 15.005 13.6681 15.135 13.7681 15.215L14.8381 16.075C14.8081 16.365 14.7981 16.655 14.8281 16.935L13.7581 17.785C13.6581 17.865 13.6381 17.995 13.6981 18.105L14.7281 19.895C14.7881 20.005 14.9181 20.045 15.0381 20.005L16.3081 19.505C16.5381 19.675 16.7881 19.815 17.0581 19.925L17.2581 21.285C17.2781 21.405 17.3781 21.495 17.5081 21.495H19.5781C19.6981 21.495 19.8081 21.405 19.8281 21.285L20.0281 19.925C20.2881 19.815 20.5381 19.665 20.7681 19.505L22.0481 20.005C22.1681 20.055 22.2981 20.005 22.3581 19.895L23.3881 18.105C23.4481 17.995 23.4281 17.865 23.3281 17.785L22.2681 16.935ZM18.5581 18.005C17.7281 18.005 17.0581 17.335 17.0581 16.505C17.0581 15.675 17.7281 15.005 18.5581 15.005C19.3881 15.005 20.0581 15.675 20.0581 16.505C20.0581 17.335 19.3881 18.005 18.5581 18.005Z" fill="black"/>
</svg>
