<svg width="24" height="24" viewBox="0 0 24 24" fill="none" xmlns="http://www.w3.org/2000/svg">
<path d="M9.98999 8.56999L7.98999 6.56999L3.83999 2.42999L2.42999 3.83999L5.15999 6.56999H4.42999C3.87999 6.56999 3.42999 7.01999 3.42999 7.56999V17.57C3.42999 18.12 3.87999 18.57 4.42999 18.57H16.43C16.64 18.57 16.82 18.49 16.98 18.39L20.16 21.57L21.57 20.16L12.71 11.3L9.98999 8.56999ZM5.42999 16.57V8.56999H7.15999L15.16 16.57H5.42999ZM15.43 8.56999V11.18L21.43 17.18V7.06999L17.43 11.07V7.56999C17.43 7.01999 16.98 6.56999 16.43 6.56999H10.82L12.82 8.56999H15.43Z" fill="black"/>
</svg>
