<svg width="24" height="24" viewBox="0 0 24 24" fill="none" xmlns="http://www.w3.org/2000/svg">
<path d="M5.03503 21.5012H21.035V5.47125L5.03503 21.5012ZM19.035 19.5012H17.035V12.2812L19.035 10.2812V19.5012ZM4.25503 6.72125L2.96503 5.43125C6.86503 1.52125 13.205 1.52125 17.115 5.43125L15.825 6.72125C12.635 3.53125 7.44503 3.53125 4.25503 6.72125ZM11.965 10.5712L10.035 12.5012L8.10503 10.5712C9.17503 9.51125 10.895 9.51125 11.965 10.5712ZM13.255 9.29125C11.475 7.52125 8.59503 7.52125 6.82503 9.29125L5.53503 8.00125C8.01503 5.52125 12.055 5.52125 14.535 8.00125L13.255 9.29125Z" fill="black"/>
</svg>
