<svg width="24" height="24" viewBox="0 0 24 24" fill="none" xmlns="http://www.w3.org/2000/svg">
<path d="M7.3 14.25L8.5 13.05C7.5 12.05 7 10.75 7 9.55C7 8.25 7.5 6.95 8.5 6.05L7.3 4.85C6 6.15 5.3 7.85 5.3 9.55C5.3 11.25 6 12.95 7.3 14.25Z" fill="black"/>
<path d="M19.1 2.45L17.9 3.65C19.5 5.25 20.3 7.45 20.3 9.55C20.3 11.65 19.5 13.85 17.9 15.45L19.1 16.65C21.1 14.65 22 12.15 22 9.55C22 6.95 21 4.45 19.1 2.45Z" fill="black"/>
<path d="M6.1 3.65L4.9 2.45C3 4.45 2 6.95 2 9.55C2 12.15 3 14.65 4.9 16.65L6.1 15.45C4.5 13.85 3.7 11.65 3.7 9.55C3.7 7.45 4.5 5.25 6.1 3.65Z" fill="black"/>
<path d="M16.7 14.25C18 12.95 18.7 11.25 18.7 9.55C18.6 7.85 18 6.15 16.7 4.85L15.5 6.05C16.5 7.05 17 8.35 17 9.55C17 10.85 16.5 12.15 15.5 13.05L16.7 14.25Z" fill="black"/>
<path d="M14.5 9.55C14.5 8.17 13.38 7.05 12 7.05C10.62 7.05 9.5 8.17 9.5 9.55C9.5 10.31 9.84 10.97 10.37 11.43L7 21.55H9L9.67 19.55H14.34L15 21.55H17L13.63 11.43C14.16 10.97 14.5 10.31 14.5 9.55ZM10.33 17.55L12 12.55L13.67 17.55H10.33Z" fill="black"/>
</svg>
