<svg width="24" height="24" viewBox="0 0 24 24" fill="none" xmlns="http://www.w3.org/2000/svg">
<path d="M19.485 15.345H20.655V3.345H7.48497L5.48497 1.345H20.655C21.755 1.345 22.655 2.245 22.655 3.345V18.515L19.485 15.345ZM18.655 5.345H9.48497L11.485 7.345H18.655V5.345ZM18.655 8.345H12.485L14.485 10.345H18.655V8.345ZM18.655 13.345V11.345H15.485L17.485 13.345H18.655ZM22.555 21.245L21.145 22.655L15.825 17.345H4.65497C3.55497 17.345 2.65497 16.445 2.65497 15.345V4.175L1.34497 2.855L2.75497 1.445L22.555 21.245ZM13.825 15.345L11.825 13.345H6.65497V11.345H9.82497L8.82497 10.345H6.65497V8.345H6.82497L4.65497 6.175V15.345H13.825Z" fill="black"/>
</svg>
