<svg width="24" height="24" viewBox="0 0 24 24" fill="none" xmlns="http://www.w3.org/2000/svg">
<g clip-path="url(#clip0_5_32342)">
<path d="M2.25497 0.845L0.844971 2.255L2.84497 4.255V20.155H18.745L21.745 23.155L23.155 21.745L2.25497 0.845ZM6.84497 18.155H4.84497V16.155H6.84497V18.155ZM6.84497 14.155H4.84497V12.155H6.84497V14.155ZM4.84497 10.155V8.155H6.84497V10.155H4.84497ZM10.845 18.155H8.84497V16.155H10.845V18.155ZM8.84497 14.155V12.155H10.845V14.155H8.84497ZM12.845 18.155V16.155H14.745L16.745 18.155H12.845ZM8.84497 4.155H10.845V6.155H10.395L12.845 8.605V8.155H20.845V16.605L22.845 18.605V6.155H12.845V2.155H6.39497L8.84497 4.605V4.155ZM16.845 10.155H18.845V12.155H16.845V10.155Z" fill="black"/>
</g>
<defs>
<clipPath id="clip0_5_32342">
<rect width="24" height="24" fill="white"/>
</clipPath>
</defs>
</svg>
