<svg width="24" height="24" viewBox="0 0 24 24" fill="none" xmlns="http://www.w3.org/2000/svg">
<path d="M10.2 12.825L8.49 11.115C8.5 11.175 8.5 11.235 8.5 11.295C8.5 12.395 7.6 13.295 6.5 13.295C5.4 13.295 4.5 12.395 4.5 11.295C4.5 10.195 5.4 9.295 6.5 9.295C6.56 9.295 6.62 9.295 6.68 9.305L4.97 7.595C3.52 8.195 2.5 9.625 2.5 11.295C2.5 13.505 4.29 15.295 6.5 15.295C8.17 15.295 9.6 14.275 10.2 12.825ZM11.69 14.315C10.65 16.095 8.71 17.295 6.5 17.295C3.19 17.295 0.5 14.605 0.5 11.295C0.5 9.085 1.7 7.145 3.48 6.105L0.89 3.515L2.3 2.105L20.68 20.485L19.27 21.895L11.69 14.315ZM15.76 12.725L17 11.795L18.81 13.155L20.67 11.295L19.67 10.295H13.33L11.33 8.295H20.5L23.5 11.295L19 15.795L18.31 15.285L15.76 12.725Z" fill="black"/>
</svg>
