<svg width="24" height="24" viewBox="0 0 24 24" fill="none" xmlns="http://www.w3.org/2000/svg">
<g clip-path="url(#clip0_5_32373)">
<path d="M15.5 5.145C16.6 5.145 17.5 6.045 17.5 7.145C17.5 8.135 16.77 8.965 15.83 9.115L13.52 6.805C13.69 5.865 14.51 5.145 15.5 5.145ZM15.5 3.145C13.29 3.145 11.5 4.935 11.5 7.145C11.5 7.325 11.53 7.495 11.55 7.665L14.98 11.095C15.15 11.115 15.32 11.145 15.5 11.145C17.71 11.145 19.5 9.355 19.5 7.145C19.5 4.935 17.71 3.145 15.5 3.145ZM17.19 13.305L23.03 19.145H23.5V17.145C23.5 15.005 19.94 13.645 17.19 13.305ZM13.51 15.275L15.38 17.145H9.5C9.58 16.905 10.38 16.135 12.41 15.575L13.51 15.275ZM1.91 0.854996L0.5 2.265L4.5 6.265V9.145H1.5V11.145H4.5V14.145H6.5V11.145H9.38L11.89 13.655C9.69 14.255 7.5 15.445 7.5 17.145V19.145H17.38L21.38 23.145L22.79 21.735L1.91 0.854996ZM6.5 9.145V8.265L7.38 9.145H6.5Z" fill="black"/>
</g>
<defs>
<clipPath id="clip0_5_32373">
<rect width="24" height="24" fill="white"/>
</clipPath>
</defs>
</svg>
