<svg width="24" height="24" viewBox="0 0 24 24" fill="none" xmlns="http://www.w3.org/2000/svg">
<path d="M18.05 13.83L16.62 12.4C17.18 11.67 17.67 10.9 18.09 10.08L15.89 7.88001C15.61 7.60001 15.53 7.21001 15.64 6.86001C16.01 5.74001 16.21 4.54001 16.21 3.29001C16.21 2.74001 16.66 2.29001 17.21 2.29001H20.71C21.26 2.29001 21.71 2.74001 21.71 3.29001C21.71 7.27001 20.34 10.93 18.05 13.83ZM15.23 16.64C12.34 18.93 8.67998 20.29 4.70998 20.29C4.15998 20.29 3.70998 19.84 3.70998 19.29V15.8C3.70998 15.25 4.15998 14.8 4.70998 14.8C5.94998 14.8 7.15998 14.6 8.27998 14.23C8.37998 14.19 8.48998 14.18 8.58998 14.18C8.84998 14.18 9.09998 14.28 9.29998 14.47L11.5 16.67C12.31 16.25 13.08 15.77 13.8 15.21L2.09998 3.51001L3.51998 2.10001L21.9 20.49L20.49 21.9L15.23 16.64ZM8.30998 16.31C7.45998 16.55 6.58998 16.7 5.70998 16.76V18.25C7.02998 18.16 8.29998 17.9 9.50998 17.5L8.30998 16.31ZM18.17 4.29001C18.11 5.18001 17.96 6.05001 17.72 6.88001L18.92 8.08001C19.33 6.88001 19.59 5.61001 19.68 4.29001H18.17Z" fill="black"/>
</svg>
