<svg width="24" height="24" viewBox="0 0 24 24" fill="none" xmlns="http://www.w3.org/2000/svg">
<g clip-path="url(#clip0_5_32384)">
<path d="M2.23001 0.820007L0.820007 2.23001L5.82001 7.22001C4.16001 7.22001 2.82001 8.56001 2.82001 10.22V16.22H6.82001V20.22H18.82L21.77 23.18L23.18 21.77L2.23001 0.820007ZM6.82001 14.22H4.82001V10.22C4.82001 9.67001 5.27001 9.22001 5.82001 9.22001H7.82001L10.82 12.22H6.82001V14.22ZM8.82001 18.22V14.22H12.82L16.82 18.22H8.82001ZM8.82001 4.22001H16.82V7.22001H11.48L13.48 9.22001H19.82C20.37 9.22001 20.82 9.67001 20.82 10.22V14.22L18.82 14.23V12.22H16.48L20.48 16.22H22.82V10.22C22.82 8.56001 21.48 7.22001 19.82 7.22001H18.82V2.22001H6.82001V2.58001L8.82001 4.58001V4.22001Z" fill="black"/>
<path d="M18.82 11.73C19.3723 11.73 19.82 11.2823 19.82 10.73C19.82 10.1777 19.3723 9.73001 18.82 9.73001C18.2677 9.73001 17.82 10.1777 17.82 10.73C17.82 11.2823 18.2677 11.73 18.82 11.73Z" fill="black"/>
</g>
<defs>
<clipPath id="clip0_5_32384">
<rect width="24" height="24" fill="white"/>
</clipPath>
</defs>
</svg>
