<svg width="24" height="24" viewBox="0 0 24 24" fill="none" xmlns="http://www.w3.org/2000/svg">
<path d="M23.71 17.24C20.66 14.35 16.54 12.57 12 12.57C7.46 12.57 3.34 14.35 0.29 17.24C0.11 17.42 0 17.67 0 17.95C0 18.23 0.11 18.48 0.29 18.66L2.77 21.14C2.95 21.32 3.2 21.43 3.48 21.43C3.75 21.43 4 21.32 4.18 21.15C4.97 20.41 5.87 19.79 6.84 19.3C7.17 19.14 7.4 18.8 7.4 18.4V15.3C8.85 14.82 10.4 14.57 12 14.57C13.6 14.57 15.15 14.82 16.6 15.29V18.39C16.6 18.78 16.83 19.13 17.16 19.29C18.14 19.78 19.03 20.41 19.82 21.14C20 21.32 20.25 21.42 20.52 21.42C20.8 21.42 21.05 21.31 21.23 21.13L23.71 18.65C23.89 18.47 24 18.22 24 17.94C24 17.67 23.89 17.42 23.71 17.24ZM5.4 17.8C4.74 18.17 4.11 18.6 3.53 19.07L2.46 18C3.37 17.25 4.36 16.61 5.41 16.1V17.8H5.4ZM20.47 19.06C19.88 18.58 19.26 18.16 18.6 17.79V16.09C19.64 16.6 20.63 17.24 21.54 17.99L20.47 19.06ZM21.16 6.83001L19.75 5.42001L16.19 8.97001L17.6 10.38C17.6 10.38 21.05 6.86001 21.16 6.83001ZM11 2.57001H13V7.57001H11V2.57001ZM6.4 10.38L7.81 8.97001L4.26 5.41001L2.84 6.83001C2.95 6.86001 6.4 10.38 6.4 10.38Z" fill="black"/>
</svg>
