<svg width="24" height="24" viewBox="0 0 24 24" fill="none" xmlns="http://www.w3.org/2000/svg">
<path d="M21.79 17.86L23.79 19.86H24V17.86H21.79ZM1.11 2.83999L2.66 4.39999C2.25 4.76999 2 5.28999 2 5.87999V15.86C2 16.96 2.9 17.86 4.01 17.86H0V19.86H18.13L20.84 22.57L22.25 21.16L2.52 1.42999L1.11 2.83999ZM4 5.87999H4.13L9.08 10.81C7.94 11.93 7.31 13.38 7 14.86C7.96 13.57 9.13 12.78 10.67 12.4L14.13 15.88H4V5.87999ZM20 5.87999V16.07L21.3 17.37C21.72 17 22 16.48 22 15.88V5.87999C22 4.76999 21.1 3.87999 20 3.87999H7.8L9.8 5.87999H20ZM12.93 9.00999L15.72 11.79L17 10.59L13 6.85999V8.98999L12.93 9.00999Z" fill="black"/>
</svg>
