<svg width="24" height="24" viewBox="0 0 24 24" fill="none" xmlns="http://www.w3.org/2000/svg">
<path d="M2.81 2.10001L1.39 3.51001L3.98 6.10001C2.2 7.14001 1 9.08001 1 11.29C1 14.6 3.69 17.29 7 17.29C9.22 17.29 11.15 16.08 12.19 14.29L19.78 21.9L21.19 20.49L2.81 2.10001ZM7 15.29C4.79 15.29 3 13.5 3 11.29C3 9.62001 4.02 8.19001 5.47 7.59001L7.18 9.30001C7.12 9.29001 7.06 9.29001 7 9.29001C5.9 9.29001 5 10.19 5 11.29C5 12.39 5.9 13.29 7 13.29C8.1 13.29 9 12.39 9 11.29C9 11.23 9 11.17 8.99 11.11L10.73 12.85C10.22 13.77 9.14 15.29 7 15.29ZM17 13.46V12.29H15.83L17 13.46ZM13.83 10.29H21V12.29H19V15.29L21 17.29V14.29H23V8.29001H11.83L13.83 10.29Z" fill="black"/>
</svg>
