<svg width="24" height="24" viewBox="0 0 24 24" fill="none" xmlns="http://www.w3.org/2000/svg">
<path d="M4 9.59003H9C9 8.49003 8.1 7.59003 7 7.59003H4C3.45 7.59003 3 8.04003 3 8.59003C3 9.14003 3.45 9.59003 4 9.59003Z" fill="black"/>
<path d="M22 14.65V8.59003C22 7.49003 21.1 6.59003 20 6.59003H13.71L12.65 5.53003L14.06 4.12003L13.35 3.41003L9.82 6.94003L10.53 7.65003L11.94 6.24003L13 7.30003V9.59003C13 10.69 12.1 11.59 11 11.59H8.96C8.74 11.43 8.51 11.29 8.27 11.16L7.87 12.05L7.41 11.84L7.81 10.94C7.26 10.72 6.64 10.59 6 10.59C5.47 10.59 4.96 10.7 4.48 10.85L4.82 11.76L4.35 11.94L4 11.01C2.94 11.47 2.09 12.29 1.57 13.32L2.46 13.72L2.25 14.18L1.35 13.78C1.13 14.33 1 14.95 1 15.59C1 16.12 1.11 16.63 1.26 17.11L2.17 16.77L2.35 17.24L1.42 17.59C1.88 18.65 2.7 19.5 3.73 20.02L4.13 19.13L4.59 19.34L4.19 20.24C4.74 20.46 5.36 20.59 6 20.59C6.53 20.59 7.04 20.48 7.52 20.33L7.18 19.42L7.65 19.24L8 20.17C9.06 19.71 9.91 18.89 10.43 17.86L9.54 17.46L9.75 17L10.65 17.4C10.75 17.14 10.83 16.86 10.89 16.58H16.05C16.03 16.75 16 16.92 16 17.09C16 19.02 17.57 20.59 19.5 20.59C21.43 20.59 23 19.02 23 17.09C23 16.14 22.62 15.28 22 14.65ZM6 18.59C4.34 18.59 3 17.25 3 15.59C3 13.93 4.34 12.59 6 12.59C7.66 12.59 9 13.93 9 15.59C9 17.25 7.66 18.59 6 18.59ZM10.87 14.59C10.83 14.41 10.79 14.24 10.74 14.07L9.83 14.41L9.65 13.94L10.58 13.59H11C13.21 13.59 15 11.8 15 9.59003V8.59003H20V13.64C19.84 13.62 19.67 13.59 19.5 13.59C18.55 13.59 17.69 13.97 17.06 14.59H10.87ZM19.5 18.59C18.67 18.59 18 17.92 18 17.09C18 16.26 18.67 15.59 19.5 15.59C20.33 15.59 21 16.26 21 17.09C21 17.92 20.33 18.59 19.5 18.59Z" fill="black"/>
</svg>
