<svg width="24" height="24" viewBox="0 0 24 24" fill="none" xmlns="http://www.w3.org/2000/svg">
<path d="M20.8388 7.40127C21.2288 7.01127 21.2288 6.38127 20.8388 5.99127L18.0088 3.16127C17.6188 2.77127 16.9888 2.77127 16.5988 3.16127L12.1088 7.65127L8.21877 3.76127C7.43878 2.98127 6.16877 2.98127 5.38877 3.76127L3.48877 5.66127C2.70877 6.44127 2.70877 7.71127 3.48877 8.49127L7.37877 12.3813L2.86877 16.8913V21.1313H7.10877L11.6288 16.6113L15.5188 20.5013C16.4688 21.4513 17.7488 21.1013 18.3488 20.5013L20.2488 18.6013C21.0288 17.8213 21.0288 16.5513 20.2488 15.7713L16.3588 11.8813L20.8388 7.40127ZM4.90877 7.07127L6.79877 5.17127L8.06877 6.44127L6.88877 7.63127L8.29877 9.04127L9.48877 7.85127L10.6888 9.05127L8.78877 10.9513L4.90877 7.07127ZM16.1388 14.5113L14.9488 15.7013L16.3588 17.1113L17.5488 15.9213L18.8188 17.1913L16.9188 19.0913L13.0288 15.2013L14.9288 13.3013L16.1388 14.5113ZM6.27877 19.1313H4.86877V17.7213L14.4788 8.11127L15.8888 9.52127L6.27877 19.1313ZM15.8888 6.69127L17.2988 5.28127L18.7088 6.69127L17.2988 8.10127L15.8888 6.69127Z" fill="black"/>
</svg>
