<svg width="24" height="24" viewBox="0 0 24 24" fill="none" xmlns="http://www.w3.org/2000/svg">
<path d="M19.56 11.3611L13 8.44109V7.00109C13 6.45109 12.55 6.00109 12 6.00109C11.45 6.00109 11 5.55109 11 5.00109C11 4.45109 11.45 4.00109 12 4.00109C12.55 4.00109 13 4.45109 13 5.00109H15C15 3.16109 13.34 1.70109 11.44 2.05109C10.26 2.27109 9.29 3.22109 9.06 4.40109C8.76 5.96109 9.66 7.34109 11 7.82109V8.45109L4.44 11.3711C3.56 11.7511 3 12.6211 3 13.5711V13.5811C3 14.9211 4.08 16.0011 5.42 16.0011H7V22.0011H17V16.0011H18.58C19.92 16.0011 21 14.9211 21 13.5811V13.5711C21 12.6211 20.44 11.7511 19.56 11.3611ZM15 20.0011H9V15.0011H15V20.0011ZM18.58 14.0011H17V13.0011H7V14.0011H5.42C4.96 14.0011 4.84 13.3511 5.25 13.1911L12 10.1911L18.75 13.1911C19.17 13.3811 19.03 14.0011 18.58 14.0011Z" fill="black"/>
</svg>
