<svg width="24" height="24" viewBox="0 0 24 24" fill="none" xmlns="http://www.w3.org/2000/svg">
<path d="M10.4988 11.5013H12.6188L18.7788 5.34128L16.6588 3.22128L10.4988 9.38128V11.5013ZM20.2088 2.50128L19.4988 1.79128C19.1088 1.40128 18.4788 1.40128 18.0888 1.79128L17.3688 2.51128L19.4888 4.63128L20.2088 3.91128C20.5988 3.52128 20.5988 2.89128 20.2088 2.50128ZM17.3988 9.55128C17.4588 9.91128 17.4988 10.2913 17.4988 10.7013C17.4988 12.4113 16.4188 15.3413 11.4988 19.8413C6.57878 15.3513 5.49878 12.4113 5.49878 10.7013C5.49878 6.67128 8.58878 4.50128 11.4988 4.50128C11.8188 4.50128 12.1488 4.53128 12.4688 4.58128L14.1188 2.93128C13.2788 2.66128 12.3988 2.50128 11.4988 2.50128C7.29878 2.50128 3.49878 5.72128 3.49878 10.7013C3.49878 14.0213 6.16878 17.9513 11.4988 22.5013C16.8288 17.9513 19.4988 14.0213 19.4988 10.7013C19.4988 9.69128 19.3388 8.76128 19.0488 7.90128L17.3988 9.55128Z" fill="black"/>
</svg>
