<svg width="24" height="24" viewBox="0 0 24 24" fill="none" xmlns="http://www.w3.org/2000/svg">
<path d="M19.0005 9C17.0005 7 15.9905 2 9.97045 2C4.95045 2 1.94045 6 2.00045 11.52C2.06045 17.04 6.96045 19 9.97045 19C11.9805 19 11.9805 22 15.9905 22C19.0005 22 22.0005 19 22.0005 15.02C22.0005 12 21.0105 11 19.0005 9ZM15.9905 20C14.5005 20 14.0305 19.5 13.3105 18.74C12.6605 18.05 11.6605 17 9.97045 17C8.33045 17 4.05045 16.01 4.00045 11.5C3.97045 8.99 4.68045 6.88 5.99045 5.55C7.01045 4.52 8.35045 4 9.97045 4C13.3105 4 14.4805 5.86 15.8305 8.02C16.3805 8.9 16.9005 9.73 17.5905 10.41C19.4905 12.3 20.0005 12.81 20.0005 15.02C20.0005 17.87 17.8805 20 15.9905 20Z" fill="black"/>
<path d="M12.0005 15.5C13.9334 15.5 15.5005 13.933 15.5005 12C15.5005 10.067 13.9334 8.5 12.0005 8.5C10.0675 8.5 8.50045 10.067 8.50045 12C8.50045 13.933 10.0675 15.5 12.0005 15.5Z" fill="black"/>
</svg>
