<svg width="24" height="24" viewBox="0 0 24 24" fill="none" xmlns="http://www.w3.org/2000/svg">
<path d="M21.6887 18.6688L16.3887 13.3688H15.3987L12.8587 15.9088V16.8988L18.1587 22.1988C18.5487 22.5888 19.1787 22.5888 19.5687 22.1988L21.6887 20.0788C22.0787 19.6988 22.0787 19.0588 21.6887 18.6688ZM18.8587 20.0888L14.6187 15.8488L15.3287 15.1388L19.5687 19.3788L18.8587 20.0888Z" fill="black"/>
<path d="M17.3587 10.6888L18.7687 9.27878L20.8887 11.3988C22.0587 10.2288 22.0587 8.32878 20.8887 7.15878L17.3487 3.61878L15.9387 5.02878V2.20878L15.2387 1.49878L11.6987 5.03878L12.4087 5.74878H15.2387L13.8287 7.15878L14.8887 8.21878L11.9987 11.1088L7.86874 6.97878V5.55878L4.84874 2.53878L2.01874 5.36878L5.04874 8.39878H6.45874L10.5887 12.5288L9.73874 13.3788H7.61874L2.31874 18.6788C1.92874 19.0688 1.92874 19.6988 2.31874 20.0888L4.43874 22.2088C4.82874 22.5988 5.45874 22.5988 5.84874 22.2088L11.1487 16.9088V14.7888L16.2987 9.63878L17.3587 10.6888ZM9.37874 15.8388L5.13874 20.0788L4.42874 19.3688L8.66874 15.1288L9.37874 15.8388Z" fill="black"/>
</svg>
