<svg width="24" height="24" viewBox="0 0 24 24" fill="none" xmlns="http://www.w3.org/2000/svg">
<path d="M11.93 5.56502L17.67 10.035L15.78 11.505L17.21 12.925L20.93 10.035L11.93 3.03502L9.33999 5.05502L10.76 6.47502L11.93 5.56502ZM20.93 15.105L19.3 13.835L18.63 14.355L20.06 15.785L20.93 15.105ZM3.33999 1.89502L1.92999 3.30502L6.14999 7.52502L2.92999 10.035L11.93 17.035L14.03 15.405L15.45 16.825L11.92 19.575L4.54999 13.845L2.92999 15.105L11.93 22.105L16.88 18.255L20.66 22.035L22.07 20.625L3.33999 1.89502ZM11.93 14.505L6.18999 10.035L7.57999 8.95502L12.6 13.975L11.93 14.505Z" fill="black"/>
</svg>
