<svg width="24" height="24" viewBox="0 0 24 24" fill="none" xmlns="http://www.w3.org/2000/svg">
<path d="M19.4818 12.6016C17.9118 8.52161 12.3218 8.3016 13.6718 2.37161C13.7718 1.93161 13.3018 1.59161 12.9218 1.82161C9.29183 3.96161 6.68183 8.25161 8.87183 13.8716C9.05183 14.3316 8.51183 14.7616 8.12183 14.4616C6.31183 13.0916 6.12183 11.1216 6.28183 9.71161C6.34183 9.19161 5.66183 8.94161 5.37183 9.3716C4.69183 10.4116 4.00183 12.0916 4.00183 14.6216C4.38183 20.2216 9.11183 21.9416 10.8118 22.1616C13.2418 22.4716 15.8718 22.0216 17.7618 20.2916C19.8418 18.3616 20.6018 15.2816 19.4818 12.6016ZM10.2018 17.6316C11.6418 17.2816 12.3818 16.2416 12.5818 15.3216C12.9118 13.8916 11.6218 12.4916 12.4918 10.2316C12.8218 12.1016 15.7618 13.2716 15.7618 15.3116C15.8418 17.8416 13.1018 20.0116 10.2018 17.6316Z" fill="black"/>
</svg>
