<svg width="24" height="24" viewBox="0 0 24 24" fill="none" xmlns="http://www.w3.org/2000/svg">
<path d="M1.99994 19C1.99994 20.1 2.89994 21 3.99994 21H19.9999C21.0999 21 21.9999 20.1 21.9999 19V16H1.99994V19ZM3.99994 18H19.9999V19H3.99994V18Z" fill="black"/>
<path d="M18.6599 11.5C16.7099 11.5 16.5699 12.5 15.3299 12.5C14.1399 12.5 13.9099 11.5 11.9999 11.5C10.0499 11.5 9.90994 12.5 8.66994 12.5C7.47994 12.5 7.24994 11.5 5.33994 11.5C3.38994 11.5 3.24994 12.5 2.00994 12.5V14.5C3.90994 14.5 4.17994 13.5 5.35994 13.5C6.54994 13.5 6.77994 14.5 8.68994 14.5C10.6399 14.5 10.7799 13.5 12.0199 13.5C13.2099 13.5 13.4399 14.5 15.3499 14.5C17.2999 14.5 17.4399 13.5 18.6799 13.5C19.8699 13.5 20.0799 14.48 21.9999 14.5L21.9899 12.52C20.3799 12.19 20.3699 11.5 18.6599 11.5Z" fill="black"/>
<path d="M21.9999 9C22.0199 5 17.7199 3 11.9999 3C6.28994 3 1.99994 5 1.99994 9V10H21.9999V9ZM4.17994 8C5.00994 5.81 8.60994 5 11.9999 5C15.3099 5 17.9299 5.73 19.1899 6.99C19.4899 7.3 19.7099 7.63 19.8399 8H4.17994Z" fill="black"/>
</svg>
