<svg width="24" height="24" viewBox="0 0 24 24" fill="none" xmlns="http://www.w3.org/2000/svg">
<path d="M16.705 13.345V5.345C16.705 3.585 18.945 1.345 21.705 1.345V17.515L19.705 15.515V13.345H16.705ZM21.195 22.655L10.725 12.195C10.395 12.285 10.065 12.345 9.70502 12.345V21.345H7.70502V12.345C5.49502 12.345 3.70502 10.555 3.70502 8.345V5.175L1.39502 2.855L2.80502 1.445L22.605 21.245L21.195 22.655ZM6.87502 8.345L5.70502 7.175V8.345H6.87502ZM9.70502 1.345H7.70502V3.515L9.70502 5.515V1.345ZM13.705 8.345V1.345H11.705V7.515L13.555 9.365C13.645 9.035 13.705 8.705 13.705 8.345Z" fill="black"/>
</svg>
