<svg width="24" height="24" viewBox="0 0 24 24" fill="none" xmlns="http://www.w3.org/2000/svg">
<path d="M9.21498 12.695C10.045 12.695 10.715 13.365 10.715 14.195C10.715 15.025 10.045 15.695 9.21498 15.695C8.38498 15.695 7.71498 15.025 7.71498 14.195C7.71498 13.365 8.38498 12.695 9.21498 12.695ZM20.495 22.305L18.855 20.665C18.805 20.675 18.765 20.695 18.715 20.695H17.715C17.165 20.695 16.715 20.245 16.715 19.695V18.695H8.71498V19.695C8.71498 20.245 8.26498 20.695 7.71498 20.695H6.71498C6.16498 20.695 5.71498 20.245 5.71498 19.695V17.915C5.10498 17.365 4.71498 16.575 4.71498 15.695V6.52501L2.10498 3.91501L3.51498 2.50501L21.895 20.885L20.495 22.305ZM6.71498 8.52501V9.69501H7.88498L6.71498 8.52501ZM14.885 16.695L9.88498 11.695H6.71498V15.695C6.71498 16.065 6.92498 16.315 7.05498 16.425L7.34498 16.695H14.885ZM12.715 3.69501C16.405 3.69501 17.825 4.15501 18.375 4.68501H8.53498L10.535 6.68501H18.715V9.69501H13.545L15.545 11.695H18.715V14.865L20.525 16.675C20.635 16.365 20.715 16.045 20.715 15.695V5.69501C20.715 2.19501 17.135 1.69501 12.715 1.69501C10.195 1.69501 7.95498 1.85501 6.49498 2.64501L8.02498 4.17501C8.88498 3.89501 10.315 3.69501 12.715 3.69501Z" fill="black"/>
</svg>
