<svg width="24" height="24" viewBox="0 0 24 24" fill="none" xmlns="http://www.w3.org/2000/svg">
<path d="M21 13.12H17.93C17.88 12.73 17.81 12.35 17.71 11.98L20.29 10.49L19.29 8.76L16.92 10.12C16.64 9.64 16.3 9.21 15.93 8.83C16.03 8.27 16.13 7.14001 15.35 5.94001L17 4.29L15.59 2.88L13.87 4.6C12.19 3.71 10.77 4.27 10.14 4.6L8.41 2.88L7 4.29L8.65 5.94001C7.87 7.14001 7.97 8.28 8.07 8.83C7.7 9.22 7.36 9.65 7.08 10.12L4.71 8.75L3.71 10.48L6.29 11.97C6.19 12.34 6.12 12.72 6.07 13.11H3V15.11H6.07C6.12 15.5 6.19 15.88 6.29 16.25L3.71 17.74L4.71 19.47L7.08 18.12C8.16 19.93 9.96 21.12 12 21.12C14.04 21.12 15.84 19.93 16.92 18.12L19.29 19.49L20.29 17.76L17.71 16.27C17.81 15.9 17.88 15.52 17.93 15.13H21V13.12ZM12 6.12C12.88 6.12 13.62 6.69001 13.88 7.48001C13.29 7.25001 12.66 7.12 12 7.12C11.34 7.12 10.71 7.25001 10.12 7.48001C10.38 6.69001 11.12 6.12 12 6.12ZM12 19.12C9.79 19.12 8 16.88 8 14.12C8 11.36 9.79 9.12 12 9.12C14.21 9.12 16 11.36 16 14.12C16 16.88 14.21 19.12 12 19.12Z" fill="black"/>
<path d="M13 11.12H11V17.12H13V11.12Z" fill="black"/>
</svg>
