<svg width="24" height="24" viewBox="0 0 24 24" fill="none" xmlns="http://www.w3.org/2000/svg">
<path d="M19.2788 4.93001L17.1588 2.81001C16.3788 2.03001 15.1088 2.03001 14.3288 2.81001L11.4988 5.64001L13.6187 7.76001L15.7388 5.64001L19.2788 9.18001C20.4488 8.00001 20.4488 6.10001 19.2788 4.93001Z" fill="black"/>
<path d="M5.48875 13.77C6.07875 14.36 7.02875 14.36 7.60875 13.77L10.0788 11.3L7.95875 9.17001L5.48875 11.64C4.89875 12.23 4.89875 13.18 5.48875 13.77Z" fill="black"/>
<path d="M15.0387 7.76001L13.6187 9.18001L10.4387 6.00001C9.84875 5.40001 8.89875 5.40001 8.31875 5.99001C7.72875 6.58001 7.72875 7.53001 8.31875 8.11001L11.4988 11.29L4.42875 18.36C3.64875 19.14 3.64875 20.41 4.42875 21.19C5.20875 21.97 6.47875 21.97 7.25875 21.19L16.4488 12C16.8388 12.39 17.4688 12.39 17.8588 12C18.2488 11.61 18.2488 10.98 17.8588 10.59L15.0387 7.76001Z" fill="black"/>
</svg>
