<svg width="24" height="24" viewBox="0 0 24 24" fill="none" xmlns="http://www.w3.org/2000/svg">
<path d="M16.73 10.77C16.73 10.84 16.73 10.9 16.73 10.97C16.73 13.31 14.78 16.41 10.73 20.11C6.67998 16.41 4.72998 13.32 4.72998 10.97C4.72998 7.34 7.37998 4.77 10.73 4.77C11.07 4.77 11.41 4.8 11.73 4.85V2.83C11.4 2.79 11.07 2.77 10.73 2.77C6.52998 2.77 2.72998 5.99 2.72998 10.97C2.72998 14.29 5.39998 18.22 10.73 22.77C16.06 18.22 18.73 14.29 18.73 10.97C18.73 10.9 18.73 10.84 18.73 10.77H16.73Z" fill="black"/>
<path d="M10.73 12.77C11.8345 12.77 12.73 11.8746 12.73 10.77C12.73 9.66543 11.8345 8.77 10.73 8.77C9.62541 8.77 8.72998 9.66543 8.72998 10.77C8.72998 11.8746 9.62541 12.77 10.73 12.77Z" fill="black"/>
<path d="M21.27 2.65L19.85 1.23L17.73 3.36L15.61 1.23L14.19 2.65L16.32 4.77L14.19 6.89L15.61 8.31L17.73 6.18L19.85 8.31L21.27 6.89L19.14 4.77L21.27 2.65Z" fill="black"/>
</svg>
