<svg width="30" height="32" viewBox="0 0 30 32" fill="none" xmlns="http://www.w3.org/2000/svg">
<path d="M26.2512 31.832H10.5005C8.57538 31.832 7.00031 30.4228 7.00031 28.7003V9.91001C7.00031 8.18756 8.57538 6.77829 10.5005 6.77829H26.2512C28.1762 6.77829 29.7513 8.18756 29.7513 9.91001V28.7003C29.7513 30.4228 28.1762 31.832 26.2512 31.832ZM26.2512 9.91001H10.5005V28.7003H26.2512V9.91001ZM0 11.4759V14.6076H3.50015V11.4759H0ZM0 20.0881H3.50015V16.9564H0V20.0881ZM12.2505 3.64657H15.7507V0.514854H12.2505V3.64657ZM0 5.99536V9.12708H3.50015V5.99536H0ZM3.50015 0.514854C1.57507 0.514854 0 1.92413 0 3.64657H3.50015V0.514854ZM9.62543 0.514854H6.12527V3.64657H9.62543V0.514854ZM18.3758 0.514854V3.64657H21.876C21.876 1.92413 20.3009 0.514854 18.3758 0.514854ZM3.50015 25.5686V22.4369H0C0 24.1593 1.57507 25.5686 3.50015 25.5686Z" fill="white"/>
</svg>
