<svg width="16" height="16" viewBox="0 0 16 16" fill="none" xmlns="http://www.w3.org/2000/svg">
<g clip-path="url(#clip0_35_7555)">
<path d="M4.00002 6.66666C3.26669 6.66666 2.66669 7.26666 2.66669 7.99999C2.66669 8.73332 3.26669 9.33332 4.00002 9.33332C4.73335 9.33332 5.33335 8.73332 5.33335 7.99999C5.33335 7.26666 4.73335 6.66666 4.00002 6.66666ZM12 6.66666C11.2667 6.66666 10.6667 7.26666 10.6667 7.99999C10.6667 8.73332 11.2667 9.33332 12 9.33332C12.7334 9.33332 13.3334 8.73332 13.3334 7.99999C13.3334 7.26666 12.7334 6.66666 12 6.66666ZM8.00002 6.66666C7.26669 6.66666 6.66669 7.26666 6.66669 7.99999C6.66669 8.73332 7.26669 9.33332 8.00002 9.33332C8.73335 9.33332 9.33335 8.73332 9.33335 7.99999C9.33335 7.26666 8.73335 6.66666 8.00002 6.66666Z" fill="#ffffff"/>
</g>
<defs>
<clipPath id="clip0_35_7555">
<rect width="16" height="16" fill="white"/>
</clipPath>
</defs>
</svg>
