<svg width="19" height="19" viewBox="0 0 19 19" fill="none" xmlns="http://www.w3.org/2000/svg">
<path d="M16.0917 6.66667V2.75833H12.1833L9.425 0L6.66667 2.75833H2.75833V6.66667L0 9.425L2.75833 12.1833V16.0917H6.66667L9.425 18.85L12.1833 16.0917H16.0917V12.1833L18.85 9.425L16.0917 6.66667ZM14.425 11.4917V14.425H11.4917L9.425 16.4917L7.35833 14.425H4.425V11.4917L2.35833 9.425L4.425 7.35833V4.425H7.35833L9.425 2.35833L11.4917 4.425H14.425V7.35833L16.4917 9.425L14.425 11.4917ZM9.425 4.84167C6.9 4.84167 4.84167 6.9 4.84167 9.425C4.84167 11.95 6.9 14.0083 9.425 14.0083C11.95 14.0083 14.0083 11.95 14.0083 9.425C14.0083 6.9 11.95 4.84167 9.425 4.84167ZM9.425 12.3417C7.81667 12.3417 6.50833 11.0333 6.50833 9.425C6.50833 7.81667 7.81667 6.50833 9.425 6.50833C11.0333 6.50833 12.3417 7.81667 12.3417 9.425C12.3417 11.0333 11.0333 12.3417 9.425 12.3417Z" fill="white"/>
<path d="M9.425 11.0917C10.3455 11.0917 11.0917 10.3455 11.0917 9.425C11.0917 8.50453 10.3455 7.75833 9.425 7.75833C8.50453 7.75833 7.75833 8.50453 7.75833 9.425C7.75833 10.3455 8.50453 11.0917 9.425 11.0917Z" fill="white"/>
</svg>
