<svg width="143" height="25" viewBox="0 0 143 25" fill="none" xmlns="http://www.w3.org/2000/svg">
<path d="M61.5219 19.0341C61.1422 19.0311 60.7668 19.1127 60.4239 19.2729C60.081 19.433 59.7794 19.6675 59.5419 19.9587C59.3852 19.667 59.1474 19.4253 58.8563 19.2615C58.5651 19.0978 58.2325 19.0189 57.8974 19.0341C57.5609 19.0302 57.227 19.0924 56.9152 19.2168C56.6034 19.3413 56.32 19.5257 56.0815 19.7591C56.0155 19.5618 55.8829 19.3925 55.7057 19.2794C55.5285 19.1662 55.3174 19.1159 55.1071 19.1367C54.9296 19.1443 54.7532 19.1675 54.5799 19.2061C54.6919 19.7463 54.7466 20.2964 54.7432 20.8477V24.7071H56.1788V20.7726C56.5036 20.4518 56.9329 20.2535 57.3914 20.2125C58.0507 20.2125 58.3586 20.6868 58.3586 21.3349V24.7062H59.8037V20.7717C60.126 20.448 60.5563 20.2496 61.0155 20.2129C61.6729 20.2129 61.9736 20.6872 61.9736 21.3354V24.7066H63.4209V21.1149C63.4209 19.8546 62.6916 19.0341 61.5219 19.0341Z" fill="#FF7A00"/>
<path d="M45.7641 23.6863C45.3101 23.6579 44.8841 23.4605 44.5728 23.1344C44.2615 22.8082 44.0882 22.3777 44.0882 21.9305C44.0882 21.4832 44.2615 21.0527 44.5728 20.7265C44.8841 20.4004 45.3101 20.203 45.7641 20.1746C46.2393 20.1746 46.4392 20.3164 46.7539 20.3164C46.9043 20.3176 47.0512 20.2719 47.1736 20.186C47.296 20.1001 47.3876 19.9783 47.4353 19.8381C47.5257 19.6603 47.5813 19.5612 47.5813 19.5612C46.9691 19.1956 46.2627 19.0113 45.5466 19.0304C43.7353 19.0304 42.6528 20.3062 42.6528 21.9358C42.6294 22.3176 42.6878 22.7 42.8243 23.0582C42.9608 23.4164 43.1723 23.7424 43.4451 24.0152C43.7179 24.2879 44.0459 24.5012 44.408 24.6414C44.77 24.7815 45.1579 24.8454 45.5466 24.8287C46.2751 24.8475 46.9922 24.6483 47.603 24.2575L47.1057 23.2907C46.7057 23.5451 46.2404 23.6823 45.7641 23.6863Z" fill="#FF7A00"/>
<path d="M30.003 19.0344C28.6262 19.0344 27.4637 20.1355 27.4637 21.9389C27.4637 23.7846 28.5909 24.8319 30.2748 24.8319C31.0314 24.8601 31.7759 24.6388 32.39 24.2033L32.2227 23.9366C32.1651 23.8178 32.0747 23.7173 31.9618 23.6465C31.8489 23.5758 31.7181 23.5377 31.5842 23.5365C31.1104 23.5365 31.0498 23.7308 30.4086 23.7308C30.2146 23.739 30.0209 23.7088 29.8391 23.6419C29.6572 23.575 29.4909 23.4728 29.3501 23.3414C29.2093 23.21 29.0968 23.0521 29.0193 22.8771C28.9419 22.702 28.9011 22.5134 28.8993 22.3226H32.5858V21.9029C32.5848 20.1746 31.5725 19.0344 30.003 19.0344ZM28.8934 21.3193C28.8747 21.0162 28.9781 20.7181 29.1812 20.4894C29.3842 20.2606 29.6707 20.1196 29.9786 20.0968C30.134 20.1034 30.2864 20.1404 30.427 20.2058C30.5676 20.2711 30.6934 20.3635 30.7971 20.4774C30.9009 20.5913 30.9803 20.7245 31.0308 20.8691C31.0814 21.0137 31.102 21.1667 31.0914 21.3193H28.8934Z" fill="#FF7A00"/>
<path d="M35.0457 23.145V17.3662C35.055 17.2158 35.0325 17.0652 34.9796 16.9238C34.9267 16.7824 34.8445 16.6533 34.7383 16.5447C34.632 16.4361 34.5041 16.3503 34.3624 16.2928C34.2208 16.2353 34.0686 16.2072 33.9153 16.2105H33.6079V23.7122C33.5969 23.8666 33.6207 24.0215 33.6776 24.1659C33.7344 24.3103 33.823 24.4405 33.9368 24.5474C34.0507 24.6543 34.1872 24.7353 34.3365 24.7844C34.4858 24.8336 34.6443 24.8498 34.8007 24.832C34.9694 24.8429 35.1385 24.8169 35.2959 24.756C35.4532 24.6951 35.5949 24.6007 35.7108 24.4796C35.8266 24.3585 35.9138 24.2137 35.966 24.0556C36.0183 23.8975 36.0343 23.73 36.0129 23.5651C35.8759 23.6266 35.7276 23.6602 35.577 23.6638C35.5058 23.671 35.4337 23.6626 35.3662 23.6391C35.2986 23.6157 35.2372 23.5777 35.1864 23.5281C35.1356 23.4785 35.0966 23.4184 35.0722 23.3521C35.0479 23.2859 35.0389 23.2151 35.0457 23.145Z" fill="#FF7A00"/>
<path d="M25.4334 22.9495V20.2014H26.6353L27.054 19.1377H25.4334V17.4761C25.4334 17.4761 25.3046 17.4761 25.2978 17.4761C24.658 17.4761 23.9942 17.7428 23.9942 19.1248V19.1377H22.9348V20.201H23.9974V23.4385C23.9754 23.6196 23.9941 23.8033 24.0521 23.9766C24.1101 24.1498 24.2061 24.3085 24.3333 24.4413C24.4605 24.5741 24.6158 24.6779 24.7882 24.7454C24.9606 24.8128 25.146 24.8422 25.3312 24.8316C25.9643 24.8316 26.7781 24.6422 26.7781 23.4091C26.5712 23.5415 26.3325 23.6181 26.0859 23.6314C25.6184 23.6349 25.4334 23.3544 25.4334 22.9495Z" fill="#FF7A00"/>
<path d="M39.0238 19.0344C37.647 19.0344 36.4845 20.1355 36.4845 21.9389C36.4845 23.7846 37.6108 24.8319 39.2951 24.8319C40.0517 24.8601 40.7962 24.6388 41.4103 24.2033L41.2434 23.9366C41.1857 23.8178 41.0953 23.7173 40.9823 23.6465C40.8693 23.5758 40.7384 23.5377 40.6045 23.5365C40.1307 23.5365 40.0701 23.7308 39.4289 23.7308C39.235 23.7387 39.0414 23.7083 38.8597 23.6413C38.6779 23.5743 38.5117 23.4721 38.3709 23.3407C38.2301 23.2094 38.1176 23.0516 38.04 22.8767C37.9624 22.7018 37.9213 22.5134 37.9192 22.3226H41.606V21.9029C41.6056 20.1746 40.5932 19.0344 39.0238 19.0344ZM37.9142 21.3193C37.8955 21.0162 37.9988 20.7181 38.2019 20.4894C38.405 20.2606 38.6914 20.1196 38.9994 20.0968C39.1547 20.1034 39.3072 20.1404 39.4477 20.2058C39.5883 20.2711 39.7141 20.3635 39.8178 20.4774C39.9214 20.5914 40.0008 20.7245 40.0513 20.8691C40.1018 21.0137 40.1223 21.1668 40.1117 21.3193H37.9142Z" fill="#FF7A00"/>
<path d="M50.8962 24.832C49.1373 24.832 48.0774 23.69 48.0774 21.9346C48.0774 20.1867 49.1228 19.0327 50.8962 19.0327C52.6695 19.0327 53.7167 20.1885 53.7167 21.9346C53.7167 23.5868 52.7523 24.832 50.8962 24.832ZM50.8962 23.7438C51.7783 23.7438 52.2861 22.9983 52.2861 21.9341C52.2861 20.8801 51.7887 20.12 50.8962 20.12C50.0285 20.12 49.508 20.8579 49.508 21.9341C49.508 22.9725 50.0036 23.7438 50.8962 23.7438Z" fill="#FF7A00"/>
<path d="M4.59346 18.5282C3.72532 18.1281 3.01091 17.8067 3.01091 17.1546C3.01091 16.6563 3.41786 16.2936 4.21817 16.2936C4.48177 16.2952 4.74461 16.3216 5.00312 16.3723C5.13004 16.3962 5.25872 16.4098 5.3879 16.4132C6.08784 16.4132 6.48258 16.0033 6.74437 15.2245L6.85289 14.9067C5.9813 14.5547 5.04872 14.3718 4.10649 14.3679C1.73447 14.3679 0.482451 15.8633 0.482904 17.4156C0.460238 18.072 0.68832 18.7129 1.12225 19.2123C1.65935 19.7566 2.30223 20.1893 3.01272 20.4845C3.99029 20.9557 4.87199 21.3042 4.87199 22.003C4.87199 22.6254 4.22089 22.9761 3.34913 22.9761C2.50584 22.9367 1.68839 22.6775 0.980729 22.2249L0 24.0314C1.06789 24.6352 2.28296 24.9415 3.51462 24.9173C5.73019 24.9173 7.40317 23.6682 7.40317 21.7479C7.40497 19.836 5.85091 19.1274 4.59346 18.5282Z" fill="#EA002C"/>
<path d="M13.2519 19.4204L17.2679 14.5796H14.4071L11.2036 18.7581H11.1561V14.5796H8.79677V24.8343H8.93694C9.95655 24.8343 11.1706 24.3706 11.1706 22.6957V20.3397H11.2181L14.4831 24.7049H17.4845L13.2519 19.4204Z" fill="#EA002C"/>
<path d="M17.4017 3.59448C16.5715 3.74873 15.3403 4.48975 15.3444 5.80065C15.3475 6.99019 16.3391 7.71209 16.3391 9.27103C16.3451 9.75343 16.2223 10.2289 15.983 10.6501C15.7438 11.0713 15.3963 11.4235 14.9754 11.6715C15.2621 11.6466 15.5772 11.6301 15.9249 11.627C16.3235 11.6216 16.7218 11.6452 17.1168 11.6977L20.8421 7.20356C19.9029 5.82435 18.7408 4.60526 17.4017 3.59448Z" fill="#EA002C"/>
<path d="M20.5307 15.7309C21.0005 15.0134 21.0593 13.8696 21.0991 12.7046C21.1443 11.6181 21.3735 10.8007 22.8525 10.7953C23.1799 10.7953 23.4919 10.8398 24.0575 10.8367C25.6294 10.8312 27.1706 10.4082 28.518 9.61245C26.2203 8.15767 23.5715 7.32729 20.8413 7.20581C20.6297 7.79436 18.9793 12.3036 18.855 12.6677C19.1089 12.966 19.3327 13.2878 19.5233 13.6287C19.9363 14.2911 20.2742 14.996 20.5307 15.7309Z" fill="#EA002C"/>
<path d="M12.6626 12.0476C12.4745 12.0476 12.3809 11.9254 12.3552 11.7124C12.3294 11.4995 11.3993 3.12071 11.2609 1.85294C11.2406 1.66757 11.194 1.32751 11.1936 1.20616C11.1898 1.16795 11.1943 1.12939 11.2068 1.09303C11.2193 1.05667 11.2395 1.02333 11.2661 0.995215C11.2927 0.967103 11.325 0.944861 11.361 0.929959C11.397 0.915058 11.4358 0.907836 11.4748 0.908772C11.9161 0.908772 14.3234 1.46087 16.8749 3.22029C16.1397 3.42388 14.809 4.17645 14.8149 5.73362C14.8194 7.11163 15.8232 7.87088 15.8291 9.25334C15.8372 11.5026 13.2075 12.0467 12.6626 12.0476Z" fill="#FF7A00"/>
<path d="M20.7452 16.3292C20.7763 16.4166 20.815 16.5013 20.8609 16.5822C20.8817 16.6247 20.9142 16.6606 20.9547 16.6858C20.9953 16.7111 21.0422 16.7246 21.0902 16.7248C21.1643 16.72 21.2366 16.7008 21.3031 16.6684C21.4998 16.5795 29.2787 13.0198 30.4521 12.4877C30.6216 12.4076 30.9445 12.2654 31.0507 12.2041C31.0976 12.1819 31.1374 12.1475 31.1657 12.1046C31.194 12.0617 31.2098 12.012 31.2113 11.9609C31.2104 11.9079 31.1947 11.8561 31.166 11.8111C30.5477 11.0816 29.8202 10.4488 29.0083 9.93433C27.5376 10.8181 25.8522 11.2969 24.1287 11.3208C23.5594 11.3208 23.4314 11.2835 23.0435 11.2852C21.9131 11.2888 21.6278 11.7653 21.5866 12.7419C21.5794 12.9264 21.5758 13.1744 21.5654 13.4469C21.5283 14.3195 21.4234 15.5237 20.7452 16.3292Z" fill="#FF7A00"/>
<path d="M83.5136 19.7567H70.1397V18.3813H75.7365V16.87H73.6756C73.0794 16.9026 72.4894 16.7376 71.9999 16.4014C71.7918 16.2349 71.6274 16.0217 71.5204 15.7797C71.4134 15.5378 71.367 15.2742 71.3849 15.011V11.6104H82.1155V12.8799H73.6448V14.8598C73.6379 14.9637 73.6559 15.0676 73.6972 15.1634C73.7385 15.2592 73.802 15.3442 73.8827 15.4115C74.0463 15.5391 74.2504 15.6059 74.4592 15.6004H82.1458V16.87H77.9182V18.3813H83.5136V19.7567ZM82.2693 23.5049V24.85H74.154C73.5522 24.8854 72.9566 24.7145 72.4688 24.3664C72.2633 24.1947 72.1014 23.9783 71.9959 23.7343C71.8905 23.4902 71.8445 23.2254 71.8615 22.9608V20.8147H74.0445V22.7794C74.0372 22.8829 74.0557 22.9866 74.0984 23.0814C74.1411 23.1762 74.2068 23.2593 74.2896 23.3235C74.4485 23.4428 74.6432 23.5066 74.843 23.5049H82.2693ZM94.5227 12.0638V15.812H97.1977V11.6104H99.3192V24.8198H97.1968V17.2185H94.5218V21.6015H89.4025C88.8124 21.6324 88.2286 21.4703 87.7422 21.1405C87.5338 20.9758 87.3691 20.764 87.262 20.5232C87.155 20.2824 87.1087 20.0198 87.1272 19.7576V12.0638H89.2488V15.6155H92.4139V12.0638H94.5227ZM89.2488 19.4846C89.2421 19.5892 89.261 19.6938 89.3038 19.7898C89.3465 19.8857 89.412 19.9702 89.4947 20.0363C89.6667 20.1649 89.8783 20.2315 90.0943 20.2252H92.4157V17.006H89.2506L89.2488 19.4846ZM103.561 14.7692C103.555 14.8737 103.574 14.9783 103.616 15.0743C103.659 15.1702 103.725 15.2548 103.807 15.3208C103.974 15.4478 104.18 15.5145 104.391 15.5097H112.123V16.7642H103.684C103.082 16.7984 102.486 16.631 101.993 16.2894C101.785 16.1209 101.621 15.9063 101.514 15.6632C101.408 15.4202 101.361 15.1556 101.378 14.8914V11.385H103.561V14.7692ZM112.063 23.4596V24.8047H103.946C103.345 24.8397 102.75 24.6688 102.262 24.3211C102.057 24.1494 101.895 23.9329 101.789 23.6889C101.684 23.4449 101.638 23.1801 101.655 22.9155V20.8298H103.838V22.7492C103.832 22.8504 103.851 22.9515 103.894 23.0437C103.937 23.1359 104.002 23.2164 104.084 23.2782C104.243 23.3974 104.438 23.4612 104.637 23.4596H112.063ZM113.401 19.7567H100.025V18.3342H113.401V19.7567Z" fill="#EA002C"/>
<path d="M120.586 15.4191C120.421 15.6688 120.242 15.9086 120.048 16.137C119.824 16.4023 119.582 16.6522 119.324 16.8851C119.045 17.1391 118.752 17.3788 118.448 17.603C118.141 17.8294 117.811 18.0244 117.464 18.1849C117.29 17.9532 117.116 17.7309 116.941 17.5181C116.767 17.3053 116.593 17.0831 116.419 16.8513C116.593 16.7405 116.849 16.5617 117.187 16.3148C117.547 16.0511 117.886 15.7618 118.203 15.4493C118.54 15.1287 118.841 14.7741 119.102 14.3914C119.34 14.0752 119.477 13.6962 119.494 13.3032V11.7616H121.723V13.3032C121.738 13.7179 121.886 14.1173 122.146 14.4442C122.427 14.8321 122.749 15.1897 123.107 15.5111C123.436 15.8184 123.783 16.1061 124.147 16.3726C124.479 16.6144 124.707 16.7756 124.831 16.8562L124.301 17.523C124.132 17.7346 123.96 17.9569 123.786 18.1898C123.355 17.9745 122.948 17.7162 122.571 17.419C122.236 17.1573 121.918 16.8752 121.618 16.5744C121.374 16.3396 121.146 16.0897 120.934 15.8263C120.765 15.6096 120.665 15.4763 120.634 15.4262L120.586 15.4191ZM120.786 22.719V22.9609C120.789 23.1208 120.852 23.274 120.962 23.3916C121.045 23.4678 121.143 23.5255 121.251 23.5607C121.358 23.5959 121.472 23.6078 121.585 23.5956H129.01V24.8198H120.57C120.228 24.8289 119.887 24.7777 119.563 24.6687C119.326 24.59 119.112 24.4551 118.941 24.2757C118.779 24.1182 118.66 23.9234 118.595 23.709C118.529 23.4959 118.495 23.2743 118.495 23.0515V21.4646H126.627V20.5124H118.495V19.3033H128.903V22.719H120.786ZM128.903 11.6104V18.3343H126.72V14.979H124.137V13.5432H126.72V11.6086L128.903 11.6104ZM141.739 23.5049V24.8501H133.622C133.021 24.885 132.427 24.7141 131.939 24.3664C131.734 24.1948 131.572 23.9783 131.467 23.7343C131.361 23.4903 131.315 23.2254 131.332 22.9609V20.8147H133.515V22.7795C133.508 22.883 133.527 22.9867 133.569 23.0815C133.612 23.1764 133.678 23.2595 133.761 23.3236C133.92 23.4428 134.115 23.5066 134.315 23.5049H141.739ZM143 19.4545H137.881V21.9349H135.698V20.5124C135.704 20.2557 135.646 20.0014 135.529 19.7718C135.416 19.5603 135.134 19.4545 134.683 19.4545H129.61V18.0489H143V19.4545ZM141.586 11.6104V16.87H133.269C132.668 16.9038 132.072 16.7389 131.578 16.4015C131.37 16.2349 131.205 16.0217 131.098 15.7798C130.991 15.5378 130.945 15.2742 130.963 15.011V11.6104H141.586ZM139.464 12.9111H133.115V14.8608C133.109 14.9613 133.127 15.0618 133.169 15.1538C133.21 15.2459 133.273 15.3268 133.353 15.3897C133.519 15.5129 133.722 15.5768 133.93 15.5711H139.464V12.9111Z" fill="#FF7A00"/>
</svg>
