<svg width="24" height="24" viewBox="0 0 24 24" fill="none" xmlns="http://www.w3.org/2000/svg">
<path d="M7.2 18.2C4.99 18.2 3.2 16.41 3.2 14.2C3.2 11.99 4.99 10.2 7.2 10.2C9.41 10.2 11.2 11.99 11.2 14.2C11.2 16.41 9.41 18.2 7.2 18.2ZM7.2 12.2C6.1 12.2 5.2 13.1 5.2 14.2C5.2 15.3 6.1 16.2 7.2 16.2C8.3 16.2 9.2 15.3 9.2 14.2C9.2 13.1 8.3 12.2 7.2 12.2ZM11.2 10.2C8.99 10.2 7.2 8.41001 7.2 6.20001C7.2 3.99001 8.99 2.20001 11.2 2.20001C13.41 2.20001 15.2 3.99001 15.2 6.20001C15.2 8.41001 13.41 10.2 11.2 10.2ZM11.2 4.20001C10.1 4.20001 9.2 5.10001 9.2 6.20001C9.2 7.30001 10.1 8.20001 11.2 8.20001C12.3 8.20001 13.2 7.30001 13.2 6.20001C13.2 5.10001 12.3 4.20001 11.2 4.20001ZM16.8 21.8C14.59 21.8 12.8 20.01 12.8 17.8C12.8 15.59 14.59 13.8 16.8 13.8C19.01 13.8 20.8 15.59 20.8 17.8C20.8 20.01 19.01 21.8 16.8 21.8ZM16.8 15.8C15.7 15.8 14.8 16.7 14.8 17.8C14.8 18.9 15.7 19.8 16.8 19.8C17.9 19.8 18.8 18.9 18.8 17.8C18.8 16.7 17.9 15.8 16.8 15.8Z" fill="black"/>
</svg>
