<svg width="24" height="24" viewBox="0 0 24 24" fill="none" xmlns="http://www.w3.org/2000/svg">
<path d="M7.24 10.245C6.98 9.765 6.85 9.21499 6.85 8.575C6.85 7.96499 6.98 7.41499 7.25 6.90499C7.51 6.40499 7.88 5.975 8.36 5.615C8.84 5.26499 9.41 4.985 10.06 4.785C10.72 4.595 11.45 4.495 12.24 4.495C13.05 4.495 13.78 4.605 14.45 4.835C15.11 5.055 15.68 5.375 16.14 5.775C16.61 6.175 16.97 6.655 17.22 7.205C17.47 7.755 17.6 8.355 17.6 9.015H14.59C14.59 8.705 14.54 8.425 14.44 8.165C14.35 7.895 14.2 7.67499 14 7.48499C13.8 7.29499 13.55 7.155 13.25 7.045C12.95 6.945 12.59 6.88499 12.19 6.88499C11.8 6.88499 11.45 6.925 11.16 7.015C10.87 7.105 10.63 7.225 10.44 7.375C10.25 7.535 10.1 7.71499 10 7.92499C9.9 8.13499 9.85 8.355 9.85 8.585C9.85 9.065 10.1 9.465 10.59 9.795C10.97 10.045 11.36 10.275 12 10.495H7.39C7.34 10.415 7.28 10.325 7.24 10.245ZM21 11.495H3V13.495H12.62C12.8 13.565 13.02 13.635 13.17 13.695C13.54 13.865 13.83 14.035 14.04 14.205C14.25 14.375 14.39 14.565 14.47 14.775C14.54 14.975 14.58 15.205 14.58 15.465C14.58 15.695 14.53 15.915 14.44 16.125C14.35 16.325 14.21 16.505 14.02 16.655C13.83 16.805 13.6 16.915 13.31 17.005C13.02 17.085 12.68 17.135 12.3 17.135C11.87 17.135 11.47 17.095 11.12 17.005C10.77 16.915 10.46 16.775 10.21 16.585C9.96 16.395 9.76 16.145 9.62 15.835C9.48 15.525 9.37 15.075 9.37 14.625H6.4C6.4 15.175 6.48 15.755 6.64 16.205C6.8 16.655 7.01 17.055 7.29 17.415C7.57 17.765 7.89 18.075 8.27 18.335C8.64 18.595 9.05 18.815 9.49 18.985C9.93 19.155 10.39 19.285 10.87 19.375C11.35 19.455 11.83 19.505 12.31 19.505C13.11 19.505 13.84 19.415 14.49 19.225C15.14 19.035 15.7 18.775 16.16 18.435C16.62 18.095 16.98 17.665 17.23 17.165C17.48 16.665 17.61 16.095 17.61 15.455C17.61 14.855 17.51 14.315 17.3 13.845C17.25 13.735 17.19 13.615 17.13 13.515H21V11.495Z" fill="black"/>
</svg>
