<svg width="24" height="24" viewBox="0 0 24 24" fill="none" xmlns="http://www.w3.org/2000/svg">
<path d="M16 2.99948C13.24 2.99948 11 5.23948 11 7.99948V15.9995C11 17.6595 9.66 18.9995 8 18.9995C6.34 18.9995 5 17.6595 5 15.9995V8.99948H5.83C7.44 8.99948 8.89 7.81948 9 6.20948C9.12 4.51948 7.84 3.10948 6.2 2.99948C4.44 2.88948 3 4.41948 3 6.18948V15.9995C3 18.7595 5.24 20.9995 8 20.9995C10.76 20.9995 13 18.7595 13 15.9995V7.99948C13 6.33948 14.34 4.99948 16 4.99948C17.66 4.99948 19 6.33948 19 7.99948V14.9995H18.17C16.56 14.9995 15.11 16.1795 15 17.7895C14.88 19.4795 16.16 20.8895 17.8 20.9995C19.56 21.1195 21 19.5795 21 17.8195V7.99948C21 5.23948 18.76 2.99948 16 2.99948ZM5 5.99948C5 5.44948 5.45 4.99948 6 4.99948C6.55 4.99948 7 5.44948 7 5.99948C7 6.54948 6.55 6.99948 6 6.99948H5V5.99948ZM19 17.9995C19 18.5495 18.55 18.9995 18 18.9995C17.45 18.9995 17 18.5495 17 17.9995C17 17.4495 17.45 16.9995 18 16.9995H19V17.9995Z" fill="black"/>
</svg>
