<svg width="24" height="24" viewBox="0 0 24 24" fill="none" xmlns="http://www.w3.org/2000/svg">
<path d="M12.71 3.34497C16.58 3.34497 19.71 6.47497 19.71 10.345V11.345H15.71V11.515L17.54 13.345H19.71V15.515L21.71 17.515V10.345C21.71 5.37497 17.68 1.34497 12.71 1.34497C10.69 1.34497 8.82999 2.01497 7.32999 3.14497L8.75999 4.57497C9.87999 3.79497 11.24 3.34497 12.71 3.34497Z" fill="black"/>
<path d="M2.80999 1.44497L1.39999 2.85497L4.72999 6.18497C4.07999 7.43497 3.70999 8.84497 3.70999 10.345V17.345C3.70999 18.445 4.60999 19.345 5.70999 19.345H9.70999V11.345H5.70999V10.345C5.70999 9.40497 5.89999 8.51497 6.22999 7.69497L15.71 17.175V19.345H17.88L18.88 20.345H12.71V22.345H19.71C20.05 22.345 20.36 22.255 20.64 22.105L21.19 22.655L22.6 21.245L2.80999 1.44497ZM7.70999 13.345V17.345H5.70999V13.345H7.70999Z" fill="black"/>
</svg>
