<svg width="24" height="24" viewBox="0 0 24 24" fill="none" xmlns="http://www.w3.org/2000/svg">
<path d="M20 8.96497C19.96 4.57497 16.4 1.03497 12 1.03497C7.6 1.03497 4.04 4.57497 4 8.96497V14.965C4 19.385 7.58 22.965 12 22.965C16.42 22.965 20 19.385 20 14.965V8.96497ZM18 8.96497H13V3.12497C15.81 3.59497 17.96 6.02497 18 8.96497ZM11 3.12497V8.96497H6C6.04 6.02497 8.19 3.59497 11 3.12497ZM18 14.965C18 18.275 15.31 20.965 12 20.965C8.69 20.965 6 18.275 6 14.965V10.965H18V14.965Z" fill="black"/>
</svg>
