<svg width="24" height="24" viewBox="0 0 24 24" fill="none" xmlns="http://www.w3.org/2000/svg">
<path d="M17.805 8.28998C18.635 8.28998 19.305 8.95998 19.305 9.78998C19.305 10.62 18.635 11.29 17.805 11.29C16.975 11.29 16.305 10.62 16.305 9.78998C16.305 8.95998 16.975 8.28998 17.805 8.28998ZM11.135 7.28998H20.305V15.29H19.135L21.005 17.16C21.755 16.87 22.305 16.14 22.305 15.29V7.28998C22.305 6.18998 21.405 5.28998 20.305 5.28998H9.13501L11.135 7.28998ZM20.085 21.9L15.475 17.29H4.30501C3.20501 17.29 2.30501 16.39 2.30501 15.29V7.28998C2.30501 6.43998 2.85501 5.70998 3.60501 5.41998L1.69501 3.50998L3.10501 2.09998L21.485 20.48L20.085 21.9ZM13.475 15.29L10.475 12.29H9.30501V14.29H7.30501V12.29H5.30501V10.29H7.30501V9.11998L5.47501 7.28998H4.30501V15.29H13.475Z" fill="black"/>
</svg>
