<svg width="24" height="24" viewBox="0 0 24 24" fill="none" xmlns="http://www.w3.org/2000/svg">
<path d="M12.71 6.69501C15.47 6.69501 17.71 8.93501 17.71 11.695C17.71 12.335 17.58 12.945 17.36 13.515L18.86 15.015C19.4 14.025 19.71 12.895 19.71 11.695C19.71 9.47501 18.68 7.50501 17.07 6.22501L15.71 1.69501H9.71001L8.75001 4.90501L10.89 7.04501C11.46 6.82501 12.07 6.69501 12.71 6.69501ZM11.2 3.69501H14.22L14.6 4.96501C14.05 4.80501 12.63 4.45501 10.82 4.96501L11.2 3.69501Z" fill="black"/>
<path d="M3.52001 2.50501L2.10001 3.91501L6.56001 8.37501C6.02001 9.36501 5.71001 10.495 5.71001 11.695C5.71001 13.915 6.74001 15.885 8.35001 17.165L9.71001 21.695H15.71L16.67 18.485L20.49 22.305L21.9 20.895L3.52001 2.50501ZM14.22 19.695H11.2L10.82 18.425C11.37 18.575 12.79 18.935 14.6 18.425L14.22 19.695ZM12.71 16.695C9.95001 16.695 7.71001 14.455 7.71001 11.695C7.71001 11.055 7.84001 10.445 8.06001 9.87501L14.53 16.345C13.96 16.565 13.35 16.695 12.71 16.695Z" fill="black"/>
</svg>
