<svg width="24" height="24" viewBox="0 0 24 24" fill="none" xmlns="http://www.w3.org/2000/svg">
<path d="M19.055 3.53502C17.385 2.14502 15.315 1.23502 13.025 1.02502V3.03502C14.755 3.22502 16.335 3.91502 17.635 4.95502L19.055 3.53502Z" fill="black"/>
<path d="M11.025 3.03502V1.02502C8.735 1.22502 6.665 2.14502 4.995 3.53502L6.415 4.95502C7.715 3.91502 9.295 3.22502 11.025 3.03502Z" fill="black"/>
<path d="M5.005 6.36502L3.585 4.94502C2.195 6.61502 1.285 8.68502 1.075 10.975H3.085C3.275 9.24502 3.965 7.66502 5.005 6.36502Z" fill="black"/>
<path d="M20.965 10.975H22.975C22.765 8.68502 21.855 6.61502 20.465 4.94502L19.045 6.36502C20.085 7.66502 20.775 9.24502 20.965 10.975Z" fill="black"/>
<path d="M7.025 11.975L10.465 13.535L12.025 16.975L13.585 13.535L17.025 11.975L13.585 10.415L12.025 6.97502L10.465 10.415L7.025 11.975Z" fill="black"/>
<path d="M12.025 20.975C8.915 20.975 6.175 19.385 4.565 16.975H7.025V14.975H1.025V20.975H3.025V18.275C5.015 21.115 8.295 22.975 12.025 22.975C16.895 22.975 21.025 19.805 22.465 15.415L20.505 14.965C19.275 18.455 15.945 20.975 12.025 20.975Z" fill="black"/>
</svg>
