<svg width="24" height="24" viewBox="0 0 24 24" fill="none" xmlns="http://www.w3.org/2000/svg">
<path d="M18.305 7.70001C17.245 7.70001 16.665 7.99001 14.395 8.89001C14.205 8.75001 13.995 8.62001 13.775 8.52001C14.025 7.49001 14.385 6.99001 15.105 6.48001C15.915 5.91001 16.305 5.14001 16.305 4.20001C16.305 2.98001 15.355 1.70001 13.705 1.70001C10.625 1.70001 8.78501 3.17001 8.38501 4.96001L10.715 7.29001C10.375 6.39001 10.305 6.08001 10.305 5.70001C10.305 4.52001 11.705 3.70001 13.705 3.70001C14.275 3.70001 14.305 4.12001 14.305 4.20001C14.305 4.47001 14.255 4.63001 13.955 4.85001C12.685 5.75001 12.125 6.76001 11.795 8.24001L11.775 8.34001L19.025 15.59C19.265 15.65 19.525 15.7 19.805 15.7C21.025 15.7 22.305 14.75 22.305 13.1C22.305 9.61001 20.415 7.70001 18.305 7.70001ZM19.805 13.7C19.535 13.7 19.375 13.65 19.155 13.35C18.255 12.08 17.245 11.52 15.765 11.19C15.735 10.97 15.685 10.77 15.615 10.57C17.415 9.82001 17.795 9.70001 18.305 9.70001C19.485 9.70001 20.305 11.1 20.305 13.1C20.305 13.67 19.885 13.7 19.805 13.7Z" fill="black"/>
<path d="M1.69501 3.92001L5.58501 7.81001C5.34501 7.75001 5.08501 7.70001 4.80501 7.70001C3.58501 7.70001 2.30501 8.65001 2.30501 10.3C2.30501 13.79 4.19501 15.7 6.30501 15.7C7.36501 15.7 7.94501 15.41 10.215 14.51C10.405 14.65 10.615 14.78 10.835 14.88C10.585 15.91 10.225 16.41 9.50501 16.92C8.69501 17.49 8.30501 18.26 8.30501 19.2C8.30501 20.42 9.25501 21.7 10.905 21.7C13.985 21.7 15.825 20.23 16.225 18.44L20.085 22.3L21.495 20.89L3.11501 2.51001L1.69501 3.92001ZM12.825 15.16C12.855 15.16 12.885 15.14 12.915 15.14L13.885 16.11C14.235 17.01 14.305 17.32 14.305 17.7C14.305 18.88 12.905 19.7 10.905 19.7C10.335 19.7 10.305 19.28 10.305 19.2C10.305 18.93 10.355 18.77 10.655 18.55C11.935 17.66 12.485 16.64 12.825 15.16ZM8.84501 12.22C8.87501 12.44 8.92501 12.64 8.99501 12.84C7.19501 13.58 6.81501 13.7 6.30501 13.7C5.12501 13.7 4.30501 12.3 4.30501 10.3C4.30501 9.73001 4.72501 9.70001 4.80501 9.70001C5.07501 9.70001 5.23501 9.75001 5.45501 10.05C6.34501 11.33 7.36501 11.88 8.84501 12.22Z" fill="black"/>
</svg>
