<svg width="24" height="24" viewBox="0 0 24 24" fill="none" xmlns="http://www.w3.org/2000/svg">
<path d="M15.995 1.00008C15.845 1.00008 16.105 0.980078 11.715 1.42008C8.465 1.75008 5.995 4.48008 5.995 7.75008C5.995 11.0201 8.465 13.7501 11.715 14.0801L13.615 14.2701L13.055 15.1201C12.705 15.0401 12.355 15.0001 11.995 15.0001C9.235 15.0001 6.995 17.2401 6.995 20.0001V22.0001C6.995 22.5501 7.445 23.0001 7.995 23.0001H15.995C16.545 23.0001 16.995 22.5501 16.995 22.0001V20.0001C16.995 18.3301 16.165 16.8501 14.905 15.9401L15.875 14.4901C15.915 14.4901 15.965 14.5001 16.005 14.5001C17.095 14.5001 18.005 13.6101 18.005 12.5001V3.00008C17.995 1.89008 17.085 1.00008 15.995 1.00008ZM14.995 21.0001H8.995V20.0001C8.995 18.3501 10.345 17.0001 11.995 17.0001C13.645 17.0001 14.995 18.3501 14.995 20.0001V21.0001ZM7.995 7.75008C7.995 5.50008 9.685 3.64008 11.915 3.41008L15.995 3.00008L16.025 12.5001L11.915 12.0801C9.685 11.8601 7.995 10.0001 7.995 7.75008Z" fill="black"/>
</svg>
