<svg width="24" height="24" viewBox="0 0 24 24" fill="none" xmlns="http://www.w3.org/2000/svg">
<g clip-path="url(#clip0_5_31781)">
<path d="M12 11C13.66 11 15 9.66001 15 8.00001C15 6.34001 13.66 5.00001 12 5.00001C10.34 5.00001 9 6.34001 9 8.00001C9 9.66001 10.34 11 12 11ZM12 7.00001C12.55 7.00001 13 7.45001 13 8.00001C13 8.55001 12.55 9.00001 12 9.00001C11.45 9.00001 11 8.55001 11 8.00001C11 7.45001 11.45 7.00001 12 7.00001Z" fill="black"/>
<path d="M12 12C10.16 12 8.44 12.5 6.97 13.37C6.36 13.72 6 14.39 6 15.09V17H18V15.09C18 14.39 17.64 13.73 17.03 13.37C15.56 12.5 13.84 12 12 12ZM8.14 15C9.32 14.35 10.65 14 12 14C13.35 14 14.68 14.35 15.85 15H8.14Z" fill="black"/>
<path d="M21.23 8.15001L23.08 7.38001C21.86 4.47001 19.53 2.13001 16.62 0.920013L15.85 2.77001C18.27 3.79001 20.21 5.73001 21.23 8.15001Z" fill="black"/>
<path d="M8.15 2.77001L7.38 0.920013C4.47 2.14001 2.14 4.47001 0.919998 7.38001L2.77 8.15001C3.79 5.73001 5.73 3.79001 8.15 2.77001Z" fill="black"/>
<path d="M2.77 15.85L0.919998 16.62C2.14 19.53 4.47 21.87 7.38 23.08L8.15 21.23C5.73 20.21 3.79 18.27 2.77 15.85Z" fill="black"/>
<path d="M15.85 21.23L16.62 23.08C19.53 21.86 21.87 19.53 23.08 16.62L21.23 15.85C20.21 18.27 18.27 20.21 15.85 21.23Z" fill="black"/>
</g>
<defs>
<clipPath id="clip0_5_31781">
<rect width="24" height="24" fill="white"/>
</clipPath>
</defs>
</svg>
