<svg width="24" height="24" viewBox="0 0 24 24" fill="none" xmlns="http://www.w3.org/2000/svg">
<path d="M10.4998 10.0128C11.3282 10.0128 11.9998 9.3412 11.9998 8.51278C11.9998 7.68435 11.3282 7.01278 10.4998 7.01278C9.67133 7.01278 8.99976 7.68435 8.99976 8.51278C8.99976 9.3412 9.67133 10.0128 10.4998 10.0128Z" fill="black"/>
<path d="M8.49976 15.0128C9.32818 15.0128 9.99976 14.3412 9.99976 13.5128C9.99976 12.6844 9.32818 12.0128 8.49976 12.0128C7.67133 12.0128 6.99976 12.6844 6.99976 13.5128C6.99976 14.3412 7.67133 15.0128 8.49976 15.0128Z" fill="black"/>
<path d="M14.9998 16.0128C15.552 16.0128 15.9998 15.5651 15.9998 15.0128C15.9998 14.4605 15.552 14.0128 14.9998 14.0128C14.4475 14.0128 13.9998 14.4605 13.9998 15.0128C13.9998 15.5651 14.4475 16.0128 14.9998 16.0128Z" fill="black"/>
<path d="M21.9498 11.0028C20.1598 10.9728 18.2498 9.05278 19.2698 6.78278C16.2998 7.78278 13.4898 5.19278 14.0798 2.22278C7.10976 0.752778 1.99976 6.42278 1.99976 12.0128C1.99976 17.5328 6.47976 22.0128 11.9998 22.0128C17.8898 22.0128 22.5398 16.9328 21.9498 11.0028ZM11.9998 20.0128C7.58976 20.0128 3.99976 16.4228 3.99976 12.0128C3.99976 8.70278 6.72976 3.83278 12.0798 3.99278C12.4998 6.53278 14.5198 8.55278 17.0698 8.93278C17.1398 9.29278 17.5898 11.4828 19.9898 12.5628C19.6998 16.8728 16.0598 20.0128 11.9998 20.0128Z" fill="black"/>
</svg>
