<svg width="24" height="24" viewBox="0 0 24 24" fill="none" xmlns="http://www.w3.org/2000/svg">
<path d="M9.5 11.995C9.5 12.545 9.05 12.995 8.5 12.995C7.95 12.995 7.5 12.545 7.5 11.995C7.5 11.445 7.95 10.995 8.5 10.995C9.05 10.995 9.5 11.445 9.5 11.995ZM13.75 9.995C14.3 9.995 14.75 9.545 14.75 8.995C14.75 8.44499 14.3 7.995 13.75 7.995C13.2 7.995 12.75 8.44499 12.75 8.995C12.75 9.545 13.2 9.995 13.75 9.995ZM10.25 9.995C10.8 9.995 11.25 9.545 11.25 8.995C11.25 8.44499 10.8 7.995 10.25 7.995C9.7 7.995 9.25 8.44499 9.25 8.995C9.25 9.545 9.7 9.995 10.25 9.995ZM10.25 13.995C9.7 13.995 9.25 14.445 9.25 14.995C9.25 15.545 9.7 15.995 10.25 15.995C10.8 15.995 11.25 15.545 11.25 14.995C11.25 14.445 10.8 13.995 10.25 13.995ZM22 11.245V12.745C22 13.155 21.66 13.495 21.25 13.495C20.84 13.495 20.5 13.155 20.5 12.745H18.96C18.81 14.115 18.27 15.375 17.44 16.395L18.53 17.485L18.54 17.475C18.83 17.185 19.31 17.185 19.6 17.475C19.89 17.765 19.89 18.245 19.6 18.535L18.54 19.595C18.25 19.885 17.77 19.885 17.48 19.595C17.19 19.305 17.19 18.835 17.47 18.545L16.38 17.455C15.36 18.275 14.11 18.815 12.74 18.965V20.505H12.75C13.16 20.505 13.5 20.845 13.5 21.255C13.5 21.665 13.16 22.005 12.75 22.005H11.25C10.84 22.005 10.5 21.665 10.5 21.255C10.5 20.845 10.83 20.515 11.24 20.505V18.955C9.87 18.805 8.62 18.265 7.61 17.445L6.52 18.535L6.53 18.545C6.82 18.835 6.82 19.315 6.53 19.605C6.24 19.895 5.76 19.895 5.47 19.605L4.4 18.535C4.11 18.245 4.11 17.765 4.4 17.475C4.69 17.185 5.16 17.185 5.45 17.465L6.54 16.375C5.72 15.355 5.18 14.115 5.04 12.745H3.5C3.5 13.155 3.16 13.495 2.75 13.495C2.34 13.495 2 13.155 2 12.745V11.245C2 10.835 2.34 10.495 2.75 10.495C3.16 10.495 3.5 10.835 3.5 11.245H5.04C5.19 9.875 5.73 8.63499 6.54 7.615L5.45 6.525C5.16 6.805 4.69 6.805 4.4 6.515C4.11 6.225 4.11 5.745 4.4 5.455L5.46 4.395C5.75 4.105 6.23 4.105 6.52 4.395C6.81 4.685 6.81 5.165 6.52 5.455L6.51 5.46499L7.6 6.555C8.62 5.735 9.86 5.195 11.23 5.045V3.495C10.82 3.485 10.49 3.155 10.49 2.745C10.5 2.335 10.84 1.995 11.25 1.995H12.75C13.16 1.995 13.5 2.335 13.5 2.745C13.5 3.155 13.16 3.495 12.75 3.495H12.74V5.035C14.11 5.175 15.36 5.725 16.38 6.545L17.47 5.455C17.18 5.165 17.19 4.69499 17.48 4.40499C17.77 4.115 18.25 4.115 18.54 4.40499L19.6 5.46499C19.89 5.75499 19.89 6.235 19.6 6.525C19.31 6.815 18.83 6.815 18.54 6.525L18.53 6.515L17.44 7.595C18.26 8.615 18.81 9.865 18.96 11.245H20.5C20.5 10.835 20.84 10.495 21.25 10.495C21.66 10.495 22 10.835 22 11.245ZM17 11.995C17 9.23499 14.76 6.995 12 6.995C9.24 6.995 7 9.23499 7 11.995C7 14.755 9.24 16.995 12 16.995C14.76 16.995 17 14.755 17 11.995ZM12 10.995C11.45 10.995 11 11.445 11 11.995C11 12.545 11.45 12.995 12 12.995C12.55 12.995 13 12.545 13 11.995C13 11.445 12.55 10.995 12 10.995ZM15.5 10.995C14.95 10.995 14.5 11.445 14.5 11.995C14.5 12.545 14.95 12.995 15.5 12.995C16.05 12.995 16.5 12.545 16.5 11.995C16.5 11.445 16.05 10.995 15.5 10.995ZM13.75 13.995C13.2 13.995 12.75 14.445 12.75 14.995C12.75 15.545 13.2 15.995 13.75 15.995C14.3 15.995 14.75 15.545 14.75 14.995C14.75 14.445 14.3 13.995 13.75 13.995Z" fill="black"/>
</svg>
