<svg width="24" height="24" viewBox="0 0 24 24" fill="none" xmlns="http://www.w3.org/2000/svg">
<path d="M15.155 7.295C15.155 5.875 14.655 4.565 13.825 3.535C14.245 3.395 14.685 3.295 15.155 3.295C17.365 3.295 19.155 5.085 19.155 7.295C19.155 9.505 17.365 11.295 15.155 11.295C15.095 11.295 15.035 11.295 14.975 11.295L14.205 10.525C14.805 9.585 15.155 8.475 15.155 7.295ZM22.985 19.295H23.155V16.295C23.155 14.115 19.575 12.825 16.815 12.425C17.915 13.175 18.765 14.135 19.045 15.365L22.985 19.295ZM9.15497 5.295C9.09497 5.295 9.04497 5.295 8.99497 5.305L7.39497 3.705C7.92497 3.445 8.52497 3.295 9.15497 3.295C11.365 3.295 13.155 5.085 13.155 7.295C13.155 7.925 13.005 8.525 12.745 9.055L11.145 7.455C11.155 7.405 11.155 7.355 11.155 7.295C11.155 6.195 10.255 5.295 9.15497 5.295ZM9.32497 11.295C9.26497 11.295 9.21497 11.295 9.15497 11.295C6.94497 11.295 5.15497 9.505 5.15497 7.295C5.15497 7.235 5.15497 7.185 5.15497 7.125L0.844971 2.805L2.25497 1.395L22.055 21.195L20.645 22.605L17.155 19.125V19.295H1.15497V16.295C1.15497 13.635 6.48497 12.295 9.15497 12.295C9.52497 12.295 9.95497 12.325 10.405 12.375L9.32497 11.295ZM9.15497 14.295C6.45497 14.295 3.35497 15.585 3.15497 16.305V17.295H15.155V17.125L13.045 15.015C11.915 14.605 10.485 14.295 9.15497 14.295Z" fill="black"/>
</svg>
