<svg width="24" height="24" viewBox="0 0 24 24" fill="none" xmlns="http://www.w3.org/2000/svg">
<path d="M16.715 12.865L15.215 11.365V8.695H16.715V12.865ZM20.495 22.305L18.645 20.455C18.365 20.605 18.055 20.695 17.715 20.695C17.715 21.245 17.265 21.695 16.715 21.695C16.165 21.695 15.715 21.245 15.715 20.695H9.71498C9.71498 21.245 9.26498 21.695 8.71498 21.695C8.16498 21.695 7.71498 21.245 7.71498 20.695C6.61498 20.695 5.71498 19.795 5.71498 18.695V7.695C5.71498 7.645 5.73498 7.595 5.73498 7.545L2.10498 3.915L3.51498 2.505L21.895 20.885L20.495 22.305ZM16.885 18.695L13.465 15.275V17.695H11.965V13.775L10.215 12.025V17.695H8.71498V10.525L7.71498 9.525V18.695H16.885ZM13.465 8.695H12.545L13.465 9.615V8.695ZM19.715 7.695V15.865L17.715 13.865V7.695H11.545L9.71498 5.865V2.695C9.71498 2.145 10.165 1.695 10.715 1.695H14.715C15.265 1.695 15.715 2.145 15.715 2.695V5.695H17.715C18.815 5.695 19.715 6.595 19.715 7.695ZM11.215 5.695H14.215V3.195H11.215V5.695Z" fill="black"/>
</svg>
