<svg width="24" height="24" viewBox="0 0 24 24" fill="none" xmlns="http://www.w3.org/2000/svg">
<path d="M21.9 20.48L3.51998 2.10001L2.09998 3.51001L3.70998 5.12001V18.29C3.70998 19.39 4.60998 20.29 5.70998 20.29H18.88L20.49 21.9L21.9 20.48ZM8.95998 18.29H5.70998V7.12001L7.70998 9.12001V12.79C7.70998 13.34 8.15998 13.79 8.70998 13.79H8.95998V18.29ZM10.46 18.29V13.79H10.71C11.17 13.79 11.53 13.48 11.65 13.06L14.96 16.37V18.29H10.46ZM11.71 7.46001L6.53998 2.29001H19.71C20.81 2.29001 21.71 3.19001 21.71 4.29001V17.46L19.71 15.46V4.29001H17.71V12.79C17.71 12.98 17.64 13.15 17.55 13.3L13.71 9.46001V4.29001H11.71V7.46001Z" fill="black"/>
</svg>
