<svg width="24" height="24" viewBox="0 0 24 24" fill="none" xmlns="http://www.w3.org/2000/svg">
<path d="M15.4463 16.52L12.4363 13.51C12.3263 13.4 12.1963 13.38 12.1263 13.38C12.0563 13.38 11.9263 13.4 11.8163 13.51L8.79628 16.53C8.45628 16.87 7.92628 17.42 6.15628 17.42L9.86628 21.12C11.0363 22.29 12.9363 22.29 14.1063 21.12L17.8263 17.41C16.9163 17.41 16.1563 17.23 15.4463 16.52Z" fill="black"/>
<path d="M8.79628 7.47L11.8163 10.49C11.8963 10.57 12.0163 10.62 12.1263 10.62C12.2363 10.62 12.3563 10.57 12.4363 10.49L15.4263 7.5C16.1363 6.76 16.9463 6.59 17.8563 6.59L14.1363 2.88C12.9663 1.71 11.0663 1.71 9.89628 2.88L6.18628 6.58C7.94628 6.58 8.48628 7.16 8.79628 7.47Z" fill="black"/>
<path d="M21.1063 9.85L18.8563 7.59H17.5963C17.0563 7.59 16.5163 7.81 16.1463 8.2L13.1463 11.2C12.8663 11.48 12.4963 11.62 12.1263 11.62C11.7663 11.62 11.3863 11.47 11.1063 11.2L8.08628 8.17C7.70628 7.79 7.18628 7.57 6.63628 7.57H5.16628L2.87628 9.87C1.70628 11.04 1.70628 12.94 2.87628 14.11L5.16628 16.41H6.64628C7.18628 16.41 7.70628 16.19 8.09628 15.81L11.1163 12.79C11.3963 12.51 11.7663 12.37 12.1363 12.37C12.5063 12.37 12.8763 12.51 13.1563 12.79L16.1663 15.8C16.5463 16.18 17.0663 16.4 17.6163 16.4H18.8763L21.1263 14.14C22.2963 12.96 22.2963 11.04 21.1063 9.85Z" fill="black"/>
</svg>
