<svg width="24" height="24" viewBox="0 0 24 24" fill="none" xmlns="http://www.w3.org/2000/svg">
<path d="M11.3049 7.87L6.79495 3.36C8.37495 2.31 10.2649 1.7 12.3049 1.7C17.8249 1.7 22.3049 6.18 22.3049 11.7C22.3049 13.74 21.6949 15.63 20.6449 17.21L19.1849 15.75C19.8949 14.57 20.3049 13.18 20.3049 11.7C20.3049 8.35 18.2349 5.48 15.3049 4.29V4.7C15.3049 5.8 14.4049 6.7 13.3049 6.7H11.3049V7.87ZM21.4949 20.89L20.0849 22.3L17.8149 20.03C16.2349 21.09 14.3449 21.7 12.3049 21.7C6.78495 21.7 2.30495 17.22 2.30495 11.7C2.30495 9.66 2.91495 7.77 3.96495 6.19L1.69495 3.92L3.10495 2.51L21.4949 20.89ZM11.3049 17.7C10.2049 17.7 9.30495 16.8 9.30495 15.7V14.7L4.51495 9.91C4.38495 10.49 4.30495 11.08 4.30495 11.7C4.30495 15.78 7.35495 19.14 11.3049 19.63V17.7Z" fill="black"/>
</svg>
