<svg width="24" height="24" viewBox="0 0 24 24" fill="none" xmlns="http://www.w3.org/2000/svg">
<path d="M12.71 3.83501L18.71 6.08501V10.785C18.71 11.975 18.48 13.145 18.07 14.225L19.58 15.735C20.3 14.205 20.71 12.515 20.71 10.785V4.69501L12.71 1.69501L7.48998 3.65501L9.03998 5.20501L12.71 3.83501ZM3.51998 2.50501L2.09998 3.91501L4.70998 6.52501V10.785C4.70998 15.835 8.11998 20.545 12.71 21.695C14.43 21.265 15.99 20.335 17.26 19.075L20.49 22.305L21.9 20.895L3.51998 2.50501ZM12.71 19.615C9.25998 18.485 6.70998 14.795 6.70998 10.785V8.52501L15.85 17.665C14.95 18.545 13.88 19.235 12.71 19.615Z" fill="black"/>
</svg>
