<svg width="24" height="24" viewBox="0 0 24 24" fill="none" xmlns="http://www.w3.org/2000/svg">
<path d="M14.0004 3.74722C14.0004 4.84722 13.1004 5.74722 12.0004 5.74722C10.9004 5.74722 10.0004 4.84722 10.0004 3.74722C10.0004 2.64722 10.9004 1.74722 12.0004 1.74722C13.1004 1.74722 14.0004 2.64722 14.0004 3.74722ZM22.8004 19.4872C22.1204 21.5872 19.8604 22.7372 17.7604 22.0572L1.00037 16.6072L1.46037 15.1772L5.39037 16.4572L5.85037 15.0272L1.93037 13.7472L2.39037 12.3172L4.00037 12.8472V8.74722L9.47037 6.39722C9.86037 6.22722 10.3104 6.18722 10.7504 6.32722C11.7004 6.63722 12.2104 7.64722 11.9104 8.59722L10.8604 11.8372L13.0004 11.4972C13.8904 11.3472 14.7604 11.8172 15.1404 12.6372L17.2204 17.1472L19.1504 17.7772L18.6904 19.2072L15.3704 18.1272L14.9004 19.5472L18.2204 20.6272C19.5304 21.0572 20.9404 20.3372 21.3704 19.0172C21.8004 17.7072 21.0804 16.2972 19.7604 15.8672L20.2204 14.4372C22.3304 15.1272 23.4904 17.3872 22.8004 19.4872ZM6.00037 13.4972L7.01037 13.8272C6.79037 13.4072 6.73037 12.9072 6.89037 12.4272L7.92037 9.24722L6.00037 10.0672V13.4972ZM13.9404 17.6572L7.28037 15.4972L6.82037 16.9272L13.4804 19.0872L13.9404 17.6572ZM14.6304 16.2972L13.4504 13.7372L9.48037 14.6272L14.6304 16.2972Z" fill="black"/>
</svg>
