<svg width="24" height="24" viewBox="0 0 24 24" fill="none" xmlns="http://www.w3.org/2000/svg">
<path d="M13.999 3.24936C13.999 2.14936 14.899 1.24936 15.999 1.24936C17.099 1.24936 17.999 2.14936 17.999 3.24936C17.999 4.34936 17.099 5.24936 15.999 5.24936C14.899 5.24936 13.999 4.34936 13.999 3.24936ZM21.399 20.3394C21.169 20.2894 20.939 20.3594 20.759 20.5094C20.069 21.1094 19.119 21.3894 18.159 21.1794L16.999 20.9394L15.999 14.7494L12.679 12.0794L14.479 9.18936C15.629 11.0294 17.679 12.2494 19.999 12.2494V10.2494C18.149 10.2494 16.559 9.12936 15.869 7.52936L15.349 6.31936C15.159 5.88936 14.609 5.24936 13.699 5.24936H7.99904L5.49904 9.24936L7.19904 10.3094L9.09904 7.24936H11.449L8.93904 11.2394C8.65904 11.6894 8.56904 12.2394 8.68904 12.7594L9.49904 16.2494L5.99904 18.5994L5.52904 18.4994C4.56904 18.2994 3.81904 17.6494 3.42904 16.8294C3.32904 16.6194 3.14904 16.4594 2.91904 16.4094C2.48904 16.3194 2.09904 16.6094 2.01904 16.9894C1.97904 17.1294 1.99904 17.2994 2.06904 17.4494C2.64904 18.6894 3.77904 19.6494 5.21904 19.9594L17.849 22.6494C19.289 22.9594 20.709 22.5394 21.749 21.6394C21.879 21.5294 21.959 21.3794 21.989 21.2294C22.059 20.8494 21.829 20.4294 21.399 20.3394ZM8.72904 19.1794L11.749 17.1494L11.309 13.8294L14.149 15.8494L14.899 20.4894L8.72904 19.1794Z" fill="black"/>
</svg>
