<svg width="24" height="24" viewBox="0 0 24 24" fill="none" xmlns="http://www.w3.org/2000/svg">
<path d="M4 5.005C4 3.905 4.9 3.005 6 3.005C7.1 3.005 8 3.905 8 5.005C8 6.105 7.1 7.005 6 7.005C4.9 7.005 4 6.105 4 5.005ZM8.78 8.585C7.93 8.215 6.99 8.005 6 8.005C5.01 8.005 4.07 8.215 3.22 8.585C2.48 8.905 2 9.62501 2 10.435V11.005H10V10.435C10 9.62501 9.52 8.905 8.78 8.585ZM18 7.005C19.1 7.005 20 6.105 20 5.005C20 3.905 19.1 3.005 18 3.005C16.9 3.005 16 3.905 16 5.005C16 6.105 16.9 7.005 18 7.005ZM20.78 8.585C19.93 8.215 18.99 8.005 18 8.005C17.01 8.005 16.07 8.215 15.22 8.585C14.48 8.905 14 9.62501 14 10.435V11.005H22V10.435C22 9.62501 21.52 8.905 20.78 8.585ZM18.01 13.015L16.6 14.425L18.17 16.005H5.83L7.41 14.415L6 13.005L2 17.005L5.99 20.995L7.4 19.585L5.83 18.005H18.17L16.59 19.585L18 20.995L22 17.005L18.01 13.015Z" fill="black"/>
</svg>
