<svg width="24" height="24" viewBox="0 0 24 24" fill="none" xmlns="http://www.w3.org/2000/svg">
<path d="M16.475 5.19C17.5796 5.19 18.475 4.29457 18.475 3.19C18.475 2.08543 17.5796 1.19 16.475 1.19C15.3705 1.19 14.475 2.08543 14.475 3.19C14.475 4.29457 15.3705 5.19 16.475 5.19Z" fill="black"/>
<path d="M23.975 12.69V7.99L18.925 5.85C17.955 5.44 16.835 5.79 16.275 6.69L15.275 8.29C14.605 9.47 13.365 10.35 11.865 10.61L11.925 10.67C12.615 11.36 13.445 11.74 14.385 11.84C15.185 11.42 15.905 10.86 16.475 10.2L17.075 13.2L14.975 15.19V22.69H16.975V16.69L19.075 14.69L20.875 22.69H22.975L20.795 11.69L20.175 8.59L21.975 9.29V12.69H23.975Z" fill="black"/>
<path d="M10.265 8.9C10.485 9.05 10.735 9.14 10.985 9.19C11.115 9.21 11.235 9.23 11.365 9.23C11.495 9.23 11.625 9.22 11.745 9.19C11.875 9.17 11.995 9.13 12.115 9.08C12.355 8.98 12.585 8.84 12.775 8.64C13.265 8.15 13.445 7.47 13.325 6.84C13.255 6.47 13.075 6.1 12.775 5.81C12.585 5.62 12.355 5.47 12.115 5.37C11.995 5.32 11.875 5.28 11.745 5.26C11.615 5.24 11.495 5.22 11.365 5.22C11.245 5.22 11.135 5.23 11.015 5.25C10.875 5.27 10.735 5.31 10.605 5.36C10.375 5.47 10.145 5.62 9.95502 5.81C9.65502 6.1 9.47502 6.47 9.40502 6.84C9.28502 7.47 9.46502 8.15 9.95502 8.64C10.045 8.74 10.155 8.82 10.265 8.9Z" fill="black"/>
<path d="M11.215 11.37L9.21502 9.37C9.11502 9.27 9.01502 9.19 8.90502 9.11C8.68502 8.97 8.43502 8.87 8.18502 8.83C8.05502 8.8 7.93502 8.79 7.80502 8.79C7.29502 8.79 6.78502 8.99 6.39502 9.38L3.05502 12.72C2.64502 13.13 2.43502 13.7 2.47502 14.26C2.47502 14.44 2.51502 14.63 2.58502 14.81L3.65502 17.76L0.0250244 21.39L1.43502 22.81L5.67502 18.57V16.35L6.97502 17.56V22.69H8.97502V16.69L6.85502 14.57L9.21502 12.21L9.92502 12.92C11.215 14.18 12.895 14.96 14.955 14.96L14.815 12.89C13.315 12.87 12.115 12.27 11.215 11.37Z" fill="black"/>
</svg>
