<svg width="24" height="24" viewBox="0 0 24 24" fill="none" xmlns="http://www.w3.org/2000/svg">
<path d="M15.0413 12.7906L6.54128 4.29061C6.35128 4.10061 6.09128 4.00061 5.83128 4.00061C5.57128 4.00061 5.32128 4.10061 5.13128 4.29061L2.29128 7.13061C1.90128 7.52061 1.90128 8.16061 2.29128 8.55061L10.7913 17.0506C10.9913 17.2506 11.2413 17.3406 11.5013 17.3406C11.7613 17.3406 12.0113 17.2406 12.2113 17.0506L15.0413 14.2206C15.4313 13.8206 15.4313 13.1806 15.0413 12.7906ZM11.5013 14.9206L4.41128 7.83061L5.83128 6.41061L12.9213 13.5006L11.5013 14.9206Z" fill="black"/>
<path d="M15.7567 16.3426L14.3425 17.7568L18.5851 21.9994L19.9993 20.5852L15.7567 16.3426Z" fill="black"/>
<path d="M18.5013 2.00061C16.5713 2.00061 15.0013 3.57061 15.0013 5.50061C15.0013 7.43061 16.5713 9.00061 18.5013 9.00061C20.4313 9.00061 22.0013 7.43061 22.0013 5.50061C22.0013 3.57061 20.4313 2.00061 18.5013 2.00061ZM18.5013 7.00061C17.6713 7.00061 17.0013 6.33061 17.0013 5.50061C17.0013 4.67061 17.6713 4.00061 18.5013 4.00061C19.3313 4.00061 20.0013 4.67061 20.0013 5.50061C20.0013 6.33061 19.3313 7.00061 18.5013 7.00061Z" fill="black"/>
</svg>
