<svg width="24" height="24" viewBox="0 0 24 24" fill="none" xmlns="http://www.w3.org/2000/svg">
<path d="M14.2737 5.53982C13.7237 6.48982 14.0537 7.71981 15.0037 8.26981C15.9537 8.81981 17.1837 8.48982 17.7337 7.53982C18.2837 6.58982 17.9537 5.35982 17.0037 4.80982C16.0537 4.25982 14.8237 4.58982 14.2737 5.53982Z" fill="black"/>
<path d="M15.8437 9.94982C15.8437 9.94982 14.2137 9.00982 13.2437 8.44982C10.8637 7.06982 10.0437 4.00982 11.4237 1.62982L9.69367 0.629816C8.10367 3.36982 8.60367 6.74982 10.6637 8.93982L5.51367 17.8598L7.24367 18.8598L8.74367 16.2598L10.4737 17.2598L7.47367 22.4598L9.20367 23.4598L15.4937 12.5698C16.6337 14.1198 16.8237 16.2598 15.8037 18.0298L17.5337 19.0298C19.1337 16.2798 18.8137 12.4498 15.8437 9.94982Z" fill="black"/>
<path d="M12.7537 3.33982C13.4737 3.74982 14.3837 3.50982 14.8037 2.78982C15.2137 2.06982 14.9737 1.15982 14.2537 0.739816C13.5337 0.329816 12.6237 0.569816 12.2037 1.28982C11.7937 2.00982 12.0337 2.92982 12.7537 3.33982Z" fill="black"/>
</svg>
