<svg width="24" height="24" viewBox="0 0 24 24" fill="none" xmlns="http://www.w3.org/2000/svg">
<path d="M11.23 5.99622C9.57 5.99622 8.01 6.65622 6.87 7.72622C6.54 6.72622 5.61 5.99622 4.5 5.99622C3.12 5.99622 2 7.11622 2 8.49622C2 9.87622 3.12 10.9962 4.5 10.9962C4.71 10.9962 4.91 10.9662 5.11 10.9162C5.06 11.1662 5.02 11.4262 5.01 11.6962C4.83 15.3762 7.96 18.3762 11.69 17.9662C14.24 17.6862 16.37 15.7062 16.88 13.1962C17.03 12.4862 17.03 11.7962 16.94 11.1362C16.85 10.5362 17.32 10.0062 17.93 10.0062H22V5.99622H11.23ZM4.5 8.99622C4.22 8.99622 4 8.77622 4 8.49622C4 8.21622 4.22 7.99622 4.5 7.99622C4.78 7.99622 5 8.21622 5 8.49622C5 8.77622 4.78 8.99622 4.5 8.99622ZM11 14.9962C9.34 14.9962 8 13.6562 8 11.9962C8 10.3362 9.34 8.99622 11 8.99622C12.66 8.99622 14 10.3362 14 11.9962C14 13.6562 12.66 14.9962 11 14.9962Z" fill="black"/>
<path d="M11 13.9962C12.1046 13.9962 13 13.1008 13 11.9962C13 10.8916 12.1046 9.99622 11 9.99622C9.89543 9.99622 9 10.8916 9 11.9962C9 13.1008 9.89543 13.9962 11 13.9962Z" fill="black"/>
</svg>
