<svg width="24" height="24" viewBox="0 0 24 24" fill="none" xmlns="http://www.w3.org/2000/svg">
<path d="M19.6 2.48889C17.26 0.14889 12.98 0.618889 10.05 3.54889C8.45004 5.14889 7.53004 7.41889 7.51004 9.00889C7.49004 10.5889 7.77004 12.8989 6.16004 14.5089L1.92004 18.7489L3.34004 20.1689L7.58004 15.9289C9.19004 14.3189 11.5 14.5989 13.08 14.5789C14.66 14.5589 16.94 13.6389 18.54 12.0389C21.46 9.10889 21.94 4.82889 19.6 2.48889ZM10.4 11.6789C8.87004 10.1489 9.35004 7.06889 11.46 4.95889C13.57 2.84889 16.64 2.36889 18.18 3.89889C19.71 5.42889 19.23 8.50889 17.12 10.6189C15.01 12.7289 11.94 13.2089 10.4 11.6789Z" fill="black"/>
<path d="M18.08 16.9989C18.61 16.9989 19.12 17.2089 19.49 17.5889C20.27 18.3689 20.27 19.6389 19.49 20.4189C19.12 20.7889 18.61 20.9989 18.08 20.9989C17.55 20.9989 17.04 20.7889 16.67 20.4089C15.89 19.6289 15.89 18.3589 16.67 17.5789C17.04 17.2089 17.55 16.9989 18.08 16.9989ZM18.08 14.9989C17.06 14.9989 16.03 15.3889 15.25 16.1689C13.69 17.7289 13.69 20.2589 15.25 21.8289C16.03 22.6089 17.06 22.9989 18.08 22.9989C19.1 22.9989 20.13 22.6089 20.91 21.8289C22.47 20.2689 22.47 17.7389 20.91 16.1689C20.13 15.3889 19.1 14.9989 18.08 14.9989Z" fill="black"/>
</svg>
