<svg width="24" height="24" viewBox="0 0 24 24" fill="none" xmlns="http://www.w3.org/2000/svg">
<path d="M21.9 21.385L3.51998 3.00501L2.09998 4.41501L3.70998 6.02501V19.195C3.70998 20.295 4.60998 21.195 5.70998 21.195H18.88L20.49 22.805L21.9 21.385ZM5.70998 19.195V8.02501L16.88 19.195H5.70998ZM17.71 8.19501V5.19501H19.71V16.365L21.71 18.365V5.19501C21.71 4.09501 20.81 3.19501 19.71 3.19501H15.53C15.11 2.03501 14.01 1.19501 12.71 1.19501C11.41 1.19501 10.31 2.03501 9.88998 3.19501H6.53998L11.54 8.19501H17.71ZM12.71 3.19501C13.26 3.19501 13.71 3.64501 13.71 4.19501C13.71 4.74501 13.26 5.19501 12.71 5.19501C12.16 5.19501 11.71 4.74501 11.71 4.19501C11.71 3.64501 12.16 3.19501 12.71 3.19501Z" fill="black"/>
</svg>
