<svg width="24" height="24" viewBox="0 0 24 24" fill="none" xmlns="http://www.w3.org/2000/svg">
<path d="M5.48497 1.34497H20.655C21.755 1.34497 22.655 2.24497 22.655 3.34497V18.515L20.655 16.515V3.34497H7.48497L5.48497 1.34497ZM11.575 5.34497L11.005 6.86497L12.365 8.22497L12.595 7.56497H12.695L13.235 9.08497L16.275 12.125L13.725 5.34497H11.575ZM21.145 22.655L19.825 21.345H4.65497C3.55497 21.345 2.65497 20.445 2.65497 19.345V4.17497L1.34497 2.85497L2.75497 1.44497L22.555 21.245L21.145 22.655ZM17.825 19.345L12.755 14.275H10.235L9.14497 17.345H7.06497L9.45497 10.975L4.65497 6.17497V19.345H17.825Z" fill="black"/>
</svg>
