<svg width="24" height="24" viewBox="0 0 24 24" fill="none" xmlns="http://www.w3.org/2000/svg">
<path d="M4.66998 6.90001C5.36998 6.19001 6.06998 5.55001 6.37998 5.68001C6.87998 5.88001 6.37998 6.71001 6.07998 7.20001C5.82998 7.62001 3.21998 11.09 3.21998 13.51C3.21998 14.79 3.69998 15.85 4.55998 16.49C5.30998 17.05 6.29998 17.22 7.19998 16.95C8.26998 16.64 9.14998 15.55 10.26 14.18C11.47 12.69 13.09 10.74 14.34 10.74C15.97 10.74 15.99 11.75 16.1 12.53C12.32 13.17 10.72 16.2 10.72 17.9C10.72 19.6 12.16 20.99 13.93 20.99C15.56 20.99 18.22 19.66 18.62 14.89H21.08V12.39H18.61C18.46 10.74 17.52 8.19001 14.58 8.19001C12.33 8.19001 10.4 10.1 9.63998 11.03C9.05998 11.76 7.57998 13.51 7.34998 13.75C7.09998 14.05 6.66998 14.59 6.23998 14.59C5.78998 14.59 5.51998 13.76 5.87998 12.67C6.22998 11.58 7.27998 9.81001 7.72998 9.15001C8.50998 8.01001 9.02998 7.23001 9.02998 5.87001C9.02998 3.70001 7.38998 3.01001 6.51998 3.01001C5.19998 3.01001 4.04998 4.01001 3.79998 4.26001C3.43998 4.62001 3.13998 4.92001 2.91998 5.19001L4.66998 6.90001ZM13.96 18.56C13.65 18.56 13.22 18.3 13.22 17.84C13.22 17.24 13.95 15.64 16.09 15.08C15.79 17.77 14.66 18.56 13.96 18.56Z" fill="black"/>
</svg>
