<svg width="24" height="24" viewBox="0 0 24 24" fill="none" xmlns="http://www.w3.org/2000/svg">
<path d="M14.39 11.065L16 12.675V11.065H14.39ZM17 7.06499H13V8.96499H17C18.71 8.96499 20.1 10.355 20.1 12.065C20.1 13.335 19.33 14.435 18.23 14.905L19.63 16.305C21.05 15.425 22 13.855 22 12.065C22 9.30499 19.76 7.06499 17 7.06499ZM2 4.33499L5.11 7.44499C3.29 8.18499 2 9.97499 2 12.065C2 14.825 4.24 17.065 7 17.065H11V15.165H7C5.29 15.165 3.9 13.775 3.9 12.065C3.9 10.475 5.11 9.16499 6.66 8.99499L8.73 11.065H8V13.065H10.73L13 15.335V17.065H14.73L18.74 21.075L20.15 19.665L3.41 2.92499L2 4.33499Z" fill="black"/>
</svg>
