<svg width="24" height="24" viewBox="0 0 24 24" fill="none" xmlns="http://www.w3.org/2000/svg">
<path d="M9.38998 4.70998H15.19L19.29 8.80998V14.61L19.07 14.83L20.49 16.24L21.29 15.44V7.97998L16.02 2.70998H8.55998L7.75998 3.50998L9.16998 4.92998L9.38998 4.70998Z" fill="black"/>
<path d="M12.29 16.71C12.8423 16.71 13.29 16.2623 13.29 15.71C13.29 15.1577 12.8423 14.71 12.29 14.71C11.7377 14.71 11.29 15.1577 11.29 15.71C11.29 16.2623 11.7377 16.71 12.29 16.71Z" fill="black"/>
<path d="M13.29 9.03998V6.70998H11.29V7.03998L13.29 9.03998ZM2.69998 1.28998L1.28998 2.69998L4.92998 6.33998L3.28998 7.97998V15.44L8.55998 20.71H16.02L17.66 19.07L21.3 22.71L22.71 21.3L2.69998 1.28998ZM15.19 18.71H9.38998L5.28998 14.61V8.80998L6.33998 7.75998L16.24 17.66L15.19 18.71Z" fill="black"/>
</svg>
