<svg width="24" height="24" viewBox="0 0 24 24" fill="none" xmlns="http://www.w3.org/2000/svg">
<path d="M22.0144 10.9862L13.0144 1.98623C12.6244 1.59623 11.9944 1.59623 11.6044 1.98623L8.5144 5.07623L9.9244 6.48623L12.3044 4.11623L19.8844 11.6962L17.5044 14.0762L18.9144 15.4862L22.0044 12.3962C22.4044 12.0262 22.4044 11.3962 22.0144 10.9862Z" fill="black"/>
<path d="M13.3044 7.19623V9.86623L15.4744 12.0362L16.8044 10.6962L13.3044 7.19623Z" fill="black"/>
<path d="M1.6944 3.91623L5.6844 7.90623L2.5944 10.9962C2.2044 11.3862 2.2044 12.0162 2.5944 12.4062L11.5944 21.4062C11.9844 21.7962 12.6144 21.7962 13.0044 21.4062L16.0944 18.3162L20.0844 22.3062L21.4944 20.8962L3.1144 2.50623L1.6944 3.91623ZM8.3344 10.5462C8.3244 10.5962 8.2944 10.6462 8.2944 10.6962V14.6962H10.2944V12.5162L14.6744 16.8962L12.3044 19.2762L4.7244 11.6962L7.1044 9.31623L8.3344 10.5462Z" fill="black"/>
</svg>
