<svg width="24" height="24" viewBox="0 0 24 24" fill="none" xmlns="http://www.w3.org/2000/svg">
<path d="M8.24501 4.81501C9.44501 4.10501 10.825 3.69501 12.305 3.69501C16.715 3.69501 20.305 7.28501 20.305 11.695C20.305 13.175 19.895 14.555 19.185 15.755L20.645 17.215C21.695 15.625 22.305 13.735 22.305 11.695C22.305 6.17501 17.825 1.69501 12.305 1.69501C10.265 1.69501 8.37501 2.30501 6.79501 3.35501L8.24501 4.81501Z" fill="black"/>
<path d="M3.11501 2.50501L1.69501 3.91501L3.96501 6.18501C2.91501 7.76501 2.30501 9.65501 2.30501 11.695C2.30501 17.215 6.78501 21.695 12.305 21.695C14.345 21.695 16.235 21.085 17.815 20.035L20.085 22.305L21.495 20.895L3.11501 2.50501ZM12.305 19.695C7.89501 19.695 4.30501 16.105 4.30501 11.695C4.30501 10.215 4.71501 8.83501 5.42501 7.63501L8.47501 10.695H7.30501V12.695H10.475L16.355 18.575C15.165 19.285 13.785 19.695 12.305 19.695Z" fill="black"/>
<path d="M14.135 10.695L16.135 12.695H17.305V10.695H14.135Z" fill="black"/>
</svg>
