<svg width="24" height="24" viewBox="0 0 24 24" fill="none" xmlns="http://www.w3.org/2000/svg">
<path d="M15.9 4.7711C15.73 4.7711 15.58 4.8611 15.49 5.0011L15.42 5.1511L10.24 16.8011C10.08 17.0911 9.98 17.4111 9.98 17.7611C9.98 18.8711 10.88 19.7711 11.99 19.7711C12.95 19.7711 13.76 19.0911 13.95 18.1811L13.96 18.1511L16.4 5.2711C16.4 4.9911 16.18 4.7711 15.9 4.7711ZM1 8.7711L3 10.7711C5.88 7.8911 9.79 6.6911 13.53 7.1511L14.72 4.4711C9.89 3.6111 4.74 5.0411 1 8.7711ZM21 10.7711L23 8.7711C21.36 7.1311 19.45 5.9511 17.41 5.2011L16.88 8.0211C18.38 8.6411 19.78 9.5511 21 10.7711ZM17 14.7711L19 12.7711C18.2 11.9711 17.3 11.3511 16.34 10.8811L15.79 13.8011C16.21 14.0711 16.62 14.3911 17 14.7711ZM5 12.7711L7 14.7711C8.13 13.6411 9.56 12.9811 11.03 12.7711L12.31 9.8911C9.68 9.8111 7.01 10.7611 5 12.7711Z" fill="black"/>
</svg>
