<svg width="24" height="24" viewBox="0 0 24 24" fill="none" xmlns="http://www.w3.org/2000/svg">
<path d="M20.0007 5.49933V4.49933C20.0007 3.39933 19.1007 2.49933 18.0007 2.49933C16.9007 2.49933 16.0007 3.39933 16.0007 4.49933V5.49933H15.0007V10.4993H21.0007V5.49933H20.0007ZM19.0007 5.49933H17.0007V4.49933C17.0007 3.94933 17.4507 3.49933 18.0007 3.49933C18.5507 3.49933 19.0007 3.94933 19.0007 4.49933V5.49933Z" fill="black"/>
<path d="M20.2007 15.3693L16.5307 14.6393C16.0307 14.5393 15.7007 14.8393 15.6307 14.9093L13.1107 17.4093C10.6107 15.9793 8.54069 13.9093 7.11069 11.4093L9.61069 8.88933C9.84069 8.64933 9.94069 8.31933 9.88069 7.98933L9.13069 4.29933C9.04069 3.83933 8.63069 3.49933 8.15069 3.49933H4.00069C3.44069 3.49933 2.97069 3.96933 3.00069 4.52933C3.17069 7.41933 4.05069 10.1293 5.43069 12.4993C7.01069 15.2293 9.28069 17.4893 12.0007 19.0693C14.3707 20.4393 17.0807 21.3293 19.9707 21.4993C20.5207 21.5293 21.0007 21.0693 21.0007 20.4993V16.3493C21.0007 15.8693 20.6607 15.4593 20.2007 15.3693ZM5.10069 5.49933H7.33069L7.80069 7.84933L6.17069 9.49933C5.63069 8.19933 5.27069 6.86933 5.10069 5.49933ZM19.0007 19.3993C17.6307 19.2193 16.3007 18.8693 15.0007 18.3293L16.6507 16.6993L19.0007 17.1693V19.3993Z" fill="black"/>
</svg>
