<svg width="24" height="24" viewBox="0 0 24 24" fill="none" xmlns="http://www.w3.org/2000/svg">
<path d="M20 15.725C18.76 15.725 17.55 15.525 16.43 15.155C16.33 15.115 16.22 15.105 16.12 15.105C15.86 15.105 15.61 15.205 15.41 15.395L13.21 17.595C10.38 16.145 8.06 13.835 6.62 11.005L8.82 8.80497C9.1 8.52497 9.18 8.13497 9.07 7.78497C8.7 6.66497 8.5 5.46497 8.5 4.21497C8.5 3.66497 8.05 3.21497 7.5 3.21497H4C3.45 3.21497 3 3.66497 3 4.21497C3 13.605 10.61 21.215 20 21.215C20.55 21.215 21 20.765 21 20.215V16.725C21 16.175 20.55 15.725 20 15.725ZM5.03 5.21497H6.53C6.6 6.10497 6.75 6.97497 6.99 7.80497L5.79 9.00497C5.38 7.80497 5.12 6.53497 5.03 5.21497ZM19 19.185C17.68 19.095 16.41 18.835 15.2 18.435L16.39 17.245C17.24 17.485 18.11 17.635 18.99 17.695V19.185H19ZM18 9.21497H15.41L20.43 4.19497L19.02 2.78497L14 7.80497V5.21497H12V11.215H18V9.21497Z" fill="black"/>
</svg>
