<svg width="24" height="24" viewBox="0 0 24 24" fill="none" xmlns="http://www.w3.org/2000/svg">
<g clip-path="url(#clip0_5_31218)">
<path d="M23.705 16.8C20.655 13.91 16.535 12.13 11.995 12.13C7.455 12.13 3.335 13.91 0.284995 16.8C0.104995 16.98 -0.00500488 17.23 -0.00500488 17.51C-0.00500488 17.79 0.104995 18.04 0.284995 18.22L2.765 20.7C2.945 20.88 3.195 20.99 3.475 20.99C3.745 20.99 3.99499 20.88 4.17499 20.71C4.96499 19.97 5.865 19.35 6.835 18.86C7.165 18.7 7.395 18.36 7.395 17.96V14.86C8.845 14.38 10.395 14.13 11.995 14.13C13.595 14.13 15.145 14.38 16.595 14.85V17.95C16.595 18.34 16.825 18.69 17.155 18.85C18.135 19.34 19.025 19.97 19.825 20.7C20.005 20.88 20.255 20.98 20.525 20.98C20.805 20.98 21.055 20.87 21.235 20.69L23.715 18.21C23.895 18.03 24.005 17.78 24.005 17.5C24.005 17.22 23.885 16.98 23.705 16.8ZM5.395 17.36C4.735 17.73 4.105 18.16 3.525 18.63L2.455 17.56C3.365 16.81 4.35499 16.17 5.40499 15.66V17.36H5.395ZM20.475 18.62C19.875 18.14 19.255 17.72 18.595 17.35V15.65C19.645 16.16 20.625 16.8 21.545 17.55L20.475 18.62ZM6.995 6.56001L11.935 11.5L19.005 4.43001L17.595 3.01001L11.935 8.67001L8.39499 5.13001H10.995V3.13001H4.995V9.13001H6.995V6.56001Z" fill="black"/>
</g>
<defs>
<clipPath id="clip0_5_31218">
<rect width="24" height="24" fill="white"/>
</clipPath>
</defs>
</svg>
