<svg width="24" height="24" viewBox="0 0 24 24" fill="none" xmlns="http://www.w3.org/2000/svg">
<path d="M10.215 2.505H8.21499V4.385L10.215 6.385V2.505ZM16.215 8.505V12.385L18.015 14.185L18.215 13.985V8.505C18.215 7.405 17.315 6.505 16.215 6.505V2.505H14.215V6.505H10.335L12.335 8.505H16.215ZM4.33499 3.345L2.92499 4.755L6.21499 8.045V14.005L9.71499 17.505V20.505H14.715V17.505L15.195 17.025L19.665 21.495L21.075 20.085L4.33499 3.345ZM12.715 16.675V18.505H11.715V16.675L8.21499 13.155V10.045L13.785 15.615L12.715 16.675Z" fill="black"/>
</svg>
