<svg width="24" height="24" viewBox="0 0 24 24" fill="none" xmlns="http://www.w3.org/2000/svg">
<path d="M10.46 5.67001V3.58001C9.80001 3.75001 9.17001 4.01001 8.58001 4.33001L10.08 5.83001C10.21 5.78001 10.33 5.72001 10.46 5.67001ZM20.46 11.32C20.46 9.11001 19.55 7.12001 18.1 5.68001L20.46 3.32001H14.46V9.32001L16.7 7.08001C17.78 8.17001 18.46 9.66001 18.46 11.32C18.46 12.17 18.27 12.97 17.95 13.7L19.45 15.2C20.09 14.06 20.46 12.73 20.46 11.32ZM4.73001 3.32001L3.32001 4.73001L5.68001 7.09001C4.91001 8.31001 4.46001 9.76001 4.46001 11.32C4.46001 13.53 5.37001 15.52 6.82001 16.96L4.46001 19.32H10.46V13.32L8.22001 15.56C7.14001 14.47 6.46001 12.98 6.46001 11.32C6.46001 10.32 6.71001 9.38001 7.14001 8.55001L15.22 16.63C14.97 16.76 14.72 16.87 14.46 16.97V19.06C15.26 18.85 16.01 18.52 16.69 18.1L19.27 20.68L20.68 19.27L4.73001 3.32001Z" fill="black"/>
</svg>
