<svg width="24" height="24" viewBox="0 0 24 24" fill="none" xmlns="http://www.w3.org/2000/svg">
<path d="M20.3278 12.74L19.5078 12.11C19.5078 12.02 19.5078 11.98 19.5078 11.89L20.3078 11.26C20.4678 11.14 20.5078 10.92 20.4078 10.75L19.5578 9.27C19.4878 9.14 19.3478 9.07 19.2078 9.07C19.1578 9.07 19.1078 9.08 19.0578 9.1L18.1078 9.48C18.0278 9.43 17.9978 9.41 17.9178 9.37L17.7678 8.36C17.7378 8.15 17.5678 8 17.3678 8H15.6578C15.4578 8 15.2878 8.15 15.2578 8.34L15.1178 9.35C15.0878 9.37 15.0478 9.38 15.0178 9.4C14.9878 9.42 14.9578 9.44 14.9278 9.46L13.9778 9.08C13.9278 9.06 13.8778 9.05 13.8278 9.05C13.6878 9.05 13.5578 9.12 13.4778 9.25L12.6278 10.73C12.5278 10.9 12.5678 11.12 12.7278 11.24L13.5278 11.87C13.5278 11.96 13.5278 12 13.5278 12.1L12.7278 12.73C12.5678 12.85 12.5278 13.07 12.6278 13.24L13.4778 14.72C13.5478 14.85 13.6878 14.92 13.8278 14.92C13.8778 14.92 13.9278 14.91 13.9778 14.89L14.9278 14.52C15.0078 14.57 15.0478 14.59 15.1278 14.63L15.2778 15.64C15.3078 15.84 15.4778 15.98 15.6778 15.98H17.3878C17.5878 15.98 17.7578 15.83 17.7878 15.64L17.9378 14.63C17.9678 14.61 18.0078 14.6 18.0378 14.58C18.0678 14.56 18.0978 14.54 18.1278 14.52L19.0778 14.9C19.1278 14.92 19.1778 14.93 19.2278 14.93C19.3678 14.93 19.4978 14.86 19.5778 14.73L20.4278 13.25C20.5278 13.08 20.4878 12.86 20.3278 12.74ZM16.5178 13.5C15.6878 13.5 15.0178 12.83 15.0178 12C15.0178 11.17 15.6878 10.5 16.5178 10.5C17.3478 10.5 18.0178 11.17 18.0178 12C18.0178 12.83 17.3478 13.5 16.5178 13.5ZM15.5178 18H5.51776V6H15.5178V7H17.5178V3C17.5178 1.9 16.6178 1 15.5178 1H5.51776C4.41776 1 3.51776 1.9 3.51776 3V21C3.51776 22.1 4.41776 23 5.51776 23H15.5178C16.6178 23 17.5178 22.1 17.5178 21V17H15.5178V18ZM5.51776 3H15.5178V4H5.51776V3ZM15.5178 21H5.51776V20H15.5178V21Z" fill="black"/>
</svg>
